<?xml version="1.0" encoding="UTF-8"?>
<!DOCTYPE svg PUBLIC "-//W3C//DTD SVG 1.1//EN" "http://www.w3.org/Graphics/SVG/1.1/DTD/svg11.dtd">
<!-- Creator: CorelDRAW X8 -->
<svg xmlns="http://www.w3.org/2000/svg" xml:space="preserve" width="200px" height="200px" version="1.1" style="shape-rendering:geometricPrecision; text-rendering:geometricPrecision; image-rendering:optimizeQuality; fill-rule:evenodd; clip-rule:evenodd"
viewBox="0 0 200 200"
 xmlns:xlink="http://www.w3.org/1999/xlink">
 <defs>
  <style type="text/css">
   <![CDATA[
    .fil0 {fill:none}
    .fil4 {fill:#FEFEFE;fill-rule:nonzero}
    .fil8 {fill:#C8DDF4;fill-rule:nonzero}
    .fil1 {fill:#9DBEE5;fill-rule:nonzero}
    .fil5 {fill:#344B80;fill-rule:nonzero}
    .fil2 {fill:#364075;fill-rule:nonzero}
    .fil6 {fill:#303963;fill-rule:nonzero}
    .fil7 {fill:#2C3353;fill-rule:nonzero}
    .fil3 {fill:#2C2C4A;fill-rule:nonzero}
   ]]>
  </style>
 </defs>
 <g id="Layer_x0020_1">
  <metadata id="CorelCorpID_0Corel-Layer"/>
  <rect class="fil0" width="200" height="200"/>
  <rect class="fil0" width="200" height="200"/>
  <g id="_2530046608304">
   <path class="fil1" d="M44 71l25 -8 -11 -5 -3 4c0,0 -1,0 -1,0l-5 -1 -5 10zm28 -7l-30 10c-1,0 -1,0 -1,0 0,-1 0,-1 0,-1l7 -14c0,0 1,0 1,0l5 1 3 -4c0,0 0,0 1,0l14 6c0,0 0,1 0,1 0,0 0,1 0,1z"/>
   <path class="fil1" d="M37 57l5 14 6 -11 -11 -3zm5 17c0,0 0,0 -1,0 0,0 0,0 0,-1l-6 -17c0,-1 0,-1 0,-1 0,0 0,-1 1,0l13 4c0,0 1,0 1,0 0,1 0,1 0,1l-8 14c0,0 0,0 0,0z"/>
   <path class="fil1" d="M59 56l11 5 -5 -14 -6 9zm13 8c-1,0 -1,0 -1,0l-14 -6c0,0 0,-1 -1,-1 0,0 0,0 1,-1l8 -11c0,-1 0,-1 1,-1 0,0 0,1 0,1l6 18c0,0 0,0 0,1 0,0 0,0 0,0z"/>
   <path class="fil1" d="M38 55l16 5 9 -13 -25 8zm17 7c-1,0 -1,0 -1,0l-19 -6c0,0 0,0 0,-1 0,0 0,0 0,0l30 -11c0,0 1,0 1,1 0,0 0,0 0,1l-11 16c0,0 0,0 0,0z"/>
   <path class="fil1" d="M39 180l27 -14 -13 -3 -3 4c0,1 0,1 -1,1l-5 -1 -5 13zm30 -13l-31 16c-1,0 -1,0 -2,-1 0,0 0,0 0,-1l6 -16c1,0 1,0 1,0l6 1 2 -5c1,0 1,-1 2,-1l16 5c0,0 1,1 1,1 0,0 -1,1 -1,1z"/>
   <path class="fil1" d="M30 164l7 15 5 -12 -12 -3zm8 19c-1,0 -1,0 -1,0 0,0 -1,0 -1,-1l-9 -18c0,-1 0,-1 0,-2 0,0 1,0 1,0l15 3c1,0 1,0 1,0 0,1 0,1 0,1l-6 16c0,0 0,1 0,1z"/>
   <path class="fil1" d="M54 161l13 3 -8 -14 -5 11zm15 6c0,0 0,0 -1,0l-16 -5c0,0 -1,0 -1,0 0,0 0,-1 0,-1l7 -14c1,0 1,-1 1,-1 1,0 1,1 1,1l10 19c0,0 0,0 -1,1 0,0 0,0 0,0z"/>
   <path class="fil1" d="M31 163l18 3 8 -16 -26 13zm19 5c0,0 -1,0 -1,0l-21 -4c-1,0 -1,0 -1,-1 0,0 0,-1 0,-1l32 -16c0,0 1,0 1,1 0,0 1,0 0,1l-10 19c0,1 0,1 0,1z"/>
   <path class="fil1" d="M141 129l28 12 -6 -12 -5 1c0,0 -1,0 -1,0l-3 -5 -13 4zm29 15l-32 -14c0,0 0,0 0,-1 0,0 0,-1 0,-1l16 -5c1,0 1,0 2,0l2 5 6 -1c0,-1 0,0 1,0l7 16c0,0 0,0 0,1 -1,0 -1,0 -2,0z"/>
   <path class="fil1" d="M147 112l-7 15 13 -4 -6 -11zm-9 18c0,0 0,0 0,0 0,0 -1,-1 0,-1l8 -19c0,-1 0,-1 1,-1 0,0 0,0 1,1l8 13c0,0 0,1 0,1 0,0 -1,1 -1,1l-16 5c0,0 -1,0 -1,0z"/>
   <path class="fil1" d="M165 128l6 12 6 -15 -12 3zm5 16c0,0 0,0 0,-1l-7 -15c0,0 0,-1 0,-1 0,0 0,0 1,0l15 -4c0,0 1,0 1,0 0,1 0,1 0,1l-8 19c0,1 -1,1 -1,1 0,0 -1,0 -1,0z"/>
   <path class="fil1" d="M149 112l9 16 18 -4 -27 -12zm8 18c0,0 0,0 0,0l-11 -19c0,-1 0,-1 0,-2 0,0 1,0 1,0l32 14c1,0 1,1 1,1 0,1 0,1 -1,1l-21 5c0,0 0,0 -1,0z"/>
   <path class="fil2" d="M44 98c0,0 0,0 0,-1 0,0 0,0 0,0 1,0 2,0 3,0l0 0c0,0 0,0 0,0 0,0 0,1 0,1l0 0c-1,0 -2,0 -3,0 0,0 0,0 0,0zm9 0c0,0 0,0 0,0 -1,0 -2,0 -3,0 0,0 0,0 0,-1 0,0 0,0 1,0 0,0 1,1 2,1 0,0 1,0 0,0 0,0 0,0 0,0zm-15 1c0,0 0,0 0,0 0,0 0,0 0,0 1,-1 1,-1 2,-1 1,0 1,0 1,0 0,0 0,0 0,0 -1,1 -2,1 -3,1 0,0 0,0 0,0zm21 2c0,0 0,0 0,0 -1,0 -2,-1 -3,-1 0,0 0,-1 0,-1 0,0 1,0 1,0 1,1 1,1 2,1 0,1 0,1 0,1 0,0 0,0 0,0zm-27 2c0,0 0,0 0,0 0,-1 0,-1 0,-1 1,0 2,-1 2,-2 1,0 1,0 1,1 0,0 0,0 0,0 -1,1 -2,1 -2,2 0,0 0,0 -1,0zm32 2c0,0 0,0 0,0 -1,0 -2,-1 -2,-2 0,0 0,0 0,0 0,0 0,0 0,0 1,0 1,1 2,2 0,0 0,0 0,0 0,0 0,0 0,0zm-36 2c0,0 0,0 0,0 0,0 0,0 0,0 0,-1 1,-2 2,-2 0,0 0,0 0,0 0,0 0,0 0,0 -1,1 -1,2 -2,2 0,0 0,0 0,0zm39 4c0,0 0,0 0,0 0,-1 -1,-2 -1,-3 0,0 0,0 0,0 0,0 0,0 0,0 1,1 1,1 2,2 0,0 0,1 -1,1 0,0 0,0 0,0zm-42 2c0,0 0,0 0,0 0,0 0,0 0,0l0 0c0,-1 1,-2 1,-3 0,0 0,0 0,0 1,0 1,0 1,0 -1,1 -1,2 -1,3l0 0c0,0 -1,0 -1,0zm44 4c0,0 0,0 0,0 0,-1 -1,-2 -1,-3 0,0 0,0 0,0 1,0 1,0 1,0 0,1 0,2 0,2 0,1 0,1 0,1 0,0 0,0 0,0zm-45 2l0 0c0,0 0,0 0,0 0,-1 0,-2 0,-3 0,0 0,0 1,0 0,0 0,0 0,1 0,0 0,1 0,2 0,0 -1,0 -1,0zm45 4c0,0 0,0 0,0 0,0 0,0 0,0 0,-1 0,-2 0,-3 0,0 0,0 0,0 0,0 1,0 1,0 0,1 0,2 -1,3 0,0 0,0 0,0zm-44 3c0,0 0,0 0,0 -1,-1 -1,-2 -1,-3 0,0 0,0 0,0 1,0 1,0 1,0 0,1 0,2 0,2 0,1 0,1 0,1 0,0 0,0 0,0zm42 3c0,0 0,0 0,0 0,0 0,0 0,0 0,-1 1,-2 1,-3l0 0c0,0 0,0 0,0 0,0 1,0 1,1l0 0c-1,1 -1,1 -1,2 -1,0 -1,0 -1,0zm-39 3c-1,0 -1,0 -1,0 0,-1 -1,-2 -1,-3 0,0 0,0 0,0 0,0 1,0 1,0 0,1 0,1 1,2 0,0 0,1 0,1 0,0 0,0 0,0zm36 3c0,0 0,0 0,0 -1,0 -1,-1 0,-1 0,0 1,-1 1,-2 0,0 0,0 1,0 0,0 0,0 0,1 -1,0 -1,1 -2,2 0,0 0,0 0,0zm-32 2c0,0 -1,0 -1,0 0,-1 -1,-2 -2,-2 0,-1 0,-1 1,-1 0,0 0,0 0,0 1,1 1,2 2,2 0,0 0,0 0,1 0,0 0,0 0,0zm27 2c0,0 0,0 0,0 0,0 0,-1 0,-1 0,0 1,-1 2,-1 0,0 0,0 0,0 0,0 0,0 0,0 0,1 -1,1 -2,2 0,0 0,0 0,0zm-22 1c0,0 0,0 0,0 -1,0 -2,-1 -3,-1 0,0 0,0 0,-1 0,0 1,0 1,0 0,1 1,1 2,2 0,0 0,0 0,0 0,0 0,0 0,0zm16 2c0,0 0,0 0,-1 0,0 0,0 0,0 1,0 2,-1 2,-1 1,0 1,0 1,0 0,0 0,1 0,1 -1,0 -2,0 -3,1 0,0 0,0 0,0zm-10 0c0,0 0,0 0,0 -1,0 -2,0 -3,0 0,0 0,-1 0,-1 0,0 0,0 0,0 1,0 2,0 3,1 0,0 0,0 0,0 0,0 0,0 0,0zm4 1l0 0c0,0 -1,-1 -1,-1 0,0 1,0 1,0l0 0c1,0 2,0 2,0 1,0 1,0 1,0 0,0 0,0 -1,0 0,0 -1,1 -2,1z"/>
   <path class="fil2" d="M145 75c-1,0 -1,0 -1,0 0,-1 0,-1 0,-1 1,0 2,0 3,0 0,0 1,0 1,1 0,0 0,0 -1,0 -1,0 -2,0 -2,0l0 0zm9 0c0,0 0,0 0,0 -1,0 -2,0 -3,0 0,0 0,0 0,0 0,-1 0,-1 0,-1 1,0 2,0 3,0 0,1 0,1 0,1 0,0 0,0 0,0zm-16 1c0,0 0,0 0,0 -1,-1 0,-1 0,-1 1,0 2,0 3,0 0,0 0,0 0,0 0,0 0,0 0,1 -1,0 -2,0 -3,0 0,0 0,0 0,0zm22 1c0,0 0,0 0,0 -1,-1 -2,-1 -2,-1 -1,0 -1,0 -1,-1 0,0 1,0 1,0 1,0 2,1 2,1 1,0 1,0 1,0 0,0 0,1 -1,1zm-28 1c-1,0 -1,0 -1,0 0,-1 0,-1 0,-1 1,0 2,-1 3,-1 0,0 1,0 1,0 0,1 0,1 -1,1 -1,0 -1,0 -2,1 0,0 0,0 0,0zm35 1c0,0 -1,0 -1,0 0,-1 -1,-1 -2,-1 0,0 0,-1 0,-1 0,0 0,0 0,0 1,0 2,1 3,1 0,0 0,0 0,0 0,1 0,1 0,1zm-41 1c-1,0 -1,0 -1,0 0,0 0,0 0,0 1,-1 2,-1 3,-2 0,0 0,0 0,1 1,0 0,0 0,0 -1,1 -1,1 -2,1 0,0 0,0 0,0zm46 2c0,0 0,0 0,0 -1,-1 -1,-1 -2,-2 0,0 0,0 0,0 0,0 0,-1 0,0 1,0 2,0 3,1 0,0 0,0 0,0 0,1 0,1 -1,1zm-52 2c0,0 0,0 0,0 -1,-1 -1,-1 0,-1 0,0 1,-1 2,-1 0,-1 0,-1 1,0 0,0 0,0 -1,0 0,1 -1,1 -2,2 0,0 0,0 0,0zm58 1c0,0 0,0 0,0 -1,0 -2,-1 -3,-1 0,0 0,-1 0,-1 1,0 1,0 1,0 1,1 1,1 2,2 0,0 0,0 0,0 0,0 0,0 0,0zm-63 3c0,0 0,0 -1,0 0,0 0,-1 1,-1 0,0 1,-1 2,-2 0,0 0,0 0,1 0,0 0,0 0,0 -1,1 -1,1 -2,2 0,0 0,0 0,0zm68 2c0,0 0,0 0,0 -1,-1 -2,-2 -2,-2 -1,0 -1,-1 0,-1 0,0 0,0 0,0 1,1 2,1 2,2 0,0 0,1 0,1 0,0 0,0 0,0zm-73 3c0,0 0,0 0,0 0,0 0,-1 0,-1 1,-1 1,-1 2,-2 0,0 0,0 0,0 1,0 1,0 0,1 0,0 -1,1 -1,2 0,0 -1,0 -1,0zm77 2c0,0 0,0 0,0 -1,-1 -1,-2 -2,-2 0,-1 0,-1 0,-1 0,0 1,0 1,0 0,1 1,2 1,2 1,0 1,1 0,1 0,0 0,0 0,0zm-81 3c0,0 0,0 0,0 0,0 0,0 0,0 1,-1 1,-2 2,-3 0,0 0,0 0,0 0,0 0,1 0,1 0,1 -1,1 -1,2 0,0 0,0 -1,0zm85 3c-1,0 -1,-1 -1,-1 0,0 -1,-1 -1,-2 0,0 0,-1 0,-1 0,0 0,0 1,1 0,0 1,1 1,2 0,0 0,0 0,1 0,0 0,0 0,0zm-88 3c0,0 0,0 0,0 0,0 0,0 0,0 0,-1 1,-2 1,-3 0,0 1,0 1,0 0,0 0,0 0,0 0,1 -1,2 -1,3 0,0 0,0 -1,0zm90 3c0,0 0,-1 0,-1 0,-1 -1,-1 -1,-2 0,0 0,-1 0,-1 0,0 1,0 1,0 0,1 0,2 1,3 0,0 0,0 -1,1 0,0 0,0 0,0zm-92 3c0,0 0,0 0,0 0,0 0,0 0,0 0,-1 0,-2 1,-3 0,0 0,0 0,0 0,0 1,0 0,0 0,1 0,2 0,3 0,0 -1,0 -1,0zm94 3c0,0 0,0 0,0 0,-1 -1,-2 -1,-3 0,0 0,-1 0,-1 1,0 1,0 1,1 0,1 0,1 1,2 0,1 -1,1 -1,1 0,0 0,0 0,0zm-95 4c0,0 0,0 0,0 0,0 -1,0 -1,-1 1,-1 1,-1 1,-2 0,-1 0,-1 0,-1 1,0 1,1 1,1 0,1 -1,2 -1,2 0,1 0,1 0,1zm96 2c0,0 0,0 0,0 0,-1 0,-2 -1,-3 0,0 1,0 1,0 0,0 0,0 0,0 0,1 0,2 1,3 0,0 -1,0 -1,0l0 0zm-97 4c0,0 0,0 0,0l0 0c0,-1 0,-2 0,-3 0,0 0,0 1,0 0,0 0,0 0,0 0,1 0,2 0,3l0 0c0,0 0,0 -1,0l0 0zm97 3l0 0c0,0 0,0 0,0 0,-1 0,-2 0,-3l0 0c0,0 0,-1 0,-1l0 0c1,0 1,1 1,1l0 0c0,1 0,2 0,3 0,0 -1,0 -1,0zm-96 4c0,0 0,0 -1,0 0,-1 0,-2 0,-3 0,0 0,-1 1,-1 0,0 0,1 0,1 0,1 0,2 0,3 0,0 0,0 0,0 0,0 0,0 0,0zm95 3c0,0 0,0 0,0 0,0 0,-1 0,-1 0,-1 0,-2 0,-3 0,0 1,0 1,0 0,0 0,0 0,1 0,1 0,1 0,2 0,1 0,1 -1,1zm-94 3c0,0 0,0 0,0 0,-1 -1,-2 -1,-3 0,0 0,0 1,0 0,0 0,0 0,0 0,1 0,2 1,3 0,0 0,0 -1,0 0,0 0,0 0,0zm93 3c0,0 0,0 0,0 -1,0 -1,0 -1,0 1,-1 1,-2 1,-3 0,0 0,0 1,0 0,0 0,0 0,0 0,1 -1,2 -1,3 0,0 0,0 0,0zm-91 4c0,0 0,0 0,-1 0,0 -1,-1 -1,-2 0,0 0,-1 0,-1 1,0 1,0 1,1 0,0 1,1 1,2 0,0 0,1 0,1 0,0 0,0 -1,0zm88 2c0,0 0,0 0,0 0,0 0,0 0,0 0,-1 1,-2 1,-3 0,0 0,0 0,0 1,0 1,0 1,0 -1,1 -1,2 -1,3 -1,0 -1,0 -1,0zm-84 4c-1,0 -1,-1 -1,-1 0,0 -1,-1 -1,-2 0,0 0,-1 0,-1 0,0 0,0 1,1 0,0 0,1 1,2 0,0 0,0 0,1 0,0 0,0 0,0zm81 2c0,0 0,0 -1,0 0,0 0,-1 0,-1 1,-1 1,-1 2,-2 0,0 0,0 0,0 1,0 1,0 1,0 -1,1 -1,2 -2,3 0,0 0,0 0,0zm-78 3c0,0 0,0 0,0 -1,-1 -1,-2 -2,-2 0,-1 0,-1 0,-1 1,0 1,0 1,0 1,1 1,2 2,2 0,0 0,1 0,1 0,0 -1,0 -1,0zm74 2c0,0 -1,0 -1,0 0,0 0,-1 0,-1 1,0 2,-1 2,-2 0,0 1,0 1,0 0,0 0,1 0,1 -1,0 -1,1 -2,2 0,0 0,0 0,0zm-69 3c0,0 0,0 0,0 -1,-1 -2,-2 -2,-2 -1,0 -1,-1 0,-1 0,0 0,0 0,0 1,1 1,1 2,2 0,0 0,0 0,1 0,0 0,0 0,0zm64 2c0,0 0,0 0,-1 -1,0 -1,0 0,0 0,-1 1,-1 2,-2 0,0 0,0 0,0 0,0 0,0 0,1 0,0 -1,1 -2,1 0,1 0,1 0,1zm-59 2c0,0 0,0 0,0 -1,-1 -2,-1 -2,-2 -1,0 -1,0 -1,0 1,-1 1,-1 1,0 1,0 1,1 2,1 0,0 0,1 0,1 0,0 0,0 0,0zm54 1c-1,0 -1,0 -1,0 0,0 0,0 0,0 1,-1 2,-1 3,-2 0,0 0,0 0,0 0,0 0,1 0,1 -1,0 -1,1 -2,1 0,0 0,0 0,0zm-48 2c0,0 -1,0 -1,0 0,0 -1,-1 -2,-1 0,0 0,0 0,-1 0,0 0,0 0,0 1,1 2,1 3,2 0,0 0,0 0,0 0,0 0,0 0,0zm42 2c0,0 -1,-1 -1,-1 0,0 0,0 1,0 0,-1 1,-1 2,-1 0,-1 0,0 1,0 0,0 0,0 -1,0 0,1 -1,1 -2,2 0,0 0,0 0,0zm-36 1c0,0 0,0 0,0 -1,0 -2,-1 -3,-1 0,0 0,0 0,-1 0,0 0,0 0,0 1,1 2,1 3,1 0,0 0,1 0,1 0,0 0,0 0,0zm29 1c0,0 0,0 0,0 0,-1 0,-1 0,-1 1,0 2,-1 3,-1 0,0 0,0 1,0 0,1 -1,1 -1,1 -1,0 -2,1 -2,1 0,0 0,0 -1,0zm-23 1c0,0 0,0 0,0 -1,0 -2,-1 -3,-1 0,0 0,0 0,0 0,-1 0,-1 0,-1 1,1 2,1 3,1 0,0 1,0 0,0 0,1 0,1 0,1zm17 0c0,0 0,0 0,0 0,0 0,-1 0,-1 1,0 2,0 3,0 0,0 0,0 0,0 0,1 0,1 0,1 -1,0 -2,0 -3,0 0,0 0,0 0,0zm-10 1l0 0c-1,0 -2,0 -3,-1 0,0 -1,0 -1,0 0,0 1,0 1,0 1,0 2,0 3,0 0,0 0,0 0,0 0,1 0,1 0,1zm3 0c0,0 0,0 0,-1 0,0 0,0 0,0 1,0 2,0 3,0 0,0 1,0 1,0 0,0 -1,1 -1,1 -1,0 -2,0 -3,0l0 0z"/>
   <path class="fil2" d="M10 56l2 0c0,0 0,1 0,1 0,0 0,0 0,0l-2 0c0,0 0,0 0,0 0,0 0,0 0,0 0,0 0,-1 0,-1z"/>
   <path class="fil2" d="M17 57c0,0 0,0 0,0 0,0 -1,0 -1,0l-1 0c-1,0 -1,0 -1,0 0,0 0,-1 1,-1l1 0c1,0 1,1 1,1z"/>
   <path class="fil2" d="M14 54l0 2c0,0 -1,0 -1,0 0,0 0,0 0,0l0 -2c0,0 0,-1 0,-1 0,0 0,0 1,0 0,1 0,1 0,1z"/>
   <path class="fil2" d="M13 58l0 0c0,0 1,0 1,0l0 2c0,0 -1,1 -1,1 0,0 0,-1 0,-1 0,0 0,0 0,0l0 -2c0,0 0,0 0,0z"/>
   <path class="fil2" d="M30 41c0,0 -1,0 -1,-1 0,0 1,-1 1,-1 1,0 1,1 1,1 0,1 0,1 -1,1zm0 -3c-1,0 -2,1 -2,2 0,1 1,2 2,2 1,0 2,-1 2,-2 0,-1 -1,-2 -2,-2z"/>
   <path class="fil2" d="M28 144c-1,0 -2,0 -2,-1 0,0 1,-1 2,-1 0,0 1,1 1,1 0,1 -1,1 -1,1zm0 -3c-2,0 -2,1 -2,2 0,1 0,2 2,2 1,0 1,-1 1,-2 0,-1 0,-2 -1,-2z"/>
   <path class="fil2" d="M37 124l1 0c0,0 0,0 0,0 0,1 0,1 0,1l-1 0c-1,0 -1,0 -1,-1 0,0 0,0 0,0 0,0 0,0 1,0z"/>
   <path class="fil2" d="M41 124c0,0 0,1 0,1 0,0 -1,0 -1,0l-1 0c0,0 0,0 0,-1 0,0 0,0 0,0l1 0c1,0 1,0 1,0z"/>
   <path class="fil2" d="M39 122l0 2c0,0 0,0 -1,0 0,0 0,0 0,0l0 -2c0,0 0,0 0,0 1,0 1,0 1,0 0,0 0,0 0,0z"/>
   <path class="fil2" d="M38 125l0 0c1,0 1,0 1,0l0 1c0,0 0,1 -1,1 0,0 0,0 0,-1 0,0 0,0 0,0l0 -1c0,0 0,0 0,0z"/>
   <path class="fil2" d="M164 93c0,0 -1,0 -1,-1 0,0 1,-1 1,-1 1,0 1,1 1,1 0,1 0,1 -1,1zm0 -3c-1,0 -2,1 -2,2 0,1 1,2 2,2 1,0 2,-1 2,-2 0,-1 -1,-2 -2,-2z"/>
   <path class="fil2" d="M172 106l2 0c0,0 0,0 0,0 0,0 0,0 0,0l-2 0c0,0 0,0 0,0 0,0 0,0 0,0 0,0 0,0 0,0z"/>
   <path class="fil2" d="M177 106c0,0 0,0 0,0 0,0 0,0 0,0l-1 0c-1,0 -1,0 -1,0 0,0 0,0 1,0l1 0c0,0 0,0 0,0z"/>
   <path class="fil2" d="M175 104l0 1c0,0 0,0 0,0 -1,0 -1,0 -1,0l0 -1c0,-1 0,-1 1,-1 0,0 0,0 0,0 0,0 0,1 0,1z"/>
   <path class="fil2" d="M175 107l0 0c0,0 0,0 0,0l0 1c0,1 0,1 0,1 -1,0 -1,0 -1,0 0,0 0,-1 0,-1l0 -1c0,0 0,0 1,0z"/>
   <path class="fil2" d="M159 184l1 0c0,0 0,0 0,0 0,0 0,0 0,0l-1 0c-1,0 -1,0 -1,0 0,0 0,0 0,0 0,0 0,0 1,0z"/>
   <path class="fil2" d="M164 184c0,0 0,0 0,0 -1,0 -1,0 -1,0l-1 0c0,0 0,0 0,0 0,0 0,0 0,0l1 0c0,0 1,0 1,0z"/>
   <path class="fil2" d="M161 182l0 1c0,0 0,0 0,0 0,0 0,0 0,0l0 -1c0,-1 0,-1 0,-1 0,0 0,0 0,0 0,0 0,1 0,1z"/>
   <path class="fil2" d="M161 185l0 0c0,0 0,0 0,0l0 1c0,1 0,1 0,1 0,0 0,0 0,0 0,0 0,-1 0,-1l0 -1c0,0 0,0 0,0z"/>
   <path class="fil2" d="M138 16c0,0 -1,0 -1,-1 0,0 1,-1 1,-1 1,0 1,1 1,1 0,1 0,1 -1,1zm0 -3c-1,0 -2,1 -2,2 0,1 1,2 2,2 1,0 2,-1 2,-2 0,-1 -1,-2 -2,-2z"/>
   <path class="fil2" d="M159 35l2 0c0,0 0,0 0,0 0,0 0,0 0,0l-2 0c0,0 0,0 0,0 0,0 0,0 0,0 0,0 0,0 0,0z"/>
   <path class="fil2" d="M164 35c0,0 0,0 0,0 0,0 0,0 0,0l-1 0c-1,0 -1,0 -1,0 0,0 0,0 1,0l1 0c0,0 0,0 0,0z"/>
   <path class="fil2" d="M162 33l0 1c0,0 0,0 0,0 -1,0 -1,0 -1,0l0 -1c0,-1 0,-1 1,-1 0,0 0,0 0,0 0,0 0,1 0,1z"/>
   <path class="fil2" d="M162 36l0 0c0,0 0,0 0,0l0 1c0,1 0,1 0,1 -1,0 -1,0 -1,0 0,0 0,-1 0,-1l0 -1c0,0 0,0 1,0z"/>
   <path class="fil2" d="M181 66c0,0 -1,0 -1,0 0,-1 0,-1 1,-1 1,0 1,0 2,0 1,0 1,0 1,0 0,0 0,1 -1,1 0,0 -1,0 -2,0 0,0 0,0 0,0zm9 1c0,0 0,0 0,0 -1,-1 -1,-1 -1,-1 -1,0 -1,0 -2,0 0,0 0,0 0,-1 0,0 0,0 0,0 1,0 1,0 2,1 0,0 1,0 1,0 0,0 0,0 0,0 0,1 0,1 0,1zm-15 2c0,0 0,0 -1,-1 0,0 0,0 1,0 0,-1 1,-1 2,-1 0,-1 0,0 0,0 0,0 0,0 0,0 -1,1 -1,1 -2,1 0,1 0,1 0,1zm20 1c0,0 0,0 0,0 -1,0 -1,-1 -2,-2 0,0 0,0 0,0 0,0 0,0 0,0 1,0 2,1 2,2 1,0 1,0 0,0 0,0 0,0 0,0zm-25 3c0,0 0,0 0,0 0,0 0,0 0,0 1,-1 1,-2 2,-2 0,-1 0,-1 0,0 0,0 0,0 0,0 0,1 -1,1 -1,2 0,0 0,0 -1,0zm29 3c0,0 -1,0 -1,0 0,-1 0,-2 -1,-3 0,0 0,0 0,0 1,0 1,0 1,0 0,1 1,1 1,2 0,1 0,1 0,1 0,0 0,0 0,0zm-31 4l0 0c0,0 0,-1 0,-1 0,-1 0,-2 1,-2 0,-1 0,-1 0,-1 0,0 0,1 0,1 0,1 0,1 0,2 0,0 0,1 -1,1zm32 2l0 0c-1,0 -1,0 -1,0 0,0 0,-1 0,-1 0,-1 0,-1 0,-2 0,0 0,0 1,0 0,0 0,0 0,0 0,1 0,1 0,2 0,0 0,1 0,1 0,0 0,0 0,0zm-31 4c0,0 0,0 0,0 0,-1 -1,-2 -1,-3 0,0 0,0 0,0 1,0 1,0 1,0 0,1 0,2 0,3 1,0 0,0 0,0 0,0 0,0 0,0zm29 3c0,0 0,-1 0,-1 0,0 -1,0 0,0 0,-1 0,-2 1,-2l0 0c0,-1 0,-1 0,-1 0,0 0,1 0,1l0 0c0,1 0,2 -1,2 0,0 0,1 0,1zm-26 3c0,0 0,0 0,0 0,-1 -1,-2 -2,-3 0,0 0,0 1,0 0,0 0,0 0,0 1,1 1,2 2,2 0,0 0,1 0,1 0,0 -1,0 -1,0zm22 2c0,0 -1,-1 -1,-1 0,0 0,0 0,0 1,-1 2,-1 2,-2 1,0 1,0 1,0 0,0 0,0 0,1 -1,0 -1,1 -2,1 0,0 0,1 0,1zm-16 2c0,0 0,0 0,-1 -1,0 -2,0 -3,-1 0,0 0,0 0,0 0,0 0,0 0,0 1,0 2,1 3,1 0,0 0,0 0,0 0,0 0,1 0,1zm10 0c0,0 0,0 0,0 -1,0 0,0 0,0 1,0 1,-1 2,-1 0,0 1,0 1,0 0,0 0,0 0,0 -1,1 -2,1 -3,1 0,0 0,0 0,0zm-4 1c-1,0 -2,0 -3,0 0,0 0,-1 0,-1 0,0 0,0 0,0 1,0 2,0 3,0l0 0c0,0 0,0 0,1 0,0 0,0 0,0l0 0z"/>
   <path class="fil2" d="M26 73c0,0 0,0 0,0 -1,-1 -2,-1 -2,-1 -1,0 -1,0 -1,0 0,0 0,0 1,0 1,0 1,0 2,0 1,0 1,0 1,0 0,1 -1,1 -1,1zm-9 0c0,0 0,0 0,-1 0,0 0,0 0,0 1,0 2,0 3,0 0,0 0,0 0,0 0,0 0,0 0,0 -1,0 -2,1 -3,1 0,0 0,0 0,0zm15 2c0,0 0,0 0,0 -1,-1 -1,-1 -2,-1 0,0 -1,0 0,-1 0,0 0,0 0,0 1,0 2,1 2,1 1,0 1,1 1,1 -1,0 -1,0 -1,0zm-21 0c0,0 0,0 0,0 0,0 0,-1 0,-1 1,0 2,0 3,-1 0,0 0,0 0,0 0,1 0,1 0,1 -1,0 -2,0 -3,1 0,0 0,0 0,0zm26 4c0,0 0,0 0,0 -1,-1 -1,-1 -2,-2 0,0 0,0 0,0 0,-1 0,-1 1,-1 0,1 1,2 2,2 0,0 0,1 0,1 -1,0 -1,0 -1,0zm-31 0c0,0 0,0 0,0 0,0 0,-1 0,-1 1,0 1,-1 2,-2 0,0 0,0 0,1 1,0 1,0 0,0 0,1 -1,1 -2,2 0,0 0,0 0,0zm35 5c0,0 0,0 0,0 -1,-1 -1,-2 -2,-2 0,-1 0,-1 0,-1 1,0 1,0 1,0 0,1 1,2 1,3 0,0 0,0 0,0 0,0 0,0 0,0zm-38 0c0,0 -1,0 -1,0 0,0 0,0 0,0 1,-1 1,-2 2,-3 0,0 0,0 0,0 0,0 0,1 0,1 0,0 -1,1 -1,2 0,0 0,0 0,0zm40 6c0,0 0,0 0,0 -1,-1 -1,-2 -1,-3 0,0 0,0 0,0 0,0 1,0 1,0 0,1 0,2 0,3 0,0 0,0 0,0 0,0 0,0 0,0zm-42 0c0,0 0,0 0,0 -1,0 -1,0 -1,0 0,-1 1,-2 1,-3 0,0 0,0 0,0 0,0 1,0 1,0 -1,1 -1,2 -1,3 0,0 0,0 0,0zm42 7c0,0 0,0 0,0 0,0 0,-1 0,-1 0,-1 0,-2 0,-2 0,-1 0,-1 0,-1l0 0c0,0 1,0 1,1 0,0 -1,1 -1,2 0,0 0,1 0,1zm-42 0c-1,0 -1,0 -1,-1 0,-1 0,-1 0,-2 0,-1 0,-1 0,-1 1,0 1,0 1,1 0,0 0,1 0,2 0,0 0,1 0,1 0,0 0,0 0,0zm40 6c0,0 0,0 0,0 0,0 0,-1 0,-1 0,-1 1,-1 1,-2l0 0c0,0 0,0 0,0 0,0 1,0 1,0l0 0c-1,1 -1,2 -1,3 -1,0 -1,0 -1,0zm-39 0c0,0 0,0 0,0 0,-1 -1,-2 -1,-3 0,0 0,0 0,0 0,0 1,0 1,0 0,1 0,1 1,2 0,0 0,1 -1,1 0,0 0,0 0,0zm36 5c0,0 0,0 -1,0 0,0 0,0 0,0 1,-1 2,-2 2,-3 0,0 0,0 1,0 0,0 0,1 0,1 -1,1 -1,1 -2,2 0,0 0,0 0,0zm-32 0c0,0 0,0 0,0 -1,-1 -2,-1 -2,-2 0,0 0,-1 0,-1 0,0 0,0 0,0 1,1 2,2 2,3 0,0 0,0 0,0 0,0 0,0 0,0zm27 4c0,0 0,0 -1,0 0,0 0,0 1,-1 0,0 1,0 2,-1 0,0 0,0 0,0 0,0 0,0 0,1 -1,0 -1,1 -2,1 0,0 0,0 0,0zm-22 0c0,0 0,0 0,0 -1,0 -2,-1 -3,-1 0,-1 0,-1 0,-1 0,0 1,0 1,0 1,1 1,1 2,2 0,0 0,0 0,0 0,0 0,0 0,0zm16 3c0,0 0,-1 0,-1 -1,0 0,0 0,0 1,0 1,-1 2,-1 0,0 1,0 1,0 0,0 0,1 -1,1 0,0 -1,0 -2,1 0,0 0,0 0,0zm-10 0c0,0 0,0 0,0 -1,-1 -1,-1 -2,-1 0,0 -1,0 -1,0 0,0 0,-1 0,-1 0,0 0,0 0,0 1,0 1,0 1,0 1,1 1,1 2,1 0,0 0,0 0,0 0,0 0,1 0,1zm5 0c-1,0 -1,0 -2,0 0,0 0,0 0,0 0,0 0,-1 0,-1 1,0 1,0 2,0 0,0 1,0 1,0 0,0 0,1 0,1 0,0 0,0 0,0 0,0 -1,0 -1,0z"/>
   <path class="fil3" d="M151 88l-2 15 -1 2c0,3 -4,32 -7,32l-38 -27 -43 30c-2,0 -5,-32 -5,-34l0 -3 -1 -15 7 -6 39 -34c2,-1 4,-1 6,0l39 34 6 6z"/>
   <polygon class="fil4" points="133,88 133,133 73,133 73,75 120,75 "/>
   <polygon class="fil5" points="133,88 133,89 118,89 118,75 120,75 "/>
   <polygon class="fil4" points="133,88 120,88 120,75 "/>
   <path class="fil6" d="M104 119l22 -23c6,-6 14,-9 23,-9 2,0 3,1 3,3l0 60c0,2 -2,4 -4,4l-13 0 -31 -32c-1,-1 -1,-2 0,-3z"/>
   <path class="fil6" d="M102 119l-22 -23c-6,-6 -14,-9 -23,-9l0 0c-2,0 -3,1 -3,3l0 60c0,2 2,4 4,4l13 0 31 -32c1,-1 1,-2 0,-3z"/>
   <path class="fil5" d="M152 138l0 13c0,2 -2,3 -4,3l-90 0c-2,0 -4,-1 -4,-3l0 -13 46 -30c1,0 2,-1 3,-1 1,0 2,0 3,1l46 30z"/>
   <polygon class="fil7" points="54,132 94,111 95,111 54,138 "/>
   <polygon class="fil7" points="152,132 112,111 111,111 152,138 "/>
   <path class="fil8" d="M103 94c-5,0 -9,4 -9,8l17 0c0,-4 -3,-8 -8,-8z"/>
   <path class="fil8" d="M107 89c0,2 -2,4 -4,4 -3,0 -5,-2 -5,-4 0,-3 2,-5 5,-5 2,0 4,2 4,5z"/>
  </g>
 </g>
</svg>
