<?xml version="1.0" encoding="UTF-8"?>
<!DOCTYPE svg PUBLIC "-//W3C//DTD SVG 1.1//EN" "http://www.w3.org/Graphics/SVG/1.1/DTD/svg11.dtd">
<!-- Creator: CorelDRAW X8 -->
<svg xmlns="http://www.w3.org/2000/svg" xml:space="preserve" width="4.2333mm" height="4.2333mm" version="1.1" style="shape-rendering:geometricPrecision; text-rendering:geometricPrecision; image-rendering:optimizeQuality; fill-rule:evenodd; clip-rule:evenodd"
viewBox="0 0 13 13"
 xmlns:xlink="http://www.w3.org/1999/xlink">
 <defs>
  <style type="text/css">
   <![CDATA[
    .fil1 {fill:none}
    .fil0 {fill:black}
   ]]>
  </style>
 </defs>
 <g id="Layer_x0020_1">
  <metadata id="CorelCorpID_0Corel-Layer"/>
  <g id="_1603968722736">
   <path class="fil0" d="M10 10c0,0 -1,-2 -2,-2 0,1 1,2 2,2zm-4 -4c1,0 1,0 1,0 0,1 0,1 -1,1 0,0 0,0 0,-1 0,0 0,0 0,0zm0 5l0 -1 1 1c1,0 1,1 0,1l-1 1 0 -1c-1,0 -1,-1 0,-1zm0 -10l0 -1 1 1c1,0 1,1 0,1l-1 1 0 -1c-1,0 -1,-1 0,-1zm5 6l-1 -1 1 0c0,-1 1,-1 1,0l1 0 -1 1c0,1 -1,1 -1,0zm-10 0l-1 -1 1 0c0,-1 1,-1 1,0l1 0 -1 1c0,1 -1,1 -1,0zm2 -4c0,1 1,2 2,2 0,0 -2,-2 -2,-2zm7 0c0,1 -1,2 -2,2 0,0 1,-2 2,-2zm-7 7c0,0 1,-2 2,-2 0,1 -2,2 -2,2z"/>
   <rect class="fil1" width="12.9919" height="12.9919"/>
  </g>
 </g>
</svg>
