<?xml version="1.0" standalone="no"?>
<!DOCTYPE svg PUBLIC "-//W3C//DTD SVG 1.1//EN" "http://www.w3.org/Graphics/SVG/1.1/DTD/svg11.dtd" >
<svg xmlns="http://www.w3.org/2000/svg" xmlns:xlink="http://www.w3.org/1999/xlink" version="1.1">
<metadata></metadata>
<defs>
<font id="timesbold_italic" horiz-adv-x="1024" >
<font-face units-per-em="2048" ascent="1638" descent="-410" />
<missing-glyph horiz-adv-x="512" />
<glyph horiz-adv-x="0" />
<glyph unicode="&#xd;" horiz-adv-x="512" />
<glyph unicode=" "  horiz-adv-x="512" />
<glyph unicode="&#x09;" horiz-adv-x="512" />
<glyph unicode="&#xa0;" horiz-adv-x="512" />
<glyph unicode="!" horiz-adv-x="797" d="M95 122q0 61 43 105q44 45 106 45q63 0 108 -45q46 -44 46 -105q0 -57 -40 -101q-40 -43 -117 -43q-60 0 -103 42t-43 102zM299 438q100 512 113 772q7 202 168 202q52 0 93 -37q42 -37 42 -110q0 -66 -34 -129q-188 -361 -320 -712z" />
<glyph unicode="&#x22;" horiz-adv-x="1137" d="M276 820q8 112 23 279q16 167 29 207q12 36 47 71q36 35 94 35q45 0 70 -31q26 -30 26 -71q0 -27 -46 -131l-158 -359h-85zM809 820q8 112 23 279q16 167 29 207q12 36 47 71q36 35 94 35q45 0 70 -31q26 -30 26 -71q0 -27 -46 -131l-158 -359h-85z" />
<glyph unicode="#" d="M-70 432l41 149h216l106 272h-186l41 149h205l178 439h160l-176 -439h222l178 439h160l-176 -439h180l-41 -149h-202l-103 -272h174l-41 -149h-194l-173 -432h-160l171 432h-222l-173 -432h-160l171 432h-196zM349 581h222l106 272h-225z" />
<glyph unicode="$" d="M-41 176l86 288l45 -12q0 -171 50 -250q50 -78 149 -116l148 543q-139 95 -206 178q-67 84 -67 193q0 157 115 266q115 110 297 110q32 0 72 -6l37 134h102l-41 -147q75 -12 154 -48q79 -35 132 -78l-86 -271l-45 10v39q0 232 -173 277l-126 -442q200 -174 247 -256 q48 -81 48 -179q0 -167 -136 -288t-327 -121h-61l-61 -224h-107l60 223v15q-101 22 -176 64q-74 42 -130 98zM369 1114q0 -112 144 -216l114 406q-13 6 -39 6q-94 0 -157 -51q-62 -50 -62 -145zM390 67q18 -1 29 -1q100 0 176 66q77 67 77 199q0 128 -147 233z" />
<glyph unicode="%" horiz-adv-x="1706" d="M82 889q0 202 149 355q150 154 302 154q90 0 170 -58q80 -57 210 -57q179 0 335 143h82l-813 -1440h-115l719 1271q-149 -52 -246 -52q-28 0 -95 10q4 -15 4 -37q0 -208 -124 -389q-123 -181 -317 -181q-99 0 -180 80t-81 201zM320 799q0 -97 104 -97q90 0 188 148 q98 149 98 316q0 65 -17 72t-42 19q-13 6 -32 22q-18 17 -31 17q-82 0 -175 -188q-93 -187 -93 -309zM935 253q0 185 141 350t314 165q133 0 190 -73q57 -72 57 -174q0 -183 -121 -363q-120 -180 -312 -180q-121 0 -195 81t-74 194zM1173 190q0 -118 110 -118q85 0 182 148 q98 148 98 298q0 55 -26 101q-25 47 -78 47q-98 0 -192 -190t-94 -286z" />
<glyph unicode="&#x26;" horiz-adv-x="1593" d="M9 321q0 138 96 239q97 101 241 166l148 69q-21 123 -21 190q0 181 103 304q104 123 279 123q113 0 198 -61q85 -60 85 -166q0 -215 -375 -361q42 -242 183 -475q152 191 152 264q0 63 -112 82v51h432v-51q-78 -13 -123 -48q-44 -34 -95 -100q-110 -139 -203 -267 q113 -154 225 -154q78 0 160 78l52 -43q-93 -111 -173 -154t-179 -43q-162 0 -290 126q-172 -126 -399 -126q-153 0 -269 87q-115 88 -115 270zM282 394q0 -97 64 -191q65 -94 191 -94q82 0 198 56q-160 251 -223 546q-141 -69 -186 -143q-44 -74 -44 -174zM722 1098 q0 -63 24 -201q227 120 227 299q0 148 -106 148q-145 0 -145 -246z" />
<glyph unicode="'" horiz-adv-x="569" d="M260 820q8 112 23 279q16 167 29 207q12 36 47 71q36 35 94 35q45 0 70 -31q26 -30 26 -71q0 -27 -46 -131l-158 -359h-85z" />
<glyph unicode="(" horiz-adv-x="682" d="M60 416q0 316 151 554q151 237 453 443l38 -43q-255 -234 -351 -512q-97 -278 -97 -665q0 -270 140 -525l-47 -28q-287 392 -287 776z" />
<glyph unicode=")" horiz-adv-x="682" d="M-90 -317q255 234 351 512q97 278 97 665q0 270 -140 525l47 28q287 -392 287 -776q0 -316 -151 -554q-151 -237 -453 -443z" />
<glyph unicode="*" d="M133 787q0 26 12 50q13 25 46 46q26 16 89 20q32 2 96 9q65 8 109 41v19q-63 34 -246 65q-106 13 -106 96q0 47 23 75q24 28 76 28q68 0 118 -75q69 -103 93 -123t62 -36l13 10v8q0 89 -42 164q-43 81 -43 123q0 44 27 74q27 31 80 31q49 0 75 -27q26 -26 26 -86 q0 -40 -44 -118q-41 -72 -41 -153v-16l17 -12q74 48 149 157q52 79 113 79q49 0 77 -32q29 -32 29 -69q0 -75 -80 -103q-20 -7 -116 -13q-80 -4 -156 -50v-20q29 -14 69 -28q41 -13 81 -17q30 -2 109 -7q93 -8 93 -108q0 -42 -26 -71q-25 -29 -81 -29q-27 0 -50 13t-46 44 l-66 89q-42 59 -101 86l-15 -8q4 -96 44 -181q41 -82 41 -113q0 -44 -33 -75t-78 -31q-38 0 -68 31q-29 32 -29 80q0 40 42 115q43 73 43 174l-17 8q-83 -53 -154 -155q-32 -45 -55 -61t-53 -16q-44 0 -75 27t-31 71z" />
<glyph unicode="+" horiz-adv-x="1167" d="M64 430v180h432v432h180v-432h432v-180h-432v-432h-180v432h-432z" />
<glyph unicode="," horiz-adv-x="512" d="M-132 -338q121 64 181 122q61 58 61 119q0 29 -32 55q-31 27 -70 63q-40 37 -40 96q0 67 38 110q39 44 107 44q70 0 121 -52t51 -143q0 -136 -103 -257q-103 -120 -286 -204z" />
<glyph unicode="-" horiz-adv-x="682" d="M5 337l47 237h497l-47 -237h-497z" />
<glyph unicode="." horiz-adv-x="512" d="M-16 130q0 65 45 107t109 42q61 0 105 -41t44 -108q0 -64 -40 -109t-114 -45q-68 0 -109 45q-40 45 -40 109z" />
<glyph unicode="/" horiz-adv-x="569" d="M-133 -36l652 1448h180l-652 -1448h-180z" />
<glyph unicode="0" d="M37 430q0 335 185 655q186 320 445 320q143 0 231 -127t88 -336q0 -373 -186 -669q-185 -295 -426 -295q-151 0 -244 121q-93 122 -93 331zM250 183q0 -142 106 -142q148 0 282 504q135 505 135 645q0 152 -104 152q-136 0 -278 -512q-141 -512 -141 -647z" />
<glyph unicode="1" d="M12 0v51q122 0 177 44q46 35 79 151l247 878q13 40 13 63q0 71 -94 71q-63 0 -131 -10l4 51q295 44 553 106l-310 -1131q-30 -109 -30 -133q0 -56 50 -73q51 -17 151 -17v-51h-709z" />
<glyph unicode="2" d="M-57 0v49l238 237q463 459 463 697q0 86 -24 138t-63 74q-43 26 -101 26q-162 0 -280 -184l-45 25q160 343 446 343q150 0 246 -103q96 -102 96 -246q0 -127 -83 -250q-82 -123 -169 -197l-449 -382h326q129 0 173 38t92 119h53l-164 -384h-755z" />
<glyph unicode="3" d="M-33 131v7q0 47 29 79q30 33 79 33h11q77 0 139 -96q61 -94 131 -94q93 0 160 101t67 233q0 148 -80 235q-79 88 -232 88l8 45q390 79 390 315q0 84 -49 133q-49 50 -130 50q-82 0 -138 -40q-55 -39 -111 -119l-45 27q172 277 425 277q126 0 216 -81q90 -80 90 -196 q0 -195 -246 -309q160 -112 160 -306q0 -224 -176 -380q-176 -155 -428 -155q-143 0 -207 47q-63 48 -63 106z" />
<glyph unicode="4" d="M-29 309l55 214l886 882h131l-248 -895h143l-56 -201h-143l-86 -309h-262l86 309h-506zM113 510h419l160 578z" />
<glyph unicode="5" d="M-20 128v6q0 50 28 83t83 33h10q77 0 136 -95q61 -95 117 -95q105 0 189 98t84 231q0 169 -131 273q-131 105 -344 105l270 609h578l-74 -223h-520l-70 -159q508 -75 508 -478q0 -240 -179 -389q-178 -149 -429 -149q-130 0 -193 48t-63 102z" />
<glyph unicode="6" d="M49 422q0 331 270 621t718 355l12 -49q-402 -144 -578 -503q48 16 73 21q26 6 62 6q133 0 220 -90q88 -89 88 -270q0 -224 -150 -380q-149 -155 -350 -155q-365 0 -365 444zM274 196q0 -155 121 -155q114 0 185 247q72 247 72 362q0 141 -131 141q-58 0 -82 -21t-53 -96 q-112 -306 -112 -478z" />
<glyph unicode="7" d="M107 0l681 1145h-313q-144 0 -206 -44q-61 -44 -97 -109h-53l180 384h780l-784 -1376h-188z" />
<glyph unicode="8" d="M8 314q0 135 91 229q92 94 285 165q-103 106 -131 178q-28 73 -28 146q0 161 111 267q112 106 283 106q145 0 255 -77q110 -76 110 -213q0 -119 -76 -194t-227 -140q184 -177 184 -376q0 -192 -130 -310q-129 -117 -315 -117q-198 0 -305 97t-107 239zM209 294 q0 -120 55 -187q56 -66 154 -66q96 0 154 77q59 78 59 183q0 92 -43 160q-43 69 -155 203q-224 -149 -224 -370zM454 1136q0 -133 186 -305q89 93 120 155t31 136q0 105 -48 162q-48 58 -118 58q-81 0 -126 -59q-45 -58 -45 -147z" />
<glyph unicode="9" d="M-24 27q399 146 574 512q-84 -29 -135 -29q-113 0 -209 85q-95 85 -95 258q0 226 144 389q145 163 356 163q182 0 273 -119q92 -118 92 -327q0 -334 -273 -627q-272 -293 -715 -354zM373 735q0 -137 134 -137q77 0 106 52q30 53 77 202q61 195 61 333q0 157 -97 157 q-137 0 -209 -246q-72 -245 -72 -361z" />
<glyph unicode=":" horiz-adv-x="682" d="M50 130q0 65 45 107t109 42q61 0 105 -41t44 -108q0 -64 -40 -109t-114 -45q-68 0 -109 45q-40 45 -40 109zM240 794q0 65 45 107t109 42q61 0 105 -41t44 -108q0 -64 -40 -109t-114 -45q-68 0 -109 45q-40 45 -40 109z" />
<glyph unicode=";" horiz-adv-x="682" d="M-60 -338q121 64 181 122q61 58 61 119q0 29 -32 55q-31 27 -70 63q-40 37 -40 96q0 67 38 110q39 44 107 44q70 0 121 -52t51 -143q0 -136 -103 -257q-103 -120 -286 -204zM240 794q0 65 45 107t109 42q61 0 105 -41t44 -108q0 -64 -40 -109t-114 -45q-68 0 -109 45 q-40 45 -40 109z" />
<glyph unicode="&#x3c;" horiz-adv-x="1167" d="M62 440l1040 -464v180l-804 361l804 362v180l-1040 -464v-155z" />
<glyph unicode="=" horiz-adv-x="1167" d="M64 223v180h1040v-180h-1040zM64 643v180h1040v-180h-1040z" />
<glyph unicode="&#x3e;" horiz-adv-x="1167" d="M65 -24v180l804 361l-804 362v180l1040 -464v-155z" />
<glyph unicode="?" d="M161 108q0 61 43 105q44 45 106 45q63 0 108 -45q46 -44 46 -105q0 -57 -40 -101q-40 -43 -117 -43q-60 0 -103 42t-43 102zM245 1138q0 108 95 187q96 80 257 80q178 0 273 -83t95 -214q0 -127 -84 -214q-83 -86 -255 -193q-122 -81 -155 -137q-33 -55 -68 -146l-62 14 q8 156 137 319q175 215 201 283q26 69 26 142q0 167 -146 167q-45 0 -85 -22q-40 -21 -40 -53q0 -15 31 -58t31 -86q0 -50 -37 -85q-36 -34 -88 -34q-53 0 -90 38q-36 39 -36 95z" />
<glyph unicode="@" horiz-adv-x="1704" d="M128 656q0 327 215 541q216 215 527 215q315 0 511 -177q197 -176 197 -433q0 -176 -106 -337q-105 -161 -279 -161q-90 0 -139 48q-49 49 -49 96q-123 -144 -252 -144q-85 0 -142 61q-57 62 -57 190q0 173 120 339q120 167 301 167q41 0 78 -20q37 -19 71 -92l23 84h146 l-134 -496q-10 -39 -10 -65q0 -92 77 -92q105 0 182 124q77 125 77 297q0 203 -174 367q-174 165 -416 165q-259 0 -420 -193q-161 -192 -161 -506q0 -236 176 -403q177 -167 431 -167q196 0 408 96l25 -71q-254 -121 -436 -121q-349 0 -570 209q-220 210 -220 479zM709 574 q0 -174 125 -174q110 0 180 160q71 161 71 275q0 130 -91 130q-98 0 -192 -119q-93 -118 -93 -272z" />
<glyph unicode="A" horiz-adv-x="1366" d="M-136 0v51q52 10 88 43q37 34 82 104l758 1207h52l194 -1169q18 -110 42 -143q25 -32 132 -42v-51h-621v51q70 0 115 24t45 95q0 37 -4 66l-27 194h-436l-119 -210q-33 -57 -33 -95q0 -74 132 -74v-51h-400zM0 1412zM331 512h375l-74 498zM738 0zM812 1492z" />
<glyph unicode="B" horiz-adv-x="1366" d="M-47 0v51q87 12 116 49q30 38 49 105l249 920q23 80 23 113q0 87 -150 87v51h561q480 0 480 -294q0 -129 -86 -213q-85 -83 -298 -136q163 -57 219 -129q57 -72 57 -177q0 -211 -165 -319q-164 -108 -435 -108h-620zM409 128q0 -62 118 -62q142 0 236 112q95 112 95 289 q0 117 -66 173t-237 56l-134 -497q-12 -45 -12 -71zM569 762q226 0 318 92q93 92 93 255q0 201 -179 201q-50 0 -71 -19q-20 -18 -34 -73z" />
<glyph unicode="C" horiz-adv-x="1366" d="M66 501q0 359 244 635t589 276q125 0 222 -32q98 -32 127 -32q26 0 42 14q17 14 38 50h61l-103 -480l-66 12v83q0 153 -71 233t-198 80q-225 0 -398 -300q-172 -299 -172 -601q0 -180 82 -274q83 -93 221 -93q241 0 436 244l61 -45q-203 -307 -558 -307q-240 0 -399 144 q-158 145 -158 393zM541 0zM1001 1492z" />
<glyph unicode="D" horiz-adv-x="1479" d="M-94 0v51q85 12 115 48q31 36 50 106l236 874q36 130 36 163q0 40 -22 55q-22 16 -128 28v51h599q294 0 456 -144t162 -426q0 -337 -254 -572q-254 -234 -668 -234h-582zM0 1412zM362 144q0 -43 27 -61q28 -17 98 -17q279 0 450 246q172 247 172 619q0 379 -334 379 q-72 0 -94 -25t-32 -62l-248 -924q-10 -42 -25 -88q-14 -46 -14 -67zM846 1492z" />
<glyph unicode="E" horiz-adv-x="1366" d="M-56 0v51q96 10 122 53q26 44 43 101l247 919q20 77 20 118q0 52 -40 66q-40 15 -105 17v51h1097l-89 -384l-52 10q0 197 -96 252q-96 56 -290 56q-64 0 -87 -22q-22 -21 -34 -66l-120 -460l86 1q162 5 205 44t81 109l36 70l56 -8l-151 -570l-56 10q5 50 5 90 q0 136 -60 162q-59 26 -180 26h-36l-126 -439q-28 -101 -28 -120q0 -71 134 -71q426 0 614 334l52 -10l-128 -390h-1120zM0 1412zM814 1492zM838 0z" />
<glyph unicode="F" horiz-adv-x="1366" d="M-28 0v51q93 15 119 53q27 39 46 107l251 910q21 72 21 117q0 37 -16 53q-16 17 -87 27l-47 7v51h1089l-89 -384l-52 10q0 193 -93 250q-93 58 -278 58q-66 0 -87 -22q-20 -21 -34 -74l-127 -452q207 0 273 50q66 51 127 174l56 -8l-151 -570l-56 10q5 50 5 88 q0 118 -64 154q-63 36 -204 36l-113 -419q-28 -105 -28 -130q0 -96 147 -96v-51h-608z" />
<glyph unicode="G" horiz-adv-x="1479" d="M42 524q0 343 250 615q251 273 611 273q126 0 221 -31q96 -30 123 -30q28 0 46 12q19 12 38 49h66l-103 -448l-62 8q0 370 -291 370q-233 0 -409 -284q-175 -283 -175 -639q0 -190 91 -287q92 -96 240 -96q167 0 215 78l74 258q36 122 36 176q0 47 -40 64q-40 18 -120 18 v51h592v-51q-84 0 -111 -41q-27 -40 -49 -123l-96 -374l-58 -28q-204 -100 -466 -100q-278 0 -451 145q-172 145 -172 415zM765 0zM1039 1492z" />
<glyph unicode="H" horiz-adv-x="1593" d="M-47 0v51q96 16 121 53t44 107l247 906q25 88 25 121q0 49 -37 63q-36 15 -113 24v51h656v-51q-110 0 -152 -41t-62 -119l-111 -401h484l95 356q21 78 21 117q0 50 -39 66q-38 17 -108 22v51h608v-51q-85 -13 -115 -43q-30 -29 -54 -117l-229 -830q-44 -161 -44 -201 q0 -83 150 -83v-51h-656v51q89 0 141 33q52 34 78 127l127 463h-481l-107 -377q-33 -119 -33 -156q0 -56 40 -73q41 -17 112 -17v-51h-608z" />
<glyph unicode="I" horiz-adv-x="797" d="M-66 0v51q54 6 95 31q42 26 65 113l252 914q25 91 25 141q0 29 -20 45q-20 17 -130 30v51h608v-51q-71 -7 -109 -39q-37 -31 -57 -105l-252 -941q-16 -61 -16 -101q0 -84 147 -88v-51h-608zM0 1409zM256 0zM546 1489z" />
<glyph unicode="J" d="M-94 5q0 56 34 101q35 45 93 45q64 0 98 -38t34 -91q0 -42 -24 -66q-23 -24 -23 -48q0 -19 14 -27t47 -8q43 0 76 51q34 51 84 238l250 967q21 80 21 110q0 61 -50 69q-49 8 -94 17v51h608v-51q-84 -8 -120 -44q-35 -36 -56 -111l-256 -959q-63 -235 -168 -324 q-105 -88 -263 -88q-121 0 -213 57q-92 58 -92 149z" />
<glyph unicode="K" horiz-adv-x="1366" d="M-42 0v51q87 10 116 49q30 40 49 111l249 910q23 84 23 117q0 41 -26 58q-26 18 -124 29v51h635v-51q-90 0 -133 -43q-42 -43 -60 -117l-122 -445h11q368 325 461 412q94 88 94 136q0 29 -31 43t-87 14v51h433v-51q-88 0 -130 -42l-510 -466l321 -688q31 -67 136 -78v-51 h-574v51q91 10 111 20q21 10 21 46q0 21 -33 93l-222 456l-17 6l-127 -478q-8 -29 -8 -58q0 -77 137 -85v-51h-593zM626 0z" />
<glyph unicode="L" horiz-adv-x="1251" d="M-47 0v51q87 12 116 49q30 38 49 105l247 907q25 89 25 130q0 48 -47 65q-46 18 -103 18v51h656v-51q-112 0 -157 -42q-45 -41 -66 -115l-249 -949q-15 -61 -15 -89q0 -60 130 -60q434 0 625 330l52 -10l-122 -390h-1141zM0 1412zM522 0zM612 1492z" />
<glyph unicode="M" horiz-adv-x="1821" d="M-61 0v51q85 18 117 70q33 52 76 202l234 801q25 88 25 132q0 39 -33 54q-32 15 -113 15v51h451l108 -983l630 983h433v-51q-96 -15 -125 -56q-28 -41 -44 -104l-246 -904q-22 -84 -22 -119q0 -54 37 -73q37 -18 108 -18v-51h-640v51q109 10 148 46t64 130l245 903 l-757 -1152h-56l-135 1136l-214 -770q-32 -121 -32 -168q0 -72 44 -95q44 -22 120 -30v-51h-423z" />
<glyph unicode="N" horiz-adv-x="1479" d="M-56 0v51q87 18 120 78q34 61 73 194l259 888q-33 70 -69 92t-101 22v51h400l444 -960l177 637q25 89 25 151q0 108 -165 121v51h428v-51q-103 -17 -136 -95q-33 -77 -61 -177l-306 -1089h-56l-529 1131l-208 -746q-32 -119 -32 -172q0 -65 44 -96q44 -30 121 -30v-51 h-428zM0 1412zM578 0zM882 1492z" />
<glyph unicode="O" horiz-adv-x="1479" d="M56 433q0 367 261 673t619 306q209 0 351 -135q142 -134 142 -363q0 -327 -268 -639q-268 -311 -606 -311q-229 0 -364 135q-135 136 -135 334zM357 305q0 -271 208 -271q230 0 396 384q167 385 167 669q0 118 -58 186q-57 69 -153 69q-243 0 -402 -397 q-158 -397 -158 -640zM914 1492z" />
<glyph unicode="P" horiz-adv-x="1251" d="M-56 0v51q83 14 112 43q30 29 53 111l249 911q23 85 23 126q0 52 -39 63t-111 20v51h588q429 0 429 -325q0 -171 -145 -285q-145 -113 -389 -113q-92 0 -185 10l-107 -401q-22 -84 -22 -120q0 -54 37 -73q38 -18 109 -18v-51h-602zM550 729q56 -4 84 -4q169 0 241 114 t72 279q0 192 -167 192q-57 0 -74 -27q-17 -26 -28 -71z" />
<glyph unicode="Q" horiz-adv-x="1479" d="M56 -339l320 262q30 26 39 32q9 7 9 11q0 5 -12 9q-11 5 -22 9q-156 49 -245 168t-89 283q0 366 264 671q265 306 605 306q220 0 362 -136q142 -135 142 -362q0 -323 -259 -637q-259 -313 -601 -313q-23 0 -46 2q-94 -86 -94 -98t81 -15t188 -29q58 -13 141 -37 q83 -23 146 -23q93 0 164 35t158 133l42 -39q-222 -313 -529 -313q-125 0 -271 45q-145 46 -229 46q-94 0 -236 -59zM357 317q0 -281 211 -281q238 0 399 396t161 655q0 255 -217 255q-219 0 -387 -383q-167 -382 -167 -642z" />
<glyph unicode="R" horiz-adv-x="1366" d="M-61 0v51q77 8 110 44q34 37 55 116l251 914q21 76 21 117q0 54 -45 65q-44 11 -105 18v51h581q460 0 460 -296q0 -123 -103 -234t-292 -140l178 -525q30 -89 74 -107q45 -17 101 -23v-51h-416l-219 681h-49l-115 -406q-26 -95 -26 -135q0 -44 26 -65q26 -20 120 -24v-51 h-607zM0 1412zM560 747h28q216 0 297 110q81 111 81 259q0 194 -190 194q-72 0 -94 -96zM562 0zM785 1492z" />
<glyph unicode="S" horiz-adv-x="1139" d="M-1 -36l75 464l57 -4q0 -155 79 -272q80 -116 240 -116q121 0 190 77q70 77 70 186q0 107 -134 225q-240 212 -305 291q-64 80 -64 188q0 177 114 293q115 116 303 116q73 0 167 -32t127 -32q67 0 92 56h61l-80 -408l-56 8q-37 336 -266 336q-106 0 -160 -65 q-53 -64 -53 -161q0 -61 36 -110t199 -179q268 -211 268 -421q0 -207 -119 -324q-119 -116 -359 -116q-91 0 -204 32q-112 32 -133 32q-27 0 -47 -14q-19 -14 -37 -50h-61zM405 0zM648 1492z" />
<glyph unicode="T" horiz-adv-x="1251" d="M0 1412zM103 0v51q117 0 156 37q39 38 65 125l296 1093q-300 0 -449 -301l-52 14l80 357h1120l-75 -400l-52 4q0 164 -68 245q-67 81 -205 81l-278 -1017q-16 -55 -23 -94t-7 -61q0 -53 41 -68q42 -15 123 -15v-51h-672zM403 0zM807 1492z" />
<glyph unicode="U" horiz-adv-x="1479" d="M0 1412zM136 308q0 92 37 231l161 616q6 22 10 45q4 24 4 43q0 42 -22 55q-22 14 -124 27v51h640v-51q-103 0 -141 -38t-57 -104l-202 -743q-24 -91 -24 -150q0 -211 258 -211q135 0 237 90q102 91 187 389l130 465q35 125 35 185q0 104 -169 117v51h432v-51 q-79 -16 -114 -59q-35 -42 -90 -232l-153 -531q-84 -291 -214 -415t-364 -124q-195 0 -326 96t-131 248zM674 0zM924 1492z" />
<glyph unicode="V" horiz-adv-x="1366" d="M132 1325v51h611v-51q-88 0 -122 -24q-33 -24 -33 -66q0 -13 10 -96l91 -761l406 639q108 172 108 238q0 39 -35 54q-35 16 -101 16v51h395v-51q-84 -25 -131 -98l-797 -1263h-66l-143 976q-41 272 -65 328q-23 57 -112 57h-16z" />
<glyph unicode="W" horiz-adv-x="1821" d="M132 1325v51h569v-51q-127 -7 -127 -108q0 -13 8 -84l79 -667l307 640q0 146 -35 175q-34 29 -113 44v51h550v-51q-87 -7 -107 -35t-20 -77q0 -30 14 -157l70 -590l310 667q33 69 33 115q0 77 -127 77v51h381v-51q-98 0 -173 -153l-579 -1208h-61l-122 1009l-476 -1009 h-61l-163 1197q-8 66 -24 105q-15 39 -84 51z" />
<glyph unicode="X" horiz-adv-x="1366" d="M-71 0v51q83 24 162 101q79 78 212 224l240 258l-170 554q-23 74 -68 105q-44 32 -122 32v51h626v-51q-90 -9 -121 -23q-30 -14 -30 -58q0 -27 18 -88l86 -291l205 215q133 140 133 188q0 30 -27 43q-27 14 -86 14v51h414v-51q-99 -17 -193 -116l-417 -430l153 -494 q48 -162 101 -195q54 -33 135 -39v-51h-630v51q66 0 103 18q38 18 38 65q0 43 -22 113l-96 296l-272 -301q-66 -72 -66 -107q0 -72 131 -84v-51h-437z" />
<glyph unicode="Y" horiz-adv-x="1251" d="M0 1412zM151 0v51q107 9 145 36q38 28 65 126l119 432l-177 543q-15 47 -37 86q-21 40 -115 51v51h578v-51q-34 0 -90 -13q-56 -12 -56 -59q0 -41 21 -103l139 -424l263 376q34 49 46 75t12 68q0 35 -30 57q-29 23 -111 23v51h428v-51q-99 -19 -184 -143l-390 -548 l-105 -387q-18 -69 -18 -103q0 -58 41 -76q41 -17 114 -17v-51h-658zM817 1492z" />
<glyph unicode="Z" horiz-adv-x="1251" d="M-24 0v59l889 1247h-162q-178 0 -294 -74t-222 -224l-56 8l118 360h959v-59l-889 -1247h163q230 0 359 81t236 249l56 -10l-122 -390h-1035zM0 1412zM712 1492z" />
<glyph unicode="[" horiz-adv-x="682" d="M-73 -323l400 1708h416l-14 -71h-135q-69 0 -82 -25q-14 -25 -25 -73l-304 -1283l-32 -139q0 -46 73 -46h164l-14 -71h-447z" />
<glyph unicode="\" horiz-adv-x="569" d="M0 1412h175l401 -1444h-170z" />
<glyph unicode="]" horiz-adv-x="682" d="M-118 -323l14 71h135q69 0 82 25q14 25 25 73l304 1283l32 139q0 46 -73 46h-164l14 71h447l-400 -1708h-416z" />
<glyph unicode="^" horiz-adv-x="1167" d="M138 625l368 750h163l368 -750h-176l-274 560l-273 -560h-176z" />
<glyph unicode="_" d="M0 -153h1024v-103h-1024v103z" />
<glyph unicode="`" horiz-adv-x="682" d="M175 1336q0 30 27 59q28 29 67 29q59 0 118 -78l220 -290h-92l-251 166q-89 59 -89 114zM440 1056z" />
<glyph unicode="a" d="M-43 240q0 224 183 462q184 239 371 239q76 0 117 -49q42 -49 42 -95l39 118l226 14l-174 -579q-41 -137 -41 -201q0 -35 29 -35q38 0 143 142l43 -30q-164 -258 -306 -258q-57 0 -98 37q-41 38 -41 97q0 38 24 125q-106 -162 -180 -209q-73 -47 -155 -47q-104 0 -163 70 t-59 199zM215 235q0 -58 26 -88q27 -30 62 -30q103 0 211 227q109 228 109 403q0 107 -77 107q-108 0 -220 -236q-111 -236 -111 -383zM633 1053zM755 0z" />
<glyph unicode="b" d="M-27 91q0 36 124 463q188 644 188 689q0 35 -20 51q-19 16 -63 16h-46v55q241 25 426 59l-184 -675q68 96 135 144q68 48 157 48q95 0 161 -66t66 -188q0 -263 -200 -490q-200 -226 -456 -226q-89 0 -189 36q-99 36 -99 84zM227 103q0 -62 68 -62q132 0 248 202 q116 203 116 416q0 139 -95 139q-126 0 -232 -309q-105 -308 -105 -386z" />
<glyph unicode="c" horiz-adv-x="909" d="M20 282q0 231 179 445t394 214q103 0 166 -47t63 -127q0 -75 -38 -111q-37 -35 -94 -35q-39 0 -77 27q-37 28 -37 82q0 31 20 66q23 35 23 46q0 37 -45 37q-108 0 -202 -207q-94 -206 -94 -367q0 -203 147 -203q118 0 242 189l59 -37q-124 -182 -216 -233 q-91 -50 -189 -50q-137 0 -219 86q-82 87 -82 225zM311 0zM659 1053z" />
<glyph unicode="d" d="M-43 240q0 230 188 465q189 236 374 236q81 0 150 -64l80 300q14 53 14 74q0 59 -82 59h-47v55q256 20 429 59l-248 -877q-104 -374 -104 -398q0 -31 27 -31q21 0 60 41t78 104l47 -33q-157 -255 -297 -255q-63 0 -93 30q-30 31 -30 92q0 33 8 84t10 62 q-147 -272 -341 -272q-108 0 -166 79q-57 80 -57 190zM215 241q0 -124 88 -124q112 0 220 258t108 378q0 101 -73 101q-113 0 -228 -238q-115 -237 -115 -375z" />
<glyph unicode="e" horiz-adv-x="909" d="M12 278q0 230 178 446q178 217 411 217q91 0 152 -46q61 -45 61 -134q0 -115 -140 -235q-139 -120 -392 -155q-12 -56 -12 -97q0 -172 141 -172q106 0 232 189l59 -35q-81 -147 -176 -216q-94 -69 -201 -69q-130 0 -222 82q-91 82 -91 225zM297 438q137 32 235 128 q99 97 99 239q0 74 -60 74q-74 0 -154 -125q-79 -124 -120 -316zM446 0zM574 1053z" />
<glyph unicode="f" horiz-adv-x="682" d="M-347 -248q0 42 27 73t81 31q41 0 70 -29t29 -69q0 -32 -16 -57q-15 -24 -15 -28q0 -15 9 -21t26 -6q69 0 105 81q36 82 84 297q67 318 171 800h-139l20 88h140q128 517 475 517q103 0 150 -49q47 -48 47 -113q0 -49 -26 -80q-25 -30 -72 -30q-53 0 -79 30q-26 31 -26 74 q0 25 15 43q16 18 16 28q0 20 -9 27q-8 8 -24 8q-110 0 -186 -296l-41 -159h192l-20 -88h-188q-152 -714 -240 -923q-133 -317 -374 -317q-97 0 -150 44q-52 45 -52 124z" />
<glyph unicode="g" d="M-110 -212q0 82 54 133t218 91q-123 43 -123 131q0 56 37 96q38 41 155 104q-75 28 -118 84q-43 57 -43 143q0 143 126 257q127 114 331 114q136 0 223 -67h227v-114h-137q12 -44 12 -86q0 -160 -130 -263q-130 -102 -300 -102h-10q-27 0 -53 8q-26 9 -48 9 q-21 0 -41 -26t-20 -46q0 -44 96 -74q97 -29 118 -34q186 -51 247 -112q61 -60 61 -143q0 -136 -135 -222q-135 -85 -361 -85q-154 0 -270 52q-116 53 -116 152zM70 -186q0 -64 62 -112t157 -48q139 0 200 38t61 105q0 79 -95 117q-64 24 -138 48t-91 24q-29 0 -93 -55 q-63 -55 -63 -117zM308 496q0 -125 92 -125q88 0 151 131t63 246q0 131 -92 131q-93 0 -154 -138q-60 -138 -60 -245zM537 1053z" />
<glyph unicode="h" horiz-adv-x="1139" d="M-27 0l309 1138q23 83 23 108q0 36 -22 51q-21 16 -70 16q-25 0 -37 -3v55q215 19 425 59l-218 -851q121 188 223 278t204 90q155 0 155 -158q0 -47 -25 -127l-111 -348q-24 -77 -37 -113q-12 -36 -14 -45q0 -21 8 -29t25 -8q36 0 154 162l47 -30q-110 -172 -183 -223 q-72 -51 -155 -51q-138 0 -138 129q0 81 40 205l114 351q25 79 25 92q0 46 -43 46q-73 0 -204 -182q-131 -181 -249 -612h-246z" />
<glyph unicode="i" horiz-adv-x="569" d="M4 108q0 46 33 166l102 378q25 89 25 110q0 65 -107 65h-14v55q250 18 414 59l-182 -666q-25 -90 -25 -130q0 -14 9 -23t24 -9q48 0 154 162l47 -29q-116 -177 -190 -226q-73 -49 -146 -49q-144 0 -144 137zM255 1256q0 57 39 97q40 40 98 40q57 0 98 -41q42 -40 42 -98 q0 -52 -38 -95q-38 -42 -108 -42q-41 0 -86 36t-45 103zM263 0z" />
<glyph unicode="j" horiz-adv-x="569" d="M-386 -257q0 38 26 73t70 35q43 0 73 -30q30 -29 30 -73q0 -27 -16 -50q-15 -22 -15 -28q0 -24 45 -24q35 0 70 41t78 199l200 769q19 72 19 110q0 44 -31 53t-101 9v55q271 20 432 59l-238 -912q-118 -445 -419 -445q-97 0 -160 41t-63 118zM297 1256q0 57 39 97 q40 40 98 40q57 0 98 -41q42 -40 42 -98q0 -52 -38 -95q-38 -42 -108 -42q-41 0 -86 36t-45 103z" />
<glyph unicode="k" d="M-47 0l320 1155q16 63 16 88q0 39 -31 53t-74 14h-24v55q210 19 425 59l-249 -940q10 7 173 137q164 130 164 189q0 43 -105 47v55h425v-55q-114 -17 -228 -110l-182 -153q55 -304 89 -388q34 -83 72 -83q51 0 128 125l47 -22q-88 -156 -146 -203q-57 -47 -124 -47 q-109 0 -167 116q-57 116 -94 341l-84 -55l-101 -378h-250zM349 0z" />
<glyph unicode="l" horiz-adv-x="569" d="M4 107q0 58 45 218l205 745q39 143 39 179q0 37 -24 49q-23 12 -105 12v55q212 15 429 59l-306 -1095q-37 -135 -37 -184q0 -14 9 -23q9 -8 24 -8q49 0 158 161l47 -29q-117 -177 -188 -226q-70 -49 -150 -49q-146 0 -146 136zM121 0zM526 1536z" />
<glyph unicode="m" horiz-adv-x="1593" d="M-27 0l154 539q57 193 57 233q0 55 -88 55h-25v55l127 10q128 11 282 49l-125 -400q185 275 274 337q90 63 174 63q55 0 94 -35q40 -34 40 -94q0 -80 -50 -207q159 228 236 282q78 54 169 54q75 0 114 -47q39 -46 39 -111q0 -81 -93 -346q-45 -130 -68 -200 q-22 -70 -22 -95q0 -11 6 -20t26 -9h5q22 0 53 37q32 37 81 109l47 -26q-96 -160 -171 -211q-74 -51 -155 -51q-138 0 -138 135q0 90 91 358q92 271 92 284q0 46 -45 46q-76 0 -187 -160q-110 -160 -252 -634h-246l176 554q50 155 50 193q0 47 -37 47q-71 0 -201 -190 q-130 -189 -238 -604h-246z" />
<glyph unicode="n" horiz-adv-x="1139" d="M-12 0l146 520q65 227 65 255q0 33 -25 42q-24 10 -88 10v55q167 0 409 59l-128 -400q119 181 217 290q98 110 231 110q149 0 149 -165q0 -76 -91 -342q-63 -178 -76 -227q-13 -48 -13 -55q0 -23 7 -31t26 -8q39 0 139 146l47 -26q-89 -151 -163 -207q-74 -55 -156 -55 q-145 0 -145 135q0 87 89 357q55 163 72 213q18 50 18 70q0 25 -13 36q-12 12 -36 12q-68 0 -181 -168q-113 -167 -187 -388q-37 -118 -67 -238h-246zM440 0zM622 1053z" />
<glyph unicode="o" d="M-8 278q0 246 178 454q178 209 418 209q131 0 224 -84q94 -83 94 -234q0 -232 -171 -442q-170 -210 -411 -210q-131 0 -232 79q-100 80 -100 228zM234 172q0 -139 106 -139q125 0 224 266q100 266 100 451q0 129 -99 129q-136 0 -234 -264q-97 -264 -97 -443zM603 1053z " />
<glyph unicode="p" d="M-246 -361q85 0 109 37t47 125l225 871q21 80 21 99q0 35 -21 45q-20 11 -56 11h-32v55q124 14 394 59l-76 -224q155 224 319 224q222 0 222 -261q0 -222 -168 -466q-168 -243 -393 -243q-31 0 -68 12q-36 12 -68 33l-62 -235q-14 -55 -14 -76q0 -40 29 -53t103 -13v-55 h-511v55zM230 118q0 -33 23 -55t55 -22q112 0 226 227q114 228 114 424q0 106 -75 106q-153 0 -248 -311t-95 -369z" />
<glyph unicode="q" d="M4 255q0 211 183 448q184 238 370 238q65 0 107 -38q43 -37 48 -106l32 115h222l-270 -943q-70 -247 -70 -270q0 -60 99 -60h38v-55h-546v55q96 0 129 32q34 32 54 100l125 424q-146 -224 -301 -224q-220 0 -220 284zM262 244q0 -126 87 -126q115 0 216 238 q101 239 101 392q0 106 -71 106q-108 0 -221 -235q-112 -235 -112 -375z" />
<glyph unicode="r" horiz-adv-x="797" d="M-43 0l136 456q75 250 75 307q0 38 -27 51q-26 13 -86 13v55l153 14q153 15 256 45l-117 -368q149 267 212 317q63 51 114 51q53 0 84 -37q32 -36 32 -98q0 -63 -32 -108t-91 -45q-41 0 -76 41q-9 8 -20 24q-11 17 -22 17q-45 0 -127 -141q-81 -141 -146 -359 q-47 -158 -72 -235h-246zM149 0zM523 1053z" />
<glyph unicode="s" horiz-adv-x="797" d="M5 -29l47 336l54 -6q12 -127 66 -198q54 -70 131 -70q57 0 87 33q31 34 31 73q0 44 -16 77q-16 34 -59 85q-165 197 -189 263q-24 67 -24 123q0 110 74 182t207 72q54 0 110 -23q57 -22 88 -22t57 42h59l-47 -317l-54 4q-41 250 -185 250q-61 0 -88 -33q-26 -32 -26 -80 q0 -29 20 -65q20 -35 53 -75q139 -175 177 -238q38 -62 38 -141q0 -122 -87 -197q-86 -75 -217 -75q-52 0 -115 20q-62 21 -80 21q-45 0 -57 -41h-55zM291 0zM527 1053z" />
<glyph unicode="t" horiz-adv-x="569" d="M-23 104q0 56 51 236l136 484h-101v74q230 91 374 318h71l-82 -304h143v-88h-163l-153 -544q-26 -97 -26 -131q0 -17 8 -27q9 -9 25 -9q28 0 81 65q53 66 69 97l47 -29q-121 -184 -194 -230q-72 -45 -142 -45q-57 0 -101 32q-43 33 -43 101zM195 0z" />
<glyph unicode="u" horiz-adv-x="1139" d="M0 941zM31 128q0 74 74 327q78 256 78 309q0 63 -113 63v55q110 4 230 25t199 34l-199 -640q-27 -87 -27 -132q0 -51 46 -51q54 0 141 105q61 71 99 140q96 167 206 549h242q-60 -205 -119 -409q-92 -308 -92 -349t33 -41q44 0 143 146l43 -27q-147 -261 -326 -261 q-68 0 -102 33q-33 34 -33 86q0 72 43 217q-135 -192 -224 -264q-88 -72 -181 -72q-77 0 -119 41t-42 116zM686 1053zM819 0z" />
<glyph unicode="v" horiz-adv-x="909" d="M31 827v55q97 14 316 59q57 -192 68 -682q259 288 259 384q0 28 -45 79q-45 53 -45 105q0 46 32 80t79 34q41 0 84 -38t43 -106q0 -275 -592 -826h-55l12 354q0 135 -11 241q-17 168 -38 214q-21 47 -72 47h-35z" />
<glyph unicode="w" horiz-adv-x="1366" d="M31 827v55q103 14 316 59q61 -237 66 -561q103 188 322 561h55l66 -674q244 283 244 366q0 33 -43 88t-43 97q0 51 35 87q36 36 77 36q54 0 92 -36t38 -93q0 -260 -560 -841h-55l-46 584q-54 -112 -166 -302q-111 -189 -183 -282h-55q4 79 4 133q0 22 -1 40v17 q0 343 -40 542q-17 83 -36 103q-21 21 -87 21z" />
<glyph unicode="x" d="M-94 92q0 47 31 81t86 34q43 0 75 -22q33 -21 48 -21q48 0 109 98l78 126l-51 271q-10 55 -32 118q-21 63 -92 63q-31 0 -72 -4v55l343 50q47 -67 93 -280q121 175 189 227q68 53 139 53q47 0 79 -39q33 -39 33 -82q0 -48 -35 -81q-34 -32 -82 -32q-30 0 -64 20 q-34 21 -59 21q-36 0 -79 -49q-42 -49 -101 -133l63 -320q23 -117 83 -117q38 0 133 120l43 -29q-171 -249 -304 -249q-152 0 -205 318l-67 -111q-74 -123 -127 -166q-52 -41 -127 -41q-53 0 -91 32q-37 33 -37 89z" />
<glyph unicode="y" horiz-adv-x="909" d="M-197 -292q0 42 32 77t79 35q42 0 103 -38q61 -34 80 -34q48 0 117 105t69 208q0 66 -46 299q-40 194 -62 270q-38 142 -62 172q-24 34 -86 34v55q179 16 304 50q75 -178 159 -710q172 343 172 402q0 43 -58 86q-55 40 -55 111q0 40 35 75q35 36 86 36q55 0 90 -34 q35 -33 35 -100q0 -219 -272 -682q-187 -307 -325 -424q-137 -117 -266 -117q-56 0 -93 39q-36 39 -36 85zM0 941zM540 1053z" />
<glyph unicode="z" horiz-adv-x="797" d="M-90 -3l606 718h-298q-88 0 -136 -123l-59 6l90 314h645v-21l-579 -678q43 -13 94 -53q51 -39 96 -117l48 -87q33 -60 77 -60q24 0 34 6q11 6 11 27q0 11 -20 37q-19 26 -19 60q0 31 29 63q29 33 73 33q47 0 78 -30q31 -29 31 -83q0 -65 -60 -120t-154 -55 q-122 0 -246 88q-123 88 -179 88q-31 0 -55 -18t-56 -40zM0 941zM439 1053z" />
<glyph unicode="{" horiz-adv-x="713" d="M16 513q166 39 214 97q49 58 74 155l90 351q32 133 127 212q95 80 349 80h26l-6 -25q-135 -27 -194 -84q-58 -56 -88 -174l-85 -328q-30 -122 -89 -186q-58 -63 -218 -98l31 -11q72 -23 112 -52q41 -28 41 -104q0 -45 -65 -266q-63 -220 -63 -282q0 -135 160 -157l-6 -25 q-221 0 -292 49q-70 49 -70 144q0 60 63 283q65 226 65 267q0 114 -176 154z" />
<glyph unicode="|" horiz-adv-x="451" d="M128 -35v1445h180v-1445h-180z" />
<glyph unicode="}" horiz-adv-x="713" d="M-272 -384l6 25q135 22 201 83q66 62 97 176l80 342q35 148 101 194t195 77l-39 14q-85 31 -107 63t-22 90q0 21 16 91q16 71 47 173q65 220 65 282q0 134 -176 157l6 25q225 0 301 -48q77 -48 77 -144q0 -61 -65 -284q-63 -225 -63 -265q0 -115 160 -154 q-159 -44 -203 -96t-69 -156l-80 -353q-48 -177 -188 -243q-107 -49 -340 -49z" />
<glyph unicode="~" horiz-adv-x="1167" d="M110 491q92 188 255 188q85 0 239 -72t197 -72q48 0 91 43q44 43 89 117l73 -144q-70 -108 -132 -148t-127 -40q-77 0 -211 72q-133 72 -226 72q-108 0 -175 -160z" />
<glyph unicode="&#xa1;" horiz-adv-x="797" d="M39 -284q0 66 34 129q188 361 320 712l62 -14q-100 -512 -113 -772q-7 -202 -168 -202q-52 0 -93 37q-42 37 -42 110zM356 859q0 57 40 101q40 43 117 43q60 0 103 -42t43 -102q0 -61 -43 -105q-44 -45 -106 -45q-63 0 -108 45q-46 44 -46 105z" />
<glyph unicode="&#xa2;" d="M86 294q0 232 183 446t389 214q39 0 70 -5l85 245h74l-94 -265q115 -53 115 -163q0 -55 -40 -94q-39 -38 -96 -38q-47 0 -73 19l-191 -548q124 2 245 177l57 -37q-91 -135 -175 -195q-83 -59 -172 -72l-98 -272h-70l95 266q-122 0 -213 81q-91 82 -91 241zM348 311 q0 -155 91 -194l257 742q0 27 -48 27q-99 0 -200 -203q-100 -202 -100 -372z" />
<glyph unicode="&#xa3;" d="M-66 153q0 68 51 122q52 54 140 54q63 0 133 -22q12 112 41 331h-226l20 123h218q64 389 263 553q115 91 237 91q91 0 161 -46t70 -139q0 -50 -34 -93q-34 -42 -89 -42q-46 0 -79 30q-32 30 -32 74q0 24 5 58q8 35 8 43q0 45 -43 45q-94 0 -124 -162l-77 -412h225 l-20 -123h-228q-35 -195 -153 -380q160 -67 240 -67q89 0 126 30t66 93h53q-64 -336 -317 -336q-114 0 -248 123q-76 -121 -209 -121q-75 0 -127 50q-51 50 -51 123zM-5 139q0 -36 31 -67q32 -31 81 -31q98 0 125 143q-67 59 -135 59q-49 0 -76 -26q-26 -26 -26 -78z" />
<glyph unicode="&#xa4;" d="M-60 188l202 201q-78 105 -78 253q0 144 77 248l-201 202l118 115l198 -198q106 74 250 74q142 0 249 -74l199 198l118 -115l-201 -202q77 -112 77 -248q0 -155 -79 -253l203 -201l-118 -118l-195 200q-114 -76 -253 -76q-140 0 -253 76l-195 -200zM244 638 q0 -110 75 -193q76 -82 183 -82q109 0 187 76q79 77 79 204q0 112 -75 191q-74 80 -185 80q-108 0 -186 -81t-78 -195z" />
<glyph unicode="&#xa5;" d="M35 336l29 102h292l44 159v1h-291l29 102h258l-157 472q-31 96 -66 121q-34 25 -109 32v51h574v-51q-108 0 -130 -20t-22 -52q0 -27 73 -242q70 -217 106 -301l260 391q57 86 57 145q0 79 -144 79v51h410v-51q-101 -19 -185 -142l-335 -483h280l-29 -102h-307v4l-43 -164 h313l-29 -102h-315l-30 -119q-8 -31 -8 -79q0 -57 46 -73q16 -6 118 -14v-51h-660v51q114 0 158 40q44 41 67 121l38 124h-292z" />
<glyph unicode="&#xa6;" horiz-adv-x="451" d="M128 -35v528h180v-528h-180zM128 877v528h180v-528h-180z" />
<glyph unicode="&#xa7;" d="M71 -78q0 55 34 87t83 32q51 0 83 -27t32 -76t-38 -82t-38 -47q0 -25 43 -41t94 -16q73 0 128 40q56 41 56 115q0 60 -41 120q-40 61 -115 154l-129 154q-70 91 -98 152q-28 62 -28 123q0 126 64 200q65 75 150 75q78 0 109 -14q-119 135 -119 265q0 115 82 196 q83 81 225 81q132 0 210 -57q78 -56 78 -141q0 -59 -39 -91q-38 -31 -82 -31q-46 0 -79 29q-32 29 -32 73q0 42 38 73q38 30 38 43q0 17 -32 36t-94 19q-83 0 -127 -47q-44 -46 -44 -106q0 -80 104 -209q211 -256 256 -332q46 -75 46 -163q0 -112 -74 -186t-164 -74 q-42 0 -70 5q123 -165 123 -270q0 -117 -97 -198t-242 -81q-129 0 -212 64q-82 64 -82 153zM284 707q0 -90 126 -251q126 -160 210 -160q51 0 86 37q36 38 36 92q0 91 -124 252q-123 161 -214 161q-55 0 -88 -39q-32 -39 -32 -92z" />
<glyph unicode="&#xa8;" horiz-adv-x="682" d="M112 1201q0 59 38 98q39 39 95 39q55 0 94 -40t39 -97q0 -56 -39 -93q-39 -36 -96 -36q-54 0 -93 37q-38 38 -38 92zM458 1056zM538 1201q0 59 38 98q39 39 95 39q55 0 94 -40t39 -97q0 -56 -39 -93q-39 -36 -96 -36q-52 0 -92 36q-39 37 -39 93z" />
<glyph unicode="&#xa9;" horiz-adv-x="1530" d="M64 690q0 302 204 510t498 208q287 0 494 -204q208 -204 208 -520q0 -296 -199 -505q-199 -208 -503 -208q-294 0 -498 209t-204 510zM188 685q0 -250 169 -436q169 -185 409 -185q237 0 407 184q171 185 171 442q0 256 -172 440q-172 185 -406 185q-235 0 -407 -188 q-171 -187 -171 -442zM364 699q0 172 122 288q123 117 333 117q90 0 177 -24t87 -58v-142h-34q-32 182 -227 182q-132 0 -208 -91q-75 -90 -75 -261q0 -375 290 -375q176 0 251 176h37l-35 -147q0 -22 -91 -50q-90 -27 -180 -27q-201 0 -324 103t-123 309z" />
<glyph unicode="&#xaa;" horiz-adv-x="545" d="M33 979q0 143 118 284q118 142 247 142q69 0 98 -86l25 68l156 8l-105 -315q-34 -107 -34 -148q0 -19 10 -19q20 0 92 88l29 -18q-108 -158 -204 -158q-38 0 -65 23t-27 59q0 34 14 78q-65 -102 -112 -131t-105 -29q-63 0 -100 46q-37 47 -37 108zM197 978q0 -61 45 -61 q61 0 133 130q73 130 73 244q0 59 -39 59q-75 0 -144 -154q-68 -153 -68 -218z" />
<glyph unicode="&#xab;" d="M15 450v19q397 280 470 342q44 39 59 39q31 0 31 -28q0 -48 -74 -124l-230 -243l83 -180q61 -134 61 -176q0 -33 -27 -33q-15 0 -53 44q-85 96 -320 340zM399 450v19q397 280 470 342q44 39 59 39q31 0 31 -28q0 -44 -105 -154l-199 -213l83 -180q61 -134 61 -176 q0 -33 -27 -33q-15 0 -53 44q-85 96 -320 340z" />
<glyph unicode="&#xac;" horiz-adv-x="1241" d="M112 655v180h1040v-612h-180v432h-860z" />
<glyph unicode="&#xad;" horiz-adv-x="682" d="M5 337l47 237h497l-47 -237h-497z" />
<glyph unicode="&#xae;" horiz-adv-x="1530" d="M64 690q0 297 202 507q203 211 500 211q296 0 499 -211t203 -513q0 -296 -199 -505q-199 -208 -503 -208q-294 0 -498 209t-204 510zM188 685q0 -248 169 -435q169 -186 409 -186q239 0 408 184q170 185 170 442q0 261 -172 443t-406 182q-235 0 -407 -185 q-171 -185 -171 -445zM428 309v34l49 7q47 6 47 69v20v509v24q0 64 -45 70l-51 7v34h355q132 0 196 -53q64 -52 64 -138q0 -78 -45 -137q-44 -58 -121 -80l146 -194q75 -106 132 -149v-23h-143q-41 0 -102 102q-74 120 -148 242h-92v-214v-23q0 -56 43 -64l53 -9v-34h-338z M670 695h83q144 0 144 188q0 158 -146 158h-81v-346z" />
<glyph unicode="&#xaf;" d="M177 1542v103h1024v-103h-1024z" />
<glyph unicode="&#xb0;" horiz-adv-x="819" d="M176 1107q0 128 87 213t212 85q122 0 208 -84q87 -84 87 -207q0 -127 -86 -214q-85 -87 -213 -87q-130 0 -213 86q-82 86 -82 208zM258 1107q0 -85 62 -150q63 -64 150 -64q94 0 156 64q62 65 62 154q0 86 -63 150q-62 64 -150 64q-91 0 -154 -64q-63 -63 -63 -154z" />
<glyph unicode="&#xb1;" horiz-adv-x="1167" d="M64 0v180h1044v-180h-1044zM64 564v180h432v304h180v-304h432v-180h-432v-304h-180v304h-432z" />
<glyph unicode="&#xb2;" horiz-adv-x="614" d="M3 560v33l274 262q180 173 180 285q0 74 -34 107q-33 33 -90 33q-49 0 -88 -26t-82 -74l-38 22q100 202 297 202q101 0 161 -62q60 -61 60 -141q0 -139 -193 -293l-255 -206v-1h195q72 0 106 20q35 21 71 79h32l-105 -240h-491z" />
<glyph unicode="&#xb3;" horiz-adv-x="614" d="M35 644q0 43 21 66q22 24 50 24q34 0 62 -35t59 -69q17 -20 58 -20q58 0 102 53q45 54 45 135q0 191 -205 191l3 28q243 43 243 177q0 53 -31 79q-30 27 -70 27q-84 0 -160 -88l-29 26q109 166 279 166q83 0 140 -48q57 -47 57 -123q0 -113 -163 -183q108 -67 108 -189 q0 -128 -117 -224q-116 -95 -265 -95q-187 0 -187 102z" />
<glyph unicode="&#xb4;" horiz-adv-x="682" d="M288 1056l271 285q30 33 59 58t70 25q38 0 67 -29t29 -69q0 -49 -96 -102l-300 -168h-100zM472 1056z" />
<glyph unicode="&#xb5;" horiz-adv-x="1180" d="M-121 -291q0 63 46 172q71 164 106 279l232 752h272l-187 -615q-21 -67 -21 -100q0 -54 43 -54q50 0 147 117q103 135 157 303l108 349h277l-194 -624q-28 -92 -28 -112q0 -30 29 -30q34 0 123 128l43 -33q-120 -171 -193 -221q-73 -49 -144 -49q-62 0 -97 40t-35 96 q0 57 16 133q-141 -240 -255 -240q-69 0 -133 49q-47 -138 -47 -298q0 -70 -48 -119q-48 -48 -111 -48q-106 0 -106 125z" />
<glyph unicode="&#xb6;" d="M-121 -400l14 51q112 0 144 27q33 28 54 106l205 741q-289 0 -289 283q0 195 118 381q118 187 442 187h605l-14 -51q-85 -4 -131 -25q-45 -20 -70 -119l-371 -1321q-38 -132 -38 -155q0 -30 53 -42t93 -12l-14 -51h-344l478 1725h-113l-478 -1725h-344zM167 807 q0 -71 37 -140t107 -91l208 749q-193 -39 -273 -202q-79 -163 -79 -316z" />
<glyph unicode="&#xb8;" horiz-adv-x="682" d="M-160 -386l46 63q74 -29 138 -29q109 0 109 86q0 71 -98 71q-27 0 -58 -8l-25 24l133 195h92l-92 -132q28 4 51 4q74 0 129 -39q55 -38 55 -104q0 -86 -76 -133t-188 -47q-93 0 -216 49zM192 0z" />
<glyph unicode="&#xb9;" horiz-adv-x="614" d="M61 560v39q128 0 157 94l145 462q27 84 27 107q0 41 -55 41q-6 0 -85 -6l3 39q173 26 368 68l-206 -670q-16 -56 -16 -82q0 -31 22 -42q23 -11 100 -11v-39h-460z" />
<glyph unicode="&#xba;" horiz-adv-x="614" d="M112 1009q0 148 118 272t273 124q72 0 138 -46q67 -46 67 -138q0 -155 -117 -276q-116 -120 -267 -120q-102 0 -157 55t-55 129zM276 944q0 -78 64 -78q82 0 143 163q61 164 61 263q0 72 -51 72q-81 0 -149 -147t-68 -273z" />
<glyph unicode="&#xbb;" d="M24 94q0 44 105 154l199 213l-83 180q-61 134 -61 176q0 33 27 33q15 0 53 -44q85 -96 320 -340v-19q-397 -280 -470 -342q-44 -39 -59 -39q-31 0 -31 28zM408 94q0 48 74 124l230 243l-83 180q-61 134 -61 176q0 33 27 33q15 0 53 -44q85 -96 320 -340v-19 q-397 -280 -470 -342q-44 -39 -59 -39q-31 0 -31 28z" />
<glyph unicode="&#xbc;" horiz-adv-x="1536" d="M14 560v39q128 0 157 94l145 462q27 84 27 107q0 41 -55 41q-6 0 -85 -6l3 39q173 26 368 68l-206 -670q-16 -56 -16 -82q0 -31 22 -42q23 -11 100 -11v-39h-460zM273 -29l889 1434h119v-6l-889 -1428h-119zM781 183l33 136l578 522h93l-158 -534h91l-35 -124h-88 l-60 -186h-175l55 186h-334zM874 307h277l104 349z" />
<glyph unicode="&#xbd;" horiz-adv-x="1536" d="M-19 560v39q128 0 157 94l145 462q27 84 27 107q0 41 -55 41q-6 0 -85 -6l3 39q173 26 368 68l-206 -670q-16 -56 -16 -82q0 -31 22 -42q23 -11 100 -11v-39h-460zM242 -29l889 1434h119v-6l-889 -1428h-119zM843 -1v33l274 262q180 173 180 285q0 74 -34 107 q-33 33 -90 33q-49 0 -88 -26t-82 -74l-38 22q100 202 297 202q101 0 161 -62q60 -61 60 -141q0 -139 -193 -293l-255 -206v-1h195q72 0 106 20q35 21 71 79h32l-105 -240h-491z" />
<glyph unicode="&#xbe;" horiz-adv-x="1536" d="M15 644q0 43 21 66q22 24 50 24q34 0 62 -35t59 -69q17 -20 58 -20q58 0 102 53q45 54 45 135q0 191 -205 191l3 28q243 43 243 177q0 53 -31 79q-30 27 -70 27q-84 0 -160 -88l-29 26q109 166 279 166q83 0 140 -48q57 -47 57 -123q0 -113 -163 -183q108 -67 108 -189 q0 -128 -117 -224q-116 -95 -265 -95q-187 0 -187 102zM283 -29l889 1434h119v-6l-889 -1428h-119zM791 183l33 136l578 522h93l-158 -534h91l-35 -124h-88l-60 -186h-175l55 186h-334zM884 307h277l104 349z" />
<glyph unicode="&#xbf;" d="M-19 -127q0 127 84 214q83 86 255 193q122 81 155 137q33 55 68 146l62 -14q-8 -156 -137 -319q-175 -215 -201 -283q-26 -69 -26 -142q0 -167 146 -167q45 0 85 22q40 21 40 53q0 15 -31 58t-31 86q0 50 37 85q36 34 88 34q53 0 90 -38q36 -39 36 -95q0 -108 -95 -187 q-96 -80 -257 -80q-178 0 -273 83t-95 214zM482 873q0 57 40 101q40 43 117 43q60 0 103 -42t43 -102q0 -61 -43 -105q-44 -45 -106 -45q-63 0 -108 45q-46 44 -46 105z" />
<glyph unicode="&#xc0;" horiz-adv-x="1366" d="M-136 0v51q52 10 88 43q37 34 82 104l758 1207h52l194 -1169q18 -110 42 -143q25 -32 132 -42v-51h-621v51q70 0 115 24t45 95q0 37 -4 66l-27 194h-436l-119 -210q-33 -57 -33 -95q0 -74 132 -74v-51h-400zM0 1412zM331 512h375l-74 498zM547 1772q0 30 27 59 q28 29 67 29q59 0 118 -78l220 -290h-92l-251 166q-89 59 -89 114zM738 0zM812 1492zM812 1492z" />
<glyph unicode="&#xc1;" horiz-adv-x="1366" d="M-136 0v51q52 10 88 43q37 34 82 104l758 1207h52l194 -1169q18 -110 42 -143q25 -32 132 -42v-51h-621v51q70 0 115 24t45 95q0 37 -4 66l-27 194h-436l-119 -210q-33 -57 -33 -95q0 -74 132 -74v-51h-400zM0 1412zM331 512h375l-74 498zM628 1492l271 285q30 33 59 58 t70 25q38 0 67 -29t29 -69q0 -49 -96 -102l-300 -168h-100zM738 0zM812 1492zM812 1492z" />
<glyph unicode="&#xc2;" horiz-adv-x="1366" d="M-136 0v51q52 10 88 43q37 34 82 104l758 1207h52l194 -1169q18 -110 42 -143q25 -32 132 -42v-51h-621v51q70 0 115 24t45 95q0 37 -4 66l-27 194h-436l-119 -210q-33 -57 -33 -95q0 -74 132 -74v-51h-400zM0 1412zM331 512h375l-74 498zM468 1492l336 352h166l176 -352 h-104l-180 193l-278 -193h-116zM738 0zM812 1492zM812 1492z" />
<glyph unicode="&#xc3;" horiz-adv-x="1366" d="M-136 0v51q52 10 88 43q37 34 82 104l758 1207h52l194 -1169q18 -110 42 -143q25 -32 132 -42v-51h-621v51q70 0 115 24t45 95q0 37 -4 66l-27 194h-436l-119 -210q-33 -57 -33 -95q0 -74 132 -74v-51h-400zM0 1412zM331 512h375l-74 498zM486 1534q53 245 246 245 q56 0 167 -46q111 -45 136 -45q33 0 56 17t51 74h83q-64 -245 -238 -245q-58 0 -167 45q-108 46 -147 46q-68 0 -104 -91h-83zM738 0zM812 1492zM812 1492z" />
<glyph unicode="&#xc4;" horiz-adv-x="1366" d="M-136 0v51q52 10 88 43q37 34 82 104l758 1207h52l194 -1169q18 -110 42 -143q25 -32 132 -42v-51h-621v51q70 0 115 24t45 95q0 37 -4 66l-27 194h-436l-119 -210q-33 -57 -33 -95q0 -74 132 -74v-51h-400zM0 1412zM331 512h375l-74 498zM466 1637q0 59 38 98 q39 39 95 39q55 0 94 -40t39 -97q0 -56 -39 -93q-39 -36 -96 -36q-54 0 -93 37q-38 38 -38 92zM738 0zM812 1492zM812 1492zM892 1637q0 59 38 98q39 39 95 39q55 0 94 -40t39 -97q0 -56 -39 -93q-39 -36 -96 -36q-52 0 -92 36q-39 37 -39 93z" />
<glyph unicode="&#xc5;" horiz-adv-x="1366" d="M-136 0v51q52 10 88 43q37 34 82 104l758 1207h52l194 -1169q18 -110 42 -143q25 -32 132 -42v-51h-621v51q70 0 115 24t45 95q0 37 -4 66l-27 194h-436l-119 -210q-33 -57 -33 -95q0 -74 132 -74v-51h-400zM0 1412zM331 512h375l-74 498zM596 1676q0 90 63 155t153 65 t155 -65t65 -155t-65 -153t-155 -63t-153 63t-63 153zM696 1677q0 -49 34 -83t83 -34q48 0 83 35q36 35 36 84q0 48 -36 82q-35 35 -83 35q-49 0 -83 -36q-34 -35 -34 -83zM738 0zM812 1492zM812 1492z" />
<glyph unicode="&#xc6;" horiz-adv-x="1933" d="M-132 0v51q61 16 94 52q33 37 120 150l691 886q71 92 71 129q0 26 -34 41q-34 16 -131 16v51h1202l-94 -384l-47 10q0 176 -84 242q-83 66 -246 66q-52 0 -84 -10q-32 -9 -48 -71l-131 -467q210 0 278 53q68 54 118 171l56 -8l-151 -570l-51 10q9 93 9 98q0 111 -69 145 q-69 35 -204 35l-125 -470q-16 -63 -16 -89q0 -71 105 -71q231 0 355 78q124 79 232 256l56 -6l-128 -394h-1072v51q93 11 118 49q26 39 47 111l89 313h-392l-219 -304q-43 -61 -43 -98q0 -63 128 -71v-51h-400zM465 604h348l187 686h-26z" />
<glyph unicode="&#xc7;" horiz-adv-x="1366" d="M66 501q0 359 244 635t589 276q125 0 222 -32q98 -32 127 -32q26 0 42 14q17 14 38 50h61l-103 -480l-66 12v83q0 153 -71 233t-198 80q-225 0 -398 -300q-172 -299 -172 -601q0 -180 82 -274q83 -93 221 -93q241 0 436 244l61 -45q-203 -307 -558 -307q-240 0 -399 144 q-158 145 -158 393zM189 -386l46 63q74 -29 138 -29q109 0 109 86q0 71 -98 71q-27 0 -58 -8l-25 24l133 195h92l-92 -132q28 4 51 4q74 0 129 -39q55 -38 55 -104q0 -86 -76 -133t-188 -47q-93 0 -216 49zM541 0zM541 0zM1001 1492z" />
<glyph unicode="&#xc8;" horiz-adv-x="1366" d="M-56 0v51q96 10 122 53q26 44 43 101l247 919q20 77 20 118q0 52 -40 66q-40 15 -105 17v51h1097l-89 -384l-52 10q0 197 -96 252q-96 56 -290 56q-64 0 -87 -22q-22 -21 -34 -66l-120 -460l86 1q162 5 205 44t81 109l36 70l56 -8l-151 -570l-56 10q5 50 5 90 q0 136 -60 162q-59 26 -180 26h-36l-126 -439q-28 -101 -28 -120q0 -71 134 -71q426 0 614 334l52 -10l-128 -390h-1120zM0 1412zM549 1772q0 30 27 59q28 29 67 29q59 0 118 -78l220 -290h-92l-251 166q-89 59 -89 114zM814 1492zM814 1492zM838 0z" />
<glyph unicode="&#xc9;" horiz-adv-x="1366" d="M-56 0v51q96 10 122 53q26 44 43 101l247 919q20 77 20 118q0 52 -40 66q-40 15 -105 17v51h1097l-89 -384l-52 10q0 197 -96 252q-96 56 -290 56q-64 0 -87 -22q-22 -21 -34 -66l-120 -460l86 1q162 5 205 44t81 109l36 70l56 -8l-151 -570l-56 10q5 50 5 90 q0 136 -60 162q-59 26 -180 26h-36l-126 -439q-28 -101 -28 -120q0 -71 134 -71q426 0 614 334l52 -10l-128 -390h-1120zM0 1412zM630 1492l271 285q30 33 59 58t70 25q38 0 67 -29t29 -69q0 -49 -96 -102l-300 -168h-100zM814 1492zM814 1492zM838 0z" />
<glyph unicode="&#xca;" horiz-adv-x="1366" d="M-56 0v51q96 10 122 53q26 44 43 101l247 919q20 77 20 118q0 52 -40 66q-40 15 -105 17v51h1097l-89 -384l-52 10q0 197 -96 252q-96 56 -290 56q-64 0 -87 -22q-22 -21 -34 -66l-120 -460l86 1q162 5 205 44t81 109l36 70l56 -8l-151 -570l-56 10q5 50 5 90 q0 136 -60 162q-59 26 -180 26h-36l-126 -439q-28 -101 -28 -120q0 -71 134 -71q426 0 614 334l52 -10l-128 -390h-1120zM0 1412zM470 1492l336 352h166l176 -352h-104l-180 193l-278 -193h-116zM814 1492zM814 1492zM838 0z" />
<glyph unicode="&#xcb;" horiz-adv-x="1366" d="M-56 0v51q96 10 122 53q26 44 43 101l247 919q20 77 20 118q0 52 -40 66q-40 15 -105 17v51h1097l-89 -384l-52 10q0 197 -96 252q-96 56 -290 56q-64 0 -87 -22q-22 -21 -34 -66l-120 -460l86 1q162 5 205 44t81 109l36 70l56 -8l-151 -570l-56 10q5 50 5 90 q0 136 -60 162q-59 26 -180 26h-36l-126 -439q-28 -101 -28 -120q0 -71 134 -71q426 0 614 334l52 -10l-128 -390h-1120zM0 1412zM468 1637q0 59 38 98q39 39 95 39q55 0 94 -40t39 -97q0 -56 -39 -93q-39 -36 -96 -36q-54 0 -93 37q-38 38 -38 92zM814 1492zM814 1492z M838 0zM894 1637q0 59 38 98q39 39 95 39q55 0 94 -40t39 -97q0 -56 -39 -93q-39 -36 -96 -36q-52 0 -92 36q-39 37 -39 93z" />
<glyph unicode="&#xcc;" horiz-adv-x="797" d="M-66 0v51q54 6 95 31q42 26 65 113l252 914q25 91 25 141q0 29 -20 45q-20 17 -130 30v51h608v-51q-71 -7 -109 -39q-37 -31 -57 -105l-252 -941q-16 -61 -16 -101q0 -84 147 -88v-51h-608zM0 1409zM256 0zM281 1769q0 30 27 59q28 29 67 29q59 0 118 -78l220 -290h-92 l-251 166q-89 59 -89 114zM546 1489zM546 1489z" />
<glyph unicode="&#xcd;" horiz-adv-x="797" d="M-66 0v51q54 6 95 31q42 26 65 113l252 914q25 91 25 141q0 29 -20 45q-20 17 -130 30v51h608v-51q-71 -7 -109 -39q-37 -31 -57 -105l-252 -941q-16 -61 -16 -101q0 -84 147 -88v-51h-608zM0 1409zM256 0zM362 1489l271 285q30 33 59 58t70 25q38 0 67 -29t29 -69 q0 -49 -96 -102l-300 -168h-100zM546 1489zM546 1489z" />
<glyph unicode="&#xce;" horiz-adv-x="797" d="M-66 0v51q54 6 95 31q42 26 65 113l252 914q25 91 25 141q0 29 -20 45q-20 17 -130 30v51h608v-51q-71 -7 -109 -39q-37 -31 -57 -105l-252 -941q-16 -61 -16 -101q0 -84 147 -88v-51h-608zM0 1409zM202 1489l336 352h166l176 -352h-104l-180 193l-278 -193h-116zM256 0z M546 1489zM546 1489z" />
<glyph unicode="&#xcf;" horiz-adv-x="797" d="M-66 0v51q54 6 95 31q42 26 65 113l252 914q25 91 25 141q0 29 -20 45q-20 17 -130 30v51h608v-51q-71 -7 -109 -39q-37 -31 -57 -105l-252 -941q-16 -61 -16 -101q0 -84 147 -88v-51h-608zM0 1409zM200 1634q0 59 38 98q39 39 95 39q55 0 94 -40t39 -97q0 -56 -39 -93 q-39 -36 -96 -36q-54 0 -93 37q-38 38 -38 92zM256 0zM546 1489zM546 1489zM626 1634q0 59 38 98q39 39 95 39q55 0 94 -40t39 -97q0 -56 -39 -93q-39 -36 -96 -36q-52 0 -92 36q-39 37 -39 93z" />
<glyph unicode="&#xd0;" horiz-adv-x="1479" d="M-66 0v51q87 11 116 49q30 38 49 104l125 470h-205l24 90h206l86 313q36 131 36 165q0 42 -26 56q-26 15 -124 27v51h599q301 0 459 -151q159 -150 159 -419q0 -334 -254 -570t-668 -236h-582zM390 142q0 -41 26 -59q27 -17 99 -17q294 0 458 260t164 605q0 379 -334 379 q-72 0 -94 -25t-32 -62l-123 -459h244l-24 -90h-246l-98 -372q-12 -48 -26 -95t-14 -65z" />
<glyph unicode="&#xd1;" horiz-adv-x="1479" d="M-56 0v51q87 18 120 78q34 61 73 194l259 888q-33 70 -69 92t-101 22v51h400l444 -960l177 637q25 89 25 151q0 108 -165 121v51h428v-51q-103 -17 -136 -95q-33 -77 -61 -177l-306 -1089h-56l-529 1131l-208 -746q-32 -119 -32 -172q0 -65 44 -96q44 -30 121 -30v-51 h-428zM0 1412zM556 1534q53 245 246 245q56 0 167 -46q111 -45 136 -45q33 0 56 17t51 74h83q-64 -245 -238 -245q-58 0 -167 45q-108 46 -147 46q-68 0 -104 -91h-83zM578 0zM882 1492zM882 1492z" />
<glyph unicode="&#xd2;" horiz-adv-x="1479" d="M56 433q0 367 261 673t619 306q209 0 351 -135q142 -134 142 -363q0 -327 -268 -639q-268 -311 -606 -311q-229 0 -364 135q-135 136 -135 334zM357 305q0 -271 208 -271q230 0 396 384q167 385 167 669q0 118 -58 186q-57 69 -153 69q-243 0 -402 -397 q-158 -397 -158 -640zM649 1772q0 30 27 59q28 29 67 29q59 0 118 -78l220 -290h-92l-251 166q-89 59 -89 114zM914 1492zM914 1492z" />
<glyph unicode="&#xd3;" horiz-adv-x="1479" d="M56 433q0 367 261 673t619 306q209 0 351 -135q142 -134 142 -363q0 -327 -268 -639q-268 -311 -606 -311q-229 0 -364 135q-135 136 -135 334zM357 305q0 -271 208 -271q230 0 396 384q167 385 167 669q0 118 -58 186q-57 69 -153 69q-243 0 -402 -397 q-158 -397 -158 -640zM730 1492l271 285q30 33 59 58t70 25q38 0 67 -29t29 -69q0 -49 -96 -102l-300 -168h-100zM914 1492zM914 1492z" />
<glyph unicode="&#xd4;" horiz-adv-x="1479" d="M56 433q0 367 261 673t619 306q209 0 351 -135q142 -134 142 -363q0 -327 -268 -639q-268 -311 -606 -311q-229 0 -364 135q-135 136 -135 334zM357 305q0 -271 208 -271q230 0 396 384q167 385 167 669q0 118 -58 186q-57 69 -153 69q-243 0 -402 -397 q-158 -397 -158 -640zM570 1492l336 352h166l176 -352h-104l-180 193l-278 -193h-116zM914 1492zM914 1492z" />
<glyph unicode="&#xd5;" horiz-adv-x="1479" d="M56 433q0 367 261 673t619 306q209 0 351 -135q142 -134 142 -363q0 -327 -268 -639q-268 -311 -606 -311q-229 0 -364 135q-135 136 -135 334zM357 305q0 -271 208 -271q230 0 396 384q167 385 167 669q0 118 -58 186q-57 69 -153 69q-243 0 -402 -397 q-158 -397 -158 -640zM588 1534q53 245 246 245q56 0 167 -46q111 -45 136 -45q33 0 56 17t51 74h83q-64 -245 -238 -245q-58 0 -167 45q-108 46 -147 46q-68 0 -104 -91h-83zM914 1492zM914 1492z" />
<glyph unicode="&#xd6;" horiz-adv-x="1479" d="M56 433q0 367 261 673t619 306q209 0 351 -135q142 -134 142 -363q0 -327 -268 -639q-268 -311 -606 -311q-229 0 -364 135q-135 136 -135 334zM357 305q0 -271 208 -271q230 0 396 384q167 385 167 669q0 118 -58 186q-57 69 -153 69q-243 0 -402 -397 q-158 -397 -158 -640zM568 1637q0 59 38 98q39 39 95 39q55 0 94 -40t39 -97q0 -56 -39 -93q-39 -36 -96 -36q-54 0 -93 37q-38 38 -38 92zM914 1492zM914 1492zM994 1637q0 59 38 98q39 39 95 39q55 0 94 -40t39 -97q0 -56 -39 -93q-39 -36 -96 -36q-52 0 -92 36 q-39 37 -39 93z" />
<glyph unicode="&#xd7;" horiz-adv-x="1167" d="M96 163l361 361l-361 361l127 127l361 -361l361 361l127 -127l-361 -361l361 -361l-127 -127l-361 361l-361 -361z" />
<glyph unicode="&#xd8;" horiz-adv-x="1479" d="M56 427q0 369 260 677q261 308 607 308q91 0 172 -26l112 188h99l-129 -223q247 -128 247 -434q0 -350 -267 -652q-266 -301 -612 -301q-88 0 -168 29l-142 -248h-99l161 280q-96 45 -169 155q-72 110 -72 247zM352 309q0 -91 24 -149l669 1138q-51 44 -134 44 q-234 0 -397 -394q-162 -393 -162 -639zM427 80q54 -46 138 -46q233 0 398 400t165 646q0 80 -29 138z" />
<glyph unicode="&#xd9;" horiz-adv-x="1479" d="M0 1412zM136 308q0 92 37 231l161 616q6 22 10 45q4 24 4 43q0 42 -22 55q-22 14 -124 27v51h640v-51q-103 0 -141 -38t-57 -104l-202 -743q-24 -91 -24 -150q0 -211 258 -211q135 0 237 90q102 91 187 389l130 465q35 125 35 185q0 104 -169 117v51h432v-51 q-79 -16 -114 -59q-35 -42 -90 -232l-153 -531q-84 -291 -214 -415t-364 -124q-195 0 -326 96t-131 248zM659 1772q0 30 27 59q28 29 67 29q59 0 118 -78l220 -290h-92l-251 166q-89 59 -89 114zM674 0zM924 1492zM924 1492z" />
<glyph unicode="&#xda;" horiz-adv-x="1479" d="M0 1412zM136 308q0 92 37 231l161 616q6 22 10 45q4 24 4 43q0 42 -22 55q-22 14 -124 27v51h640v-51q-103 0 -141 -38t-57 -104l-202 -743q-24 -91 -24 -150q0 -211 258 -211q135 0 237 90q102 91 187 389l130 465q35 125 35 185q0 104 -169 117v51h432v-51 q-79 -16 -114 -59q-35 -42 -90 -232l-153 -531q-84 -291 -214 -415t-364 -124q-195 0 -326 96t-131 248zM674 0zM740 1492l271 285q30 33 59 58t70 25q38 0 67 -29t29 -69q0 -49 -96 -102l-300 -168h-100zM924 1492zM924 1492z" />
<glyph unicode="&#xdb;" horiz-adv-x="1479" d="M0 1412zM136 308q0 92 37 231l161 616q6 22 10 45q4 24 4 43q0 42 -22 55q-22 14 -124 27v51h640v-51q-103 0 -141 -38t-57 -104l-202 -743q-24 -91 -24 -150q0 -211 258 -211q135 0 237 90q102 91 187 389l130 465q35 125 35 185q0 104 -169 117v51h432v-51 q-79 -16 -114 -59q-35 -42 -90 -232l-153 -531q-84 -291 -214 -415t-364 -124q-195 0 -326 96t-131 248zM580 1492l336 352h166l176 -352h-104l-180 193l-278 -193h-116zM674 0zM924 1492zM924 1492z" />
<glyph unicode="&#xdc;" horiz-adv-x="1479" d="M0 1412zM136 308q0 92 37 231l161 616q6 22 10 45q4 24 4 43q0 42 -22 55q-22 14 -124 27v51h640v-51q-103 0 -141 -38t-57 -104l-202 -743q-24 -91 -24 -150q0 -211 258 -211q135 0 237 90q102 91 187 389l130 465q35 125 35 185q0 104 -169 117v51h432v-51 q-79 -16 -114 -59q-35 -42 -90 -232l-153 -531q-84 -291 -214 -415t-364 -124q-195 0 -326 96t-131 248zM578 1637q0 59 38 98q39 39 95 39q55 0 94 -40t39 -97q0 -56 -39 -93q-39 -36 -96 -36q-54 0 -93 37q-38 38 -38 92zM674 0zM924 1492zM924 1492zM1004 1637 q0 59 38 98q39 39 95 39q55 0 94 -40t39 -97q0 -56 -39 -93q-39 -36 -96 -36q-52 0 -92 36q-39 37 -39 93z" />
<glyph unicode="&#xdd;" horiz-adv-x="1251" d="M0 1412zM151 0v51q107 9 145 36q38 28 65 126l119 432l-177 543q-15 47 -37 86q-21 40 -115 51v51h578v-51q-34 0 -90 -13q-56 -12 -56 -59q0 -41 21 -103l139 -424l263 376q34 49 46 75t12 68q0 35 -30 57q-29 23 -111 23v51h428v-51q-99 -19 -184 -143l-390 -548 l-105 -387q-18 -69 -18 -103q0 -58 41 -76q41 -17 114 -17v-51h-658zM633 1492l271 285q30 33 59 58t70 25q38 0 67 -29t29 -69q0 -49 -96 -102l-300 -168h-100zM817 1492zM817 1492z" />
<glyph unicode="&#xde;" horiz-adv-x="1251" d="M-56 0v51q77 10 110 47q34 37 55 113l249 902q23 84 23 125q0 50 -30 63t-120 24v51h608v-51q-65 0 -108 -31q-42 -31 -63 -97l-30 -100h105q433 0 433 -325q0 -183 -153 -291t-387 -108q-93 0 -187 10l-27 -123q-22 -104 -22 -118q0 -54 37 -73q38 -18 109 -18v-51h-602 zM469 449q57 -4 86 -4q178 0 249 119t71 275q0 192 -172 192q-59 0 -77 -26q-17 -25 -29 -70z" />
<glyph unicode="&#xdf;" d="M-410 -254q0 60 31 88q32 29 82 29q42 0 66 -26t24 -70q0 -35 -18 -58q-17 -22 -17 -32q0 -24 33 -24q69 0 103 76q35 76 64 208l208 898q64 297 193 445q129 149 310 149q128 0 212 -74q85 -74 85 -187q0 -235 -375 -358q295 -53 295 -299q0 -197 -136 -361 q-135 -164 -308 -164q-92 0 -157 45l39 72q37 -47 96 -47q90 0 157 188t67 351q0 130 -57 157q-56 27 -101 27l16 76q26 2 39 2q81 0 140 113t59 281q0 116 -97 116q-133 0 -205 -319l-192 -837q-138 -620 -464 -620q-71 0 -132 42q-60 43 -60 113z" />
<glyph unicode="&#xe0;" d="M-43 240q0 224 183 462q184 239 371 239q76 0 117 -49q42 -49 42 -95l39 118l226 14l-174 -579q-41 -137 -41 -201q0 -35 29 -35q38 0 143 142l43 -30q-164 -258 -306 -258q-57 0 -98 37q-41 38 -41 97q0 38 24 125q-106 -162 -180 -209q-73 -47 -155 -47q-104 0 -163 70 t-59 199zM215 235q0 -58 26 -88q27 -30 62 -30q103 0 211 227q109 228 109 403q0 107 -77 107q-108 0 -220 -236q-111 -236 -111 -383zM368 1333q0 30 27 59q28 29 67 29q59 0 118 -78l220 -290h-92l-251 166q-89 59 -89 114zM633 1053zM633 1053zM755 0z" />
<glyph unicode="&#xe1;" d="M-43 240q0 224 183 462q184 239 371 239q76 0 117 -49q42 -49 42 -95l39 118l226 14l-174 -579q-41 -137 -41 -201q0 -35 29 -35q38 0 143 142l43 -30q-164 -258 -306 -258q-57 0 -98 37q-41 38 -41 97q0 38 24 125q-106 -162 -180 -209q-73 -47 -155 -47q-104 0 -163 70 t-59 199zM215 235q0 -58 26 -88q27 -30 62 -30q103 0 211 227q109 228 109 403q0 107 -77 107q-108 0 -220 -236q-111 -236 -111 -383zM449 1053l271 285q30 33 59 58t70 25q38 0 67 -29t29 -69q0 -49 -96 -102l-300 -168h-100zM633 1053zM633 1053zM755 0z" />
<glyph unicode="&#xe2;" d="M-43 240q0 224 183 462q184 239 371 239q76 0 117 -49q42 -49 42 -95l39 118l226 14l-174 -579q-41 -137 -41 -201q0 -35 29 -35q38 0 143 142l43 -30q-164 -258 -306 -258q-57 0 -98 37q-41 38 -41 97q0 38 24 125q-106 -162 -180 -209q-73 -47 -155 -47q-104 0 -163 70 t-59 199zM215 235q0 -58 26 -88q27 -30 62 -30q103 0 211 227q109 228 109 403q0 107 -77 107q-108 0 -220 -236q-111 -236 -111 -383zM289 1053l336 352h166l176 -352h-104l-180 193l-278 -193h-116zM633 1053zM633 1053zM755 0z" />
<glyph unicode="&#xe3;" d="M-43 240q0 224 183 462q184 239 371 239q76 0 117 -49q42 -49 42 -95l39 118l226 14l-174 -579q-41 -137 -41 -201q0 -35 29 -35q38 0 143 142l43 -30q-164 -258 -306 -258q-57 0 -98 37q-41 38 -41 97q0 38 24 125q-106 -162 -180 -209q-73 -47 -155 -47q-104 0 -163 70 t-59 199zM215 235q0 -58 26 -88q27 -30 62 -30q103 0 211 227q109 228 109 403q0 107 -77 107q-108 0 -220 -236q-111 -236 -111 -383zM307 1095q53 245 246 245q56 0 167 -46q111 -45 136 -45q33 0 56 17t51 74h83q-64 -245 -238 -245q-58 0 -167 45q-108 46 -147 46 q-68 0 -104 -91h-83zM633 1053zM633 1053zM755 0z" />
<glyph unicode="&#xe4;" d="M-43 240q0 224 183 462q184 239 371 239q76 0 117 -49q42 -49 42 -95l39 118l226 14l-174 -579q-41 -137 -41 -201q0 -35 29 -35q38 0 143 142l43 -30q-164 -258 -306 -258q-57 0 -98 37q-41 38 -41 97q0 38 24 125q-106 -162 -180 -209q-73 -47 -155 -47q-104 0 -163 70 t-59 199zM215 235q0 -58 26 -88q27 -30 62 -30q103 0 211 227q109 228 109 403q0 107 -77 107q-108 0 -220 -236q-111 -236 -111 -383zM287 1198q0 59 38 98q39 39 95 39q55 0 94 -40t39 -97q0 -56 -39 -93q-39 -36 -96 -36q-54 0 -93 37q-38 38 -38 92zM633 1053zM633 1053 zM713 1198q0 59 38 98q39 39 95 39q55 0 94 -40t39 -97q0 -56 -39 -93q-39 -36 -96 -36q-52 0 -92 36q-39 37 -39 93zM755 0z" />
<glyph unicode="&#xe5;" d="M-43 240q0 224 183 462q184 239 371 239q76 0 117 -49q42 -49 42 -95l39 118l226 14l-174 -579q-41 -137 -41 -201q0 -35 29 -35q38 0 143 142l43 -30q-164 -258 -306 -258q-57 0 -98 37q-41 38 -41 97q0 38 24 125q-106 -162 -180 -209q-73 -47 -155 -47q-104 0 -163 70 t-59 199zM215 235q0 -58 26 -88q27 -30 62 -30q103 0 211 227q109 228 109 403q0 107 -77 107q-108 0 -220 -236q-111 -236 -111 -383zM441 1269q0 90 63 155t153 65t155 -65t65 -155t-65 -153t-155 -63t-153 63t-63 153zM541 1270q0 -49 34 -83t83 -34q48 0 83 35 q36 35 36 84q0 48 -36 82q-35 35 -83 35q-49 0 -83 -36q-34 -35 -34 -83zM633 1053zM633 1053zM755 0z" />
<glyph unicode="&#xe6;" horiz-adv-x="1479" d="M-12 236q0 223 186 464q187 241 373 241q128 0 171 -128l35 112l211 10l-39 -122q103 128 251 128q204 0 204 -184q0 -112 -118 -221q-118 -108 -436 -170q-10 -50 -10 -94q0 -170 142 -170q155 0 254 173l59 -34q-139 -270 -389 -270q-153 0 -221 69t-91 203 q-152 -272 -355 -272q-95 0 -161 67t-66 198zM246 241q0 -124 100 -124q122 0 227 234q106 235 106 373q0 130 -101 130q-107 0 -220 -227q-112 -226 -112 -386zM841 433q94 0 225 105t131 254q0 87 -70 87q-152 0 -261 -363z" />
<glyph unicode="&#xe7;" horiz-adv-x="909" d="M-41 -386l46 63q74 -29 138 -29q109 0 109 86q0 71 -98 71q-27 0 -58 -8l-25 24l133 195h92l-92 -132q28 4 51 4q74 0 129 -39q55 -38 55 -104q0 -86 -76 -133t-188 -47q-93 0 -216 49zM20 282q0 231 179 445t394 214q103 0 166 -47t63 -127q0 -75 -38 -111 q-37 -35 -94 -35q-39 0 -77 27q-37 28 -37 82q0 31 20 66q23 35 23 46q0 37 -45 37q-108 0 -202 -207q-94 -206 -94 -367q0 -203 147 -203q118 0 242 189l59 -37q-124 -182 -216 -233q-91 -50 -189 -50q-137 0 -219 86q-82 87 -82 225zM311 0zM311 0zM659 1053z" />
<glyph unicode="&#xe8;" horiz-adv-x="909" d="M12 278q0 230 178 446q178 217 411 217q91 0 152 -46q61 -45 61 -134q0 -115 -140 -235q-139 -120 -392 -155q-12 -56 -12 -97q0 -172 141 -172q106 0 232 189l59 -35q-81 -147 -176 -216q-94 -69 -201 -69q-130 0 -222 82q-91 82 -91 225zM297 438q137 32 235 128 q99 97 99 239q0 74 -60 74q-74 0 -154 -125q-79 -124 -120 -316zM309 1333q0 30 27 59q28 29 67 29q59 0 118 -78l220 -290h-92l-251 166q-89 59 -89 114zM446 0zM574 1053zM574 1053z" />
<glyph unicode="&#xe9;" horiz-adv-x="909" d="M12 278q0 230 178 446q178 217 411 217q91 0 152 -46q61 -45 61 -134q0 -115 -140 -235q-139 -120 -392 -155q-12 -56 -12 -97q0 -172 141 -172q106 0 232 189l59 -35q-81 -147 -176 -216q-94 -69 -201 -69q-130 0 -222 82q-91 82 -91 225zM297 438q137 32 235 128 q99 97 99 239q0 74 -60 74q-74 0 -154 -125q-79 -124 -120 -316zM390 1053l271 285q30 33 59 58t70 25q38 0 67 -29t29 -69q0 -49 -96 -102l-300 -168h-100zM446 0zM574 1053zM574 1053z" />
<glyph unicode="&#xea;" horiz-adv-x="909" d="M12 278q0 230 178 446q178 217 411 217q91 0 152 -46q61 -45 61 -134q0 -115 -140 -235q-139 -120 -392 -155q-12 -56 -12 -97q0 -172 141 -172q106 0 232 189l59 -35q-81 -147 -176 -216q-94 -69 -201 -69q-130 0 -222 82q-91 82 -91 225zM230 1053l336 352h166 l176 -352h-104l-180 193l-278 -193h-116zM297 438q137 32 235 128q99 97 99 239q0 74 -60 74q-74 0 -154 -125q-79 -124 -120 -316zM446 0zM574 1053zM574 1053z" />
<glyph unicode="&#xeb;" horiz-adv-x="909" d="M12 278q0 230 178 446q178 217 411 217q91 0 152 -46q61 -45 61 -134q0 -115 -140 -235q-139 -120 -392 -155q-12 -56 -12 -97q0 -172 141 -172q106 0 232 189l59 -35q-81 -147 -176 -216q-94 -69 -201 -69q-130 0 -222 82q-91 82 -91 225zM228 1198q0 59 38 98 q39 39 95 39q55 0 94 -40t39 -97q0 -56 -39 -93q-39 -36 -96 -36q-54 0 -93 37q-38 38 -38 92zM297 438q137 32 235 128q99 97 99 239q0 74 -60 74q-74 0 -154 -125q-79 -124 -120 -316zM446 0zM574 1053zM574 1053zM654 1198q0 59 38 98q39 39 95 39q55 0 94 -40t39 -97 q0 -56 -39 -93q-39 -36 -96 -36q-52 0 -92 36q-39 37 -39 93z" />
<glyph unicode="&#xec;" horiz-adv-x="569" d="M0 941zM4 108q0 46 33 166l102 378q25 89 25 110q0 65 -107 65h-14v55q250 18 414 59l-193 -703q-14 -53 -14 -93q0 -14 9 -23t24 -9q48 0 154 162l47 -29q-116 -177 -186 -226t-150 -49q-71 0 -108 34q-36 34 -36 103zM102 1333q0 30 27 59q28 29 67 29q59 0 118 -78 l220 -290h-92l-251 166q-89 59 -89 114zM367 1053zM367 1053z" />
<glyph unicode="&#xed;" horiz-adv-x="569" d="M0 941zM4 108q0 46 33 166l102 378q25 89 25 110q0 65 -107 65h-14v55q250 18 414 59l-193 -703q-14 -53 -14 -93q0 -14 9 -23t24 -9q48 0 154 162l47 -29q-116 -177 -186 -226t-150 -49q-71 0 -108 34q-36 34 -36 103zM183 1053l271 285q30 33 59 58t70 25q38 0 67 -29 t29 -69q0 -49 -96 -102l-300 -168h-100zM367 1053zM367 1053z" />
<glyph unicode="&#xee;" horiz-adv-x="569" d="M0 941zM4 108q0 46 33 166l102 378q25 89 25 110q0 65 -107 65h-14v55q250 18 414 59l-193 -703q-14 -53 -14 -93q0 -14 9 -23t24 -9q48 0 154 162l47 -29q-116 -177 -186 -226t-150 -49q-71 0 -108 34q-36 34 -36 103zM23 1053l336 352h166l176 -352h-104l-180 193 l-278 -193h-116zM367 1053zM367 1053z" />
<glyph unicode="&#xef;" horiz-adv-x="569" d="M0 941zM4 108q0 46 33 166l102 378q25 89 25 110q0 65 -107 65h-14v55q250 18 414 59l-193 -703q-14 -53 -14 -93q0 -14 9 -23t24 -9q48 0 154 162l47 -29q-116 -177 -186 -226t-150 -49q-71 0 -108 34q-36 34 -36 103zM21 1198q0 59 38 98q39 39 95 39q55 0 94 -40 t39 -97q0 -56 -39 -93q-39 -36 -96 -36q-54 0 -93 37q-38 38 -38 92zM367 1053zM367 1053zM447 1198q0 59 38 98q39 39 95 39q55 0 94 -40t39 -97q0 -56 -39 -93q-39 -36 -96 -36q-52 0 -92 36q-39 37 -39 93z" />
<glyph unicode="&#xf0;" d="M-8 282q0 244 180 451q180 208 393 208q39 0 73 -17q35 -17 73 -74q-2 162 -129 317l-248 -130l-66 63l254 135q-120 115 -242 134l90 55q145 -19 273 -125l220 119l70 -66l-220 -116q193 -205 193 -464q0 -332 -175 -567q-175 -234 -414 -234q-150 0 -238 91 q-87 92 -87 220zM234 168q0 -135 106 -135q135 0 229 262q95 263 95 458q0 126 -96 126q-140 0 -237 -267t-97 -444z" />
<glyph unicode="&#xf1;" horiz-adv-x="1139" d="M-12 0l146 520q65 227 65 255q0 33 -25 42q-24 10 -88 10v55q167 0 409 59l-128 -400q119 181 217 290q98 110 231 110q149 0 149 -165q0 -76 -91 -342q-63 -178 -76 -227q-13 -48 -13 -55q0 -23 7 -31t26 -8q39 0 139 146l47 -26q-89 -151 -163 -207q-74 -55 -156 -55 q-145 0 -145 135q0 87 89 357q55 163 72 213q18 50 18 70q0 25 -13 36q-12 12 -36 12q-68 0 -181 -168q-113 -167 -187 -388q-37 -118 -67 -238h-246zM296 1095q53 245 246 245q56 0 167 -46q111 -45 136 -45q33 0 56 17t51 74h83q-64 -245 -238 -245q-58 0 -167 45 q-108 46 -147 46q-68 0 -104 -91h-83zM440 0zM622 1053zM622 1053z" />
<glyph unicode="&#xf2;" d="M-8 278q0 246 178 454q178 209 418 209q131 0 224 -84q94 -83 94 -234q0 -232 -171 -442q-170 -210 -411 -210q-131 0 -232 79q-100 80 -100 228zM234 172q0 -139 106 -139q125 0 224 266q100 266 100 451q0 129 -99 129q-136 0 -234 -264q-97 -264 -97 -443zM338 1333 q0 30 27 59q28 29 67 29q59 0 118 -78l220 -290h-92l-251 166q-89 59 -89 114zM603 1053zM603 1053z" />
<glyph unicode="&#xf3;" d="M-8 278q0 246 178 454q178 209 418 209q131 0 224 -84q94 -83 94 -234q0 -232 -171 -442q-170 -210 -411 -210q-131 0 -232 79q-100 80 -100 228zM234 172q0 -139 106 -139q125 0 224 266q100 266 100 451q0 129 -99 129q-136 0 -234 -264q-97 -264 -97 -443zM419 1053 l271 285q30 33 59 58t70 25q38 0 67 -29t29 -69q0 -49 -96 -102l-300 -168h-100zM603 1053zM603 1053z" />
<glyph unicode="&#xf4;" d="M-8 278q0 246 178 454q178 209 418 209q131 0 224 -84q94 -83 94 -234q0 -232 -171 -442q-170 -210 -411 -210q-131 0 -232 79q-100 80 -100 228zM234 172q0 -139 106 -139q125 0 224 266q100 266 100 451q0 129 -99 129q-136 0 -234 -264q-97 -264 -97 -443zM259 1053 l336 352h166l176 -352h-104l-180 193l-278 -193h-116zM603 1053zM603 1053z" />
<glyph unicode="&#xf5;" d="M-8 278q0 246 178 454q178 209 418 209q131 0 224 -84q94 -83 94 -234q0 -232 -171 -442q-170 -210 -411 -210q-131 0 -232 79q-100 80 -100 228zM234 172q0 -139 106 -139q125 0 224 266q100 266 100 451q0 129 -99 129q-136 0 -234 -264q-97 -264 -97 -443zM277 1095 q53 245 246 245q56 0 167 -46q111 -45 136 -45q33 0 56 17t51 74h83q-64 -245 -238 -245q-58 0 -167 45q-108 46 -147 46q-68 0 -104 -91h-83zM603 1053zM603 1053z" />
<glyph unicode="&#xf6;" d="M-8 278q0 246 178 454q178 209 418 209q131 0 224 -84q94 -83 94 -234q0 -232 -171 -442q-170 -210 -411 -210q-131 0 -232 79q-100 80 -100 228zM234 172q0 -139 106 -139q125 0 224 266q100 266 100 451q0 129 -99 129q-136 0 -234 -264q-97 -264 -97 -443zM257 1198 q0 59 38 98q39 39 95 39q55 0 94 -40t39 -97q0 -56 -39 -93q-39 -36 -96 -36q-54 0 -93 37q-38 38 -38 92zM603 1053zM603 1053zM683 1198q0 59 38 98q39 39 95 39q55 0 94 -40t39 -97q0 -56 -39 -93q-39 -36 -96 -36q-52 0 -92 36q-39 37 -39 93z" />
<glyph unicode="&#xf7;" horiz-adv-x="1167" d="M64 430v180h1040v-180h-1040zM432 88q0 61 44 105q45 45 112 45q60 0 104 -43q44 -42 44 -107q0 -68 -44 -111t-112 -43q-72 0 -110 48t-38 106zM432 956q0 61 44 105q45 45 112 45q63 0 105 -44q43 -43 43 -106q0 -64 -42 -109t-114 -45t-110 48t-38 106z" />
<glyph unicode="&#xf8;" d="M-8 278q0 240 180 451q181 212 417 212q41 0 84 -11l124 219h74l-134 -244q169 -75 169 -279q0 -249 -174 -452t-407 -203q-54 0 -108 13l-131 -237h-82l147 264q-159 80 -159 267zM234 159l395 689q-27 31 -65 31q-141 0 -236 -268q-94 -267 -94 -452zM262 64 q25 -31 76 -31q132 0 229 265q97 266 97 443v26z" />
<glyph unicode="&#xf9;" horiz-adv-x="1139" d="M0 941zM31 128q0 74 74 327q78 256 78 309q0 63 -113 63v55q110 4 230 25t199 34l-199 -640q-27 -87 -27 -132q0 -51 46 -51q54 0 141 105q61 71 99 140q96 167 206 549h242q-60 -205 -119 -409q-92 -308 -92 -349t33 -41q44 0 143 146l43 -27q-147 -261 -326 -261 q-68 0 -102 33q-33 34 -33 86q0 72 43 217q-135 -192 -224 -264q-88 -72 -181 -72q-77 0 -119 41t-42 116zM421 1333q0 30 27 59q28 29 67 29q59 0 118 -78l220 -290h-92l-251 166q-89 59 -89 114zM686 1053zM686 1053zM819 0z" />
<glyph unicode="&#xfa;" horiz-adv-x="1139" d="M0 941zM31 128q0 74 74 327q78 256 78 309q0 63 -113 63v55q110 4 230 25t199 34l-199 -640q-27 -87 -27 -132q0 -51 46 -51q54 0 141 105q61 71 99 140q96 167 206 549h242q-60 -205 -119 -409q-92 -308 -92 -349t33 -41q44 0 143 146l43 -27q-147 -261 -326 -261 q-68 0 -102 33q-33 34 -33 86q0 72 43 217q-135 -192 -224 -264q-88 -72 -181 -72q-77 0 -119 41t-42 116zM502 1053l271 285q30 33 59 58t70 25q38 0 67 -29t29 -69q0 -49 -96 -102l-300 -168h-100zM686 1053zM686 1053zM819 0z" />
<glyph unicode="&#xfb;" horiz-adv-x="1139" d="M0 941zM31 128q0 74 74 327q78 256 78 309q0 63 -113 63v55q110 4 230 25t199 34l-199 -640q-27 -87 -27 -132q0 -51 46 -51q54 0 141 105q61 71 99 140q96 167 206 549h242q-60 -205 -119 -409q-92 -308 -92 -349t33 -41q44 0 143 146l43 -27q-147 -261 -326 -261 q-68 0 -102 33q-33 34 -33 86q0 72 43 217q-135 -192 -224 -264q-88 -72 -181 -72q-77 0 -119 41t-42 116zM342 1053l336 352h166l176 -352h-104l-180 193l-278 -193h-116zM686 1053zM686 1053zM819 0z" />
<glyph unicode="&#xfc;" horiz-adv-x="1139" d="M0 941zM31 128q0 74 74 327q78 256 78 309q0 63 -113 63v55q110 4 230 25t199 34l-199 -640q-27 -87 -27 -132q0 -51 46 -51q54 0 141 105q61 71 99 140q96 167 206 549h242q-60 -205 -119 -409q-92 -308 -92 -349t33 -41q44 0 143 146l43 -27q-147 -261 -326 -261 q-68 0 -102 33q-33 34 -33 86q0 72 43 217q-135 -192 -224 -264q-88 -72 -181 -72q-77 0 -119 41t-42 116zM340 1198q0 59 38 98q39 39 95 39q55 0 94 -40t39 -97q0 -56 -39 -93q-39 -36 -96 -36q-54 0 -93 37q-38 38 -38 92zM686 1053zM686 1053zM766 1198q0 59 38 98 q39 39 95 39q55 0 94 -40t39 -97q0 -56 -39 -93q-39 -36 -96 -36q-52 0 -92 36q-39 37 -39 93zM819 0z" />
<glyph unicode="&#xfd;" horiz-adv-x="909" d="M-197 -292q0 42 32 77t79 35q42 0 103 -38q61 -34 80 -34q48 0 117 105t69 208q0 66 -46 299q-40 194 -62 270q-38 142 -62 172q-24 34 -86 34v55q179 16 304 50q75 -178 159 -710q172 343 172 402q0 43 -58 86q-55 40 -55 111q0 40 35 75q35 36 86 36q55 0 90 -34 q35 -33 35 -100q0 -219 -272 -682q-187 -307 -325 -424q-137 -117 -266 -117q-56 0 -93 39q-36 39 -36 85zM0 941zM356 1053l271 285q30 33 59 58t70 25q38 0 67 -29t29 -69q0 -49 -96 -102l-300 -168h-100zM540 1053zM540 1053z" />
<glyph unicode="&#xfe;" d="M-246 -361q85 0 109 37t47 126l352 1364q19 68 19 85q0 33 -19 46q-18 13 -78 13h-32v55q256 26 337 41q81 16 81 18l-200 -707q158 224 314 224q222 0 222 -261q0 -247 -178 -478t-384 -231q-35 0 -73 13q-37 13 -63 32l-61 -235q-14 -55 -14 -76q0 -46 33 -56 q34 -10 99 -10v-55h-511v55zM230 118q0 -43 23 -60t55 -17q130 0 235 246q105 247 105 405q0 106 -75 106q-153 0 -248 -311t-95 -369z" />
<glyph unicode="&#xff;" horiz-adv-x="909" d="M-197 -292q0 42 32 77t79 35q42 0 103 -38q61 -34 80 -34q48 0 117 105t69 208q0 66 -46 299q-40 194 -62 270q-38 142 -62 172q-24 34 -86 34v55q179 16 304 50q75 -178 159 -710q172 343 172 402q0 43 -58 86q-55 40 -55 111q0 40 35 75q35 36 86 36q55 0 90 -34 q35 -33 35 -100q0 -219 -272 -682q-187 -307 -325 -424q-137 -117 -266 -117q-56 0 -93 39q-36 39 -36 85zM0 941zM194 1198q0 59 38 98q39 39 95 39q55 0 94 -40t39 -97q0 -56 -39 -93q-39 -36 -96 -36q-54 0 -93 37q-38 38 -38 92zM540 1053zM540 1053zM620 1198 q0 59 38 98q39 39 95 39q55 0 94 -40t39 -97q0 -56 -39 -93q-39 -36 -96 -36q-52 0 -92 36q-39 37 -39 93z" />
<glyph unicode="&#x152;" horiz-adv-x="1933" d="M50 469q0 327 245 624t646 297q70 0 175 -7q106 -7 140 -7h689l-92 -384l-53 12v64q0 126 -87 184t-245 58q-60 0 -80 -24t-32 -69l-128 -463h68q112 0 188 40t135 168l50 -6l-145 -556l-49 10q8 47 8 110q0 98 -63 127q-62 30 -211 41l-133 -481q-20 -78 11 -110 q32 -31 129 -31h30q323 0 505 334l53 -10l-124 -390h-633q-93 0 -251 -7q-157 -7 -255 -7q-227 0 -359 125t-132 358zM351 337q0 -119 60 -200t181 -81q85 0 136 50t80 153l220 794q34 126 10 196q-23 71 -128 71q-245 0 -402 -350q-157 -349 -157 -633z" />
<glyph unicode="&#x153;" horiz-adv-x="1479" d="M12 320q0 201 178 411t415 210q153 0 238 -128q75 62 143 95t148 33q234 0 234 -190q0 -128 -144 -229q-143 -100 -384 -147q-16 -75 -16 -117q0 -156 136 -156q60 0 114 33t123 140l59 -30q-138 -274 -386 -274q-132 0 -231 112q-113 -112 -309 -112q-122 0 -220 82 t-98 267zM254 205q0 -172 111 -172q127 0 223 266q96 267 96 431q0 149 -116 149q-119 0 -217 -266q-97 -266 -97 -408zM855 442q148 33 239 134q91 102 91 218q0 85 -72 85q-66 0 -130 -115q-63 -114 -128 -322z" />
<glyph unicode="&#x178;" horiz-adv-x="1251" d="M0 1412zM151 0v51q107 9 145 36q38 28 65 126l119 432l-177 543q-15 47 -37 86q-21 40 -115 51v51h578v-51q-34 0 -90 -13q-56 -12 -56 -59q0 -41 21 -103l139 -424l263 376q34 49 46 75t12 68q0 35 -30 57q-29 23 -111 23v51h428v-51q-99 -19 -184 -143l-390 -548 l-105 -387q-18 -69 -18 -103q0 -58 41 -76q41 -17 114 -17v-51h-658zM471 1637q0 59 38 98q39 39 95 39q55 0 94 -40t39 -97q0 -56 -39 -93q-39 -36 -96 -36q-54 0 -93 37q-38 38 -38 92zM817 1492zM817 1492zM897 1637q0 59 38 98q39 39 95 39q55 0 94 -40t39 -97 q0 -56 -39 -93q-39 -36 -96 -36q-52 0 -92 36q-39 37 -39 93z" />
<glyph unicode="&#x2c6;" horiz-adv-x="682" d="M80 1056l336 352h166l176 -352h-104l-180 193l-278 -193h-116zM424 1056z" />
<glyph unicode="&#x2dc;" horiz-adv-x="682" d="M96 1098q53 245 246 245q56 0 167 -46q111 -45 136 -45q33 0 56 17t51 74h83q-64 -245 -238 -245q-58 0 -167 45q-108 46 -147 46q-68 0 -104 -91h-83zM422 1056z" />
<glyph unicode="&#x2000;" horiz-adv-x="948" />
<glyph unicode="&#x2001;" horiz-adv-x="1896" />
<glyph unicode="&#x2002;" horiz-adv-x="948" />
<glyph unicode="&#x2003;" horiz-adv-x="1896" />
<glyph unicode="&#x2004;" horiz-adv-x="632" />
<glyph unicode="&#x2005;" horiz-adv-x="474" />
<glyph unicode="&#x2006;" horiz-adv-x="316" />
<glyph unicode="&#x2007;" horiz-adv-x="316" />
<glyph unicode="&#x2008;" horiz-adv-x="237" />
<glyph unicode="&#x2009;" horiz-adv-x="379" />
<glyph unicode="&#x200a;" horiz-adv-x="105" />
<glyph unicode="&#x2010;" horiz-adv-x="682" d="M5 337l47 237h497l-47 -237h-497z" />
<glyph unicode="&#x2011;" horiz-adv-x="682" d="M5 337l47 237h497l-47 -237h-497z" />
<glyph unicode="&#x2012;" horiz-adv-x="682" d="M5 337l47 237h497l-47 -237h-497z" />
<glyph unicode="&#x2013;" d="M-80 361l33 185h1023l-33 -185h-1023z" />
<glyph unicode="&#x2014;" horiz-adv-x="2048" d="M-80 361l33 185h2047l-33 -185h-2047z" />
<glyph unicode="&#x2018;" horiz-adv-x="682" d="M257 960q0 131 100 247q99 115 291 205l26 -47q-242 -126 -242 -236q0 -35 73 -85q72 -51 72 -124q0 -66 -39 -108q-39 -43 -107 -43q-77 0 -125 52q-49 52 -49 139z" />
<glyph unicode="&#x2019;" horiz-adv-x="682" d="M207 816q242 126 242 236q0 35 -73 85q-72 51 -72 124q0 66 39 108q39 43 107 43q77 0 125 -52q49 -52 49 -139q0 -131 -100 -247q-99 -115 -291 -205z" />
<glyph unicode="&#x201a;" horiz-adv-x="682" d="M-4 -312q242 126 242 236q0 35 -73 85q-72 51 -72 124q0 66 39 108q39 43 107 43q77 0 125 -52q49 -52 49 -139q0 -131 -100 -247q-99 -115 -291 -205z" />
<glyph unicode="&#x201c;" d="M103 960q0 122 91 236t300 216l26 -47q-242 -126 -242 -236q0 -35 73 -85q72 -51 72 -124q0 -66 -40 -108q-40 -43 -106 -43q-75 0 -124 50q-50 50 -50 141zM631 960q0 136 104 250q103 114 287 202l26 -47q-242 -126 -242 -236q0 -35 73 -85q72 -51 72 -124 q0 -66 -40 -108q-40 -43 -106 -43q-73 0 -123 48q-51 48 -51 143z" />
<glyph unicode="&#x201d;" d="M111 816q242 126 242 236q0 35 -73 85q-72 51 -72 124q0 66 40 108q40 43 106 43q73 0 123 -48q51 -48 51 -143q0 -136 -104 -250q-103 -114 -287 -202zM639 816q242 126 242 236q0 35 -73 85q-72 51 -72 124q0 66 40 108q40 43 106 43q75 0 124 -50q50 -50 50 -141 q0 -122 -91 -236t-300 -216z" />
<glyph unicode="&#x201e;" d="M-114 -312q242 126 242 236q0 35 -73 85q-72 51 -72 124q0 66 40 108q40 43 106 43q73 0 123 -48q51 -48 51 -143q0 -136 -104 -250q-103 -114 -287 -202zM414 -312q242 126 242 236q0 35 -73 85q-72 51 -72 124q0 66 40 108q40 43 106 43q75 0 124 -50q50 -50 50 -141 q0 -122 -91 -236t-300 -216z" />
<glyph unicode="&#x2022;" horiz-adv-x="717" d="M0 718q0 147 106 252t257 105q147 0 252 -107q105 -106 105 -256q0 -148 -107 -253q-106 -104 -256 -104t-254 106q-103 106 -103 257z" />
<glyph unicode="&#x2026;" horiz-adv-x="2048" d="M80 130q0 61 43 105t111 44q69 0 109 -44t40 -105q0 -64 -43 -109q-42 -45 -111 -45q-66 0 -108 45q-41 45 -41 109zM752 130q0 65 45 107t109 42q69 0 109 -44t40 -105q0 -64 -44 -109q-43 -45 -110 -45q-66 0 -108 45q-41 45 -41 109zM1424 130q0 61 43 105t111 44 q69 0 109 -44t40 -105q0 -64 -43 -109q-42 -45 -111 -45q-66 0 -108 45q-41 45 -41 109z" />
<glyph unicode="&#x202f;" horiz-adv-x="379" />
<glyph unicode="&#x2039;" horiz-adv-x="682" d="M62 450v19q397 280 470 342q44 39 59 39q31 0 31 -28q0 -48 -104 -157l-200 -210l83 -180q61 -134 61 -176q0 -33 -27 -33q-15 0 -53 44q-85 96 -320 340z" />
<glyph unicode="&#x203a;" horiz-adv-x="682" d="M19 94q0 48 104 157l200 210l-83 180q-61 134 -61 176q0 33 27 33q15 0 53 -44q85 -96 320 -340v-19q-397 -280 -470 -342q-44 -39 -59 -39q-31 0 -31 28z" />
<glyph unicode="&#x205f;" horiz-adv-x="474" />
<glyph unicode="&#x20ac;" d="M-70 522l45 102h174q8 81 29 160h-137l49 102h119q68 210 224 364q156 155 363 155q90 0 167 -30q77 -29 94 -29q42 0 63 59h45l-70 -400l-53 8q0 132 -53 226t-158 94q-216 0 -352 -447h402l-45 -102h-384q-20 -80 -32 -160h349l-45 -102h-319q-4 -44 -4 -78 q0 -195 58 -277q58 -81 176 -81q164 0 305 192l53 -35q-108 -153 -206 -209q-97 -56 -212 -56q-196 0 -314 146q-118 147 -118 375v23h-213z" />
<glyph unicode="&#x2122;" horiz-adv-x="2048" d="M73 1200v176h719v-176h-42q-31 131 -140 131h-97v-646v-20q0 -38 12 -53q12 -14 42 -18l47 -5v-45h-363v45q74 7 87 23q14 17 14 73v646h-100q-107 0 -137 -131h-42zM916 544v45q12 0 59 14q48 15 48 114v502q-33 107 -107 112v45h225l299 -621l328 621h217v-45 q-65 0 -86 -29q-21 -28 -21 -83v-534v-20q0 -59 59 -69l48 -7v-45h-375v45l57 7q50 6 50 62v27v486l-319 -627h-23l-296 624v-451q0 -77 29 -103q30 -25 78 -25v-45h-270z" />
<glyph unicode="&#x25fc;" horiz-adv-x="940" d="M0 0v940h940v-940h-940z" />
</font>
</defs>
</svg>
