<?xml version="1.0" standalone="no"?>
<!DOCTYPE svg PUBLIC "-//W3C//DTD SVG 1.1//EN" "http://www.w3.org/Graphics/SVG/1.1/DTD/svg11.dtd" >
<svg xmlns="http://www.w3.org/2000/svg" xmlns:xlink="http://www.w3.org/1999/xlink" version="1.1">
<metadata></metadata>
<defs>
<font id="times_new_roman_cyrregular" horiz-adv-x="1024" >
<font-face units-per-em="2048" ascent="1638" descent="-410" />
<missing-glyph horiz-adv-x="512" />
<glyph horiz-adv-x="0" />
<glyph horiz-adv-x="682" />
<glyph unicode=" "  horiz-adv-x="512" />
<glyph unicode="&#x09;" horiz-adv-x="512" />
<glyph unicode="&#xa0;" horiz-adv-x="512" />
<glyph unicode="!" horiz-adv-x="555" d="M169 85q0 47 33 80t80 33q46 0 79 -33t33 -80t-33 -80t-79 -33q-47 0 -80 33t-33 80zM171 1289q0 57 30.5 103t84.5 46t85.5 -42t31.5 -108q0 -31 -10 -108l-92 -810h-36l-86 818q-8 78 -8 101z" />
<glyph unicode="&#x22;" horiz-adv-x="831" d="M132 1315q0 123 97 123q44 0 73.5 -29.5t29.5 -77.5q0 -41 -26 -182l-54 -295h-43l-55 295q-22 122 -22 166zM497 1316q0 122 102 122q49 0 74.5 -32.5t25.5 -73.5q0 -88 -19 -186l-57 -292h-48l-54 292q-24 128 -24 170z" />
<glyph unicode="#" horiz-adv-x="1366" d="M89 404v122h221l76 370h-297v120h322l85 407h124l-84 -407h421l86 407h121l-84 -407h197v-120h-222l-77 -370h299v-122h-324l-84 -404h-124l85 404h-422l-83 -404h-124l85 404h-197zM433 526h422l76 370h-420z" />
<glyph unicode="$" d="M106 66v294h39q18 -146 115 -227.5t210 -86.5v615q-364 196 -364 435q0 128 94 223t270 110v64h63v-64q167 -10 336 -87v-310h-38q-2 149 -88 234t-210 96v-526q11 -7 130 -83t170.5 -134.5t75.5 -121t24 -134.5q0 -137 -99 -249.5t-301 -127.5v-130h-63v130 q-189 5 -364 80zM260 1153q0 -140 210 -277v487q-93 -10 -151.5 -70.5t-58.5 -139.5zM533 48q112 16 182 88t70 168q0 85 -51 154t-201 164v-574z" />
<glyph unicode="%" horiz-adv-x="1685" d="M42 1071q0 155 78 256.5t187 101.5q111 0 190 -100.5t79 -260.5q0 -164 -79 -265t-184 -101q-115 0 -193 103.5t-78 265.5zM161 1069q0 -167 37.5 -250.5t112.5 -83.5q74 0 110.5 81t36.5 243q0 171 -37.5 256t-113.5 85q-73 0 -109.5 -82.5t-36.5 -248.5zM308 -57 l978 1493h89l-979 -1493h-88zM1110 357q0 165 82 261t183 96q111 0 190 -100.5t79 -259.5q0 -176 -84 -271t-179 -95q-103 0 -187 95.5t-84 273.5zM1228 354q0 -166 37.5 -249.5t112.5 -83.5q74 0 111 81t37 243q0 170 -37.5 255t-113.5 85q-73 0 -110 -82.5t-37 -248.5z " />
<glyph unicode="&#x26;" horiz-adv-x="1579" d="M67 290q0 136 94 256t324 245q-78 157 -78 309q0 147 101 242.5t238 95.5q118 0 196 -70t78 -171q0 -228 -315 -372q84 -176 268 -437q163 196 163 371q0 107 -95 117v37h432v-37q-69 -3 -124 -41t-147 -222q-75 -149 -179 -287q167 -193 322 -193q63 0 109.5 43.5 t57.5 101.5l33 -23q-31 -150 -120 -218t-185 -68t-180 50.5t-180 150.5q-207 -201 -462 -201q-148 0 -249.5 91t-101.5 230zM280 376q0 -109 77 -193t182 -84q156 0 288 127q-144 168 -312 492q-235 -116 -235 -342zM596 1175q0 -147 76 -286q227 111 227 296 q0 87 -42 135.5t-111 48.5q-75 0 -112.5 -48.5t-37.5 -145.5z" />
<glyph unicode="'" horiz-adv-x="363" d="M81 1309q0 129 97 129q48 0 76 -31t28 -74q0 -41 -26 -184l-54 -296h-44l-54 296q-23 124 -23 160z" />
<glyph unicode="(" horiz-adv-x="682" d="M92 520q0 338 157 582.5t401 366.5v-35q-364 -208 -364 -912q0 -715 364 -916v-38q-558 314 -558 952z" />
<glyph unicode=")" horiz-adv-x="682" d="M32 -394q364 207 364 909q0 364 -89 586.5t-275 328.5v39q558 -314 558 -952q0 -314 -149.5 -568t-408.5 -381v38z" />
<glyph unicode="*" d="M146 883q0 50 44.5 77.5t189.5 60.5q64 14 93 34q-38 21 -129 40q-137 30 -167.5 62t-30.5 65q0 31 23.5 52t52.5 21q61 0 135 -77q107 -112 143 -131q-1 55 -34 153q-33 97 -33 143q0 36 24 65t57 29q36 0 59 -29t23 -64q0 -48 -20 -111q-42 -135 -43 -186 q53 35 121 111q86 97 152 97q27 0 50.5 -22.5t23.5 -52.5q0 -84 -177 -122q-111 -25 -152 -43q25 -19 120 -40q120 -27 163.5 -55t43.5 -75q0 -31 -21.5 -52t-48.5 -21q-68 0 -161 102q-75 83 -114 106q0 -55 32 -152q29 -91 29 -132t-22.5 -71t-56.5 -30q-35 0 -58.5 30 t-23.5 68q0 46 34 143q29 86 33 144q-43 -22 -132 -120q-81 -88 -144 -88q-32 0 -55 21.5t-23 49.5z" />
<glyph unicode="+" horiz-adv-x="1366" d="M140 638v129h478v479h129v-479h480v-129h-480v-476h-129v476h-478z" />
<glyph unicode="," horiz-adv-x="555" d="M128 -303q224 88 224 262q0 21 -7.5 31t-23.5 10q-8 0 -27 -10q-33 -18 -56 -18q-45 0 -77 32.5t-32 77.5q0 51 38 86.5t92 35.5q76 0 121 -61t45 -146q0 -236 -297 -339v39z" />
<glyph unicode="-" horiz-adv-x="682" d="M87 396v161h508v-161h-508z" />
<glyph unicode="." horiz-adv-x="555" d="M164 86q0 49 34 81t79 32q46 0 80 -32t34 -81q0 -47 -33.5 -80.5t-80.5 -33.5q-46 0 -79.5 33.5t-33.5 80.5z" />
<glyph unicode="/" horiz-adv-x="575" d="M0 -31l439 1500h136l-439 -1500h-136z" />
<glyph unicode="0" d="M66 713q0 332 138 524t298 192q197 0 325.5 -205.5t128.5 -517.5q0 -356 -141.5 -543t-290.5 -187q-117 0 -225.5 88t-170.5 249t-62 400zM264 715q0 -337 63.5 -505.5t189.5 -168.5q111 0 176.5 154.5t65.5 497.5q0 339 -63 508t-190 169q-121 0 -181.5 -163.5 t-60.5 -491.5z" />
<glyph unicode="1" d="M237 1264l332 165h38v-1224q0 -96 36.5 -132t135.5 -36v-37h-523v37q106 0 141 36t35 132v852q0 128 -14 167t-60 39q-45 0 -102 -32z" />
<glyph unicode="2" d="M58 0v37q266 234 415.5 416t195.5 289.5t46 222.5q0 143 -93.5 223t-199.5 80q-191 0 -284 -222h-39q77 383 399 383q168 0 277 -114t109 -255q0 -124 -58.5 -246.5t-229.5 -314.5t-343 -348h409q142 0 192 28.5t78 82.5h39l-100 -262h-813z" />
<glyph unicode="3" d="M118 84q0 30 24 52.5t53 22.5q40 0 93 -26q149 -74 212 -74q101 0 172.5 79.5t71.5 206.5q0 143 -98 246.5t-275 103.5h-29v37q159 27 239 118t80 202q0 102 -68.5 166.5t-173.5 64.5q-159 0 -245 -170l-34 16q108 300 364 300q135 0 227 -81t92 -203q0 -155 -183 -315 q125 -50 187.5 -143t62.5 -229q0 -218 -159.5 -350t-397.5 -132q-215 0 -215 108z" />
<glyph unicode="4" d="M46 355v163l637 911h107v-920h189v-154h-189v-355h-172v355h-572zM130 509h488v696z" />
<glyph unicode="5" d="M126 112q0 31 21.5 51t47.5 20q45 0 108 -41q95 -61 172 -61q108 0 202 96t94 228q0 189 -162.5 326.5t-433.5 142.5l259 532h490l-76 -157h-414l-94 -203q285 -53 422.5 -203t137.5 -344q0 -219 -169.5 -371t-380.5 -152q-88 0 -156 39.5t-68 96.5z" />
<glyph unicode="6" d="M96 561q0 365 252 624q242 250 579 244v-40q-200 0 -372 -172.5t-241 -440.5q68 54 141 80.5t150 26.5q145 0 248 -111t103 -294q0 -206 -121.5 -354t-298.5 -148q-189 0 -314.5 170.5t-125.5 414.5zM286 542q0 -200 72.5 -351.5t198.5 -151.5q93 0 157 83.5t64 239.5 q0 186 -67.5 308t-193.5 122q-49 0 -103 -20.5t-113 -61.5q-15 -95 -15 -168z" />
<glyph unicode="7" d="M87 1089l127 317h731l-452 -1430h-118l414 1270h-414q-152 0 -253 -171z" />
<glyph unicode="8" d="M119 325q0 99 58.5 183t216.5 208q-162 123 -210 211.5t-48 172.5q0 138 104 233.5t261 95.5q158 0 265 -92.5t107 -207.5q0 -177 -283 -347q171 -132 241.5 -228.5t70.5 -218.5q0 -150 -111.5 -254.5t-277.5 -104.5t-280 102.5t-114 246.5zM270 343q0 -127 69.5 -216.5 t187.5 -89.5q103 0 170.5 66.5t67.5 160.5q0 91 -65.5 171t-174.5 172l-85 72q-170 -144 -170 -336zM281 1160q0 -127 186 -278l72 -58q194 141 194 306q0 119 -61.5 182t-169.5 63q-93 0 -157 -61.5t-64 -153.5z" />
<glyph unicode="9" d="M75 942q0 201 121.5 344t296.5 143q193 0 316.5 -167t123.5 -416q0 -230 -108 -425.5t-291.5 -320t-385.5 -124.5q-31 0 -53 5v38q223 0 394 187.5t225 419.5q-72 -52 -143 -78t-142 -26q-152 0 -253 115t-101 305zM251 1065q0 -190 65 -321.5t202 -131.5q49 0 102 21.5 t109 64.5q11 86 11 160q0 226 -69.5 367.5t-195.5 141.5q-96 0 -160 -78.5t-64 -223.5z" />
<glyph unicode=":" horiz-adv-x="555" d="M166 86q0 49 34 81t79 32q46 0 80 -32t34 -81q0 -47 -33.5 -80.5t-80.5 -33.5q-46 0 -79.5 33.5t-33.5 80.5zM167 862q0 44 31.5 77t79.5 33t80.5 -32.5t32.5 -78.5q0 -45 -32.5 -78t-78.5 -33q-47 0 -80 33t-33 79z" />
<glyph unicode=";" horiz-adv-x="555" d="M128 -303q224 88 224 262q0 21 -7.5 31t-23.5 10q-8 0 -27 -10q-33 -18 -56 -18q-45 0 -77 32.5t-32 77.5q0 51 38 86.5t92 35.5q76 0 121 -61t45 -146q0 -236 -297 -339v39zM167 862q0 45 31.5 77.5t78.5 32.5q48 0 81 -32.5t33 -78.5t-33 -78.5t-79 -32.5 q-47 0 -79.5 32.5t-32.5 79.5z" />
<glyph unicode="&#x3c;" horiz-adv-x="1366" d="M141 645v116l1085 456v-139l-912 -375l912 -376v-140z" />
<glyph unicode="=" horiz-adv-x="1366" d="M141 404v129h1085v-129h-1085zM141 872v129h1085v-129h-1085z" />
<glyph unicode="&#x3e;" horiz-adv-x="1366" d="M141 187v140l912 374l-912 376v140l1085 -457v-116z" />
<glyph unicode="?" horiz-adv-x="789" d="M46 1135q0 136 109.5 219.5t243.5 83.5q147 0 247 -95t100 -226q0 -97 -36 -179t-144 -213q-94 -113 -125 -187.5t-31 -189.5v-14h-38q-2 39 -2 59q0 151 78 320q76 166 93 222.5t17 144.5q0 136 -63.5 215.5t-154.5 79.5q-60 0 -111.5 -42.5t-51.5 -94.5q0 -21 31 -79 q33 -63 33 -92q0 -32 -23.5 -58t-51.5 -26q-48 0 -84 47t-36 105zM286 85q0 48 33.5 80.5t79.5 32.5t79 -33t33 -80q0 -46 -33 -79.5t-79 -33.5q-47 0 -80 33.5t-33 79.5z" />
<glyph unicode="@" horiz-adv-x="1878" d="M97 460q0 415 278.5 696.5t665.5 281.5q331 0 523.5 -194t192.5 -492q0 -279 -157.5 -492.5t-394.5 -213.5q-76 0 -114.5 34t-38.5 102q0 57 18 148q-230 -285 -394 -285q-84 0 -132.5 72.5t-48.5 159.5q0 143 87 312.5t222.5 279.5t241.5 110q70 0 113 -34.5t59 -103.5 l33 110l157 22l-117 -399q-93 -318 -93 -381q0 -27 20 -51t54 -24q85 0 187.5 82t170 240.5t67.5 330.5q0 266 -180.5 440.5t-467.5 174.5q-378 0 -618 -288.5t-240 -664.5q0 -354 220.5 -576.5t562.5 -222.5q292 0 496.5 155.5t307.5 397.5h58q-84 -272 -326 -442.5 t-541 -170.5q-373 0 -622.5 251.5t-249.5 634.5zM653 307q0 -53 32 -97t83 -44q96 0 209 122t159 268.5t46 232.5q0 58 -33 100.5t-91 42.5q-131 0 -268 -236.5t-137 -388.5z" />
<glyph unicode="A" horiz-adv-x="1579" d="M26 0v37q60 7 99.5 44.5t90.5 154.5l541 1233h38l556 -1282q37 -86 73.5 -118t123.5 -32v-37h-577v37q148 0 148 99q0 31 -28 95l-106 243h-567l-126 -287q-11 -27 -11 -56q0 -94 151 -94v-37h-406zM452 550h500l-250 573z" />
<glyph unicode="B" horiz-adv-x="1366" d="M88 0v37q91 0 136 24t56.5 59.5t11.5 152.5v861q0 121 -13.5 156.5t-57 56t-133.5 22.5v37h564q305 0 434.5 -110.5t129.5 -264.5q0 -107 -68.5 -194t-186.5 -115q153 -29 235.5 -125.5t82.5 -218.5t-74 -214t-183.5 -128t-288.5 -36h-645zM514 99q83 -27 170 -27 q160 0 248 87t88 215q0 149 -114 232t-297 83q-43 0 -95 -7v-583zM514 778q113 -22 175 -22q110 0 200.5 76.5t90.5 206.5q0 135 -98.5 218t-238.5 83q-60 0 -129 -13v-549z" />
<glyph unicode="C" horiz-adv-x="1473" d="M83 684q0 315 222.5 534.5t544.5 219.5q175 0 339 -76q36 -16 57 -16q50 0 77 93h37l33 -476h-33q-39 206 -182 304t-308 98q-229 0 -377.5 -168t-148.5 -517q0 -307 163 -464.5t394 -157.5q170 0 300 86t192 191l31 -20q-205 -346 -597 -346q-311 0 -527.5 208 t-216.5 507z" />
<glyph unicode="D" horiz-adv-x="1685" d="M66 0v37q93 0 138 23.5t57 59.5t12 153v861q0 120 -13 155.5t-57 57t-137 22.5v37h644q229 0 354 -23.5t252.5 -112t207.5 -241.5t80 -325q0 -168 -77.5 -315t-213.5 -238t-273 -121t-322 -30h-652zM495 102q94 -30 221 -30q285 0 456.5 169.5t171.5 450.5 q0 290 -176 465t-443 175q-123 0 -230 -35v-1195z" />
<glyph unicode="E" horiz-adv-x="1366" d="M74 0v37q90 0 134.5 24.5t56 60t11.5 151.5v861q0 121 -13.5 156.5t-56.5 56t-132 22.5v37h1115l18 -310h-36q-13 92 -54 146t-86.5 68.5t-127.5 14.5h-405v-543h362q184 0 184 205h37v-495h-37q0 127 -48 168t-145 41h-353v-509q0 -69 23.5 -90t90.5 -21h291 q143 0 219.5 57t158.5 213h39l-113 -351h-1133z" />
<glyph unicode="F" horiz-adv-x="1366" d="M88 0v37q86 2 129.5 25t55.5 58t12 153v861q0 120 -13 155.5t-54.5 56t-129.5 23.5v37h1195l14 -303h-38q-13 89 -52 140.5t-104 73t-202 21.5h-392v-553h318q129 0 177.5 33t48.5 164h37v-481h-37q-2 117 -47 158t-179 41h-318v-427q0 -117 11.5 -152.5t55 -58.5 t132.5 -25v-37h-620z" />
<glyph unicode="G" horiz-adv-x="1685" d="M88 659q0 219 122.5 415.5t316.5 280t370 83.5q188 0 360 -77q43 -20 71 -20q55 0 67 97h38l37 -448h-37q-48 176 -200 274t-321 98q-238 0 -402 -175t-164 -484q0 -292 177.5 -474.5t422.5 -182.5q80 0 157.5 26t153.5 77v330q0 121 -11 155.5t-52.5 57.5t-130.5 27v36 h603v-36q-84 -4 -123.5 -29t-51 -66.5t-11.5 -144.5v-362q-189 -100 -307.5 -124t-248.5 -24q-266 0 -445 94t-285 251.5t-106 344.5z" />
<glyph unicode="H" horiz-adv-x="1685" d="M72 0v37q90 0 134.5 24t56 59.5t11.5 152.5v861q0 121 -13.5 156.5t-56.5 56t-132 22.5v37h631v-37q-91 -2 -135 -22t-58 -56t-14 -157v-369h692v369q0 121 -13.5 156.5t-57.5 56.5t-139 22v37h636v-37q-89 -2 -132.5 -21.5t-57.5 -56t-14 -157.5v-861q0 -117 12 -152.5 t56.5 -59.5t135.5 -24v-37h-636v37q94 1 139 22.5t58 58t13 155.5v406h-692v-406q0 -118 12 -153.5t57 -59t138 -23.5v-37h-631z" />
<glyph unicode="I" horiz-adv-x="789" d="M71 0v37q94 1 139.5 21.5t59.5 57t14 157.5v861q0 122 -14.5 158.5t-59 56t-139.5 20.5v37h647v-37q-95 -1 -139 -21t-58.5 -56.5t-14.5 -157.5v-861q0 -119 12.5 -155t58 -58.5t141.5 -22.5v-37h-647z" />
<glyph unicode="J" horiz-adv-x="897" d="M34 123q0 44 30 74t74 30q73 0 120 -96q45 -89 91 -89q43 0 58 48t15 220v824q0 121 -13.5 156.5t-57 56.5t-137.5 22v37h629v-37q-87 -3 -130 -23t-56 -56t-13 -156v-635q0 -167 -33 -277t-122.5 -181.5t-222.5 -71.5q-99 0 -165.5 42.5t-66.5 111.5z" />
<glyph unicode="K" horiz-adv-x="1685" d="M81 0v37q94 1 139 22t58.5 57.5t13.5 156.5v861q0 121 -14 157t-58 56.5t-139 21.5v37h643v-37q-93 -1 -137 -21.5t-58 -57t-14 -156.5v-411q125 97 336 299.5t211 282.5q0 61 -124 64v37h514v-37q-71 0 -144 -37t-234 -208q-188 -199 -350 -335l526 -521 q134 -132 216 -181.5t180 -49.5h29v-37h-726v37q124 0 124 72q0 36 -66 101l-492 487v-424q0 -118 12 -153t55 -58t132 -25v-37h-633z" />
<glyph unicode="L" horiz-adv-x="1366" d="M87 0v37q94 0 140.5 24t58.5 59.5t12 152.5v861q0 120 -13.5 155.5t-58.5 56.5t-139 23v37h632v-37q-90 -2 -133 -22.5t-56 -56.5t-13 -156v-960q0 -47 17.5 -64t90.5 -17h263q163 0 247 61.5t158 233.5l36 -12l-119 -376h-1123z" />
<glyph unicode="M" horiz-adv-x="2027" d="M88 0v37q92 0 137 24t56.5 59.5t11.5 152.5v853q0 92 -16 135t-61.5 71t-127.5 37v37h431l499 -1074l494 1074h426v-37q-91 -2 -135 -22.5t-57 -56.5t-13 -155v-862q0 -117 11.5 -152.5t56 -59.5t137.5 -24v-37h-633v37q92 0 137.5 23.5t57.5 59t12 153.5v907l-545 -1180 h-35l-547 1180v-907q0 -118 11.5 -153t55 -58t130.5 -25v-37h-494z" />
<glyph unicode="N" horiz-adv-x="1685" d="M24 1369v37h408l912 -1038v791q0 129 -25.5 169.5t-125.5 40.5h-54v37h517v-37h-55q-108 0 -137 -33.5t-29 -164.5v-1187h-28l-1007 1132v-836q0 -118 19 -160.5t60 -61t126 -21.5v-37h-508v37q98 2 142 24t57.5 64.5t13.5 209.5v871q-93 163 -286 163z" />
<glyph unicode="O" horiz-adv-x="1579" d="M75 704q0 300 208.5 517t504.5 217q294 0 504.5 -213.5t210.5 -518.5q0 -169 -78 -339t-252 -284t-379 -114q-287 0 -503 212t-216 523zM328 707q0 -303 127.5 -481t335.5 -178q205 0 332 175.5t127 475.5q0 288 -119.5 473t-344.5 185q-223 0 -340.5 -181.5 t-117.5 -468.5z" />
<glyph unicode="P" horiz-adv-x="1237" d="M50 0v37q88 1 132 24t56 58.5t12 153.5v861q0 121 -13.5 156.5t-56 56t-130.5 22.5v37h599q271 0 410 -118.5t139 -276.5q0 -154 -125.5 -269t-329.5 -115q-122 0 -271 46v-400q0 -119 12.5 -155t57.5 -58.5t140 -22.5v-37h-632zM472 743q103 -40 173 -40q136 0 217.5 84 t81.5 218q0 149 -94.5 236.5t-227.5 87.5q-71 0 -150 -27v-559z" />
<glyph unicode="Q" horiz-adv-x="1579" d="M79 703q0 301 209.5 518t504.5 217q286 0 500 -209t214 -523q0 -254 -148.5 -450t-383.5 -266q208 -339 517 -355v-37l-43 -1q-145 0 -394 98.5t-467 304.5q-219 70 -364 264.5t-145 438.5zM333 707q0 -302 126.5 -480.5t335.5 -178.5q219 0 339.5 184.5t120.5 467.5 q0 297 -124.5 477t-340.5 180q-223 0 -340 -181.5t-117 -468.5z" />
<glyph unicode="R" horiz-adv-x="1579" d="M69 0v37q84 3 126.5 24.5t55.5 57t13 154.5v861q0 114 -10 147.5t-50 58.5t-110 28l-25 1v37h645q263 0 381 -110.5t118 -255.5q0 -267 -357 -360l318 -393q111 -138 181.5 -189.5t162.5 -60.5v-37h-367l-532 660q-15 -2 -34 -2q-71 0 -99 2v-387q0 -117 11.5 -152.5 t54.5 -58.5t131 -25v-37h-614zM486 729q474 0 474 304q0 120 -87.5 211t-228.5 91q-75 0 -158 -37v-569z" />
<glyph unicode="S" horiz-adv-x="1131" d="M104 1074q0 153 115 258.5t283 105.5q96 0 253 -60q40 -16 70 -16q53 0 80 74h38v-465h-38q-21 162 -126 273t-249 111q-104 0 -174.5 -60.5t-70.5 -145.5q0 -63 44 -119q43 -57 229 -166q120 -70 222 -136t174 -158.5t72 -212.5q0 -175 -134.5 -281.5t-298.5 -106.5 q-109 0 -296 62q-38 12 -65 12q-54 0 -83 -74h-38v474h38q43 -204 155 -298.5t249 -94.5q119 0 195 62.5t76 160.5q0 83 -66 165q-67 81 -282 203q-218 123 -295 212q-77 88 -77 221z" />
<glyph unicode="T" horiz-adv-x="1366" d="M47 1088l15 318h1238l20 -318h-40q-18 139 -91 184t-208 45h-189v-1044q0 -117 11.5 -152.5t56 -59.5t138.5 -24v-37h-631v37q90 0 135 24.5t56 60t11 151.5v1044h-182q-112 0 -162 -15t-92.5 -72.5t-48.5 -141.5h-37z" />
<glyph unicode="U" horiz-adv-x="1685" d="M65 1369v37h628v-37q-84 -2 -127 -25t-54.5 -58t-11.5 -152v-624q0 -133 10.5 -192.5t59 -124.5t130.5 -101t197 -36q158 0 263.5 62t142.5 165.5t37 279.5v571q0 121 -13.5 156.5t-58 56.5t-138.5 22v37h516v-37q-99 0 -145 -21.5t-59 -57.5t-13 -156v-571 q0 -186 -45 -307.5t-182.5 -204t-325.5 -82.5q-163 0 -286.5 43t-191.5 116.5t-94 165t-26 224.5v616q0 121 -14 157t-58.5 56.5t-140.5 21.5z" />
<glyph unicode="V" horiz-adv-x="1473" d="M26 1369v37h597v-37q-103 0 -129 -26t-26 -66q0 -39 47 -155l316 -779l297 789q40 106 40 137q0 95 -145 100v37h428v-37q-78 -2 -135.5 -76t-121.5 -244l-409 -1080h-38l-466 1153q-59 147 -106.5 195t-148.5 52z" />
<glyph unicode="W" horiz-adv-x="2027" d="M17 1369v37h538v-37q-125 -4 -125 -92q0 -39 38 -143l279 -764l226 628l-72 186q-45 119 -81 150t-114 35v37h558v-37q-138 -10 -138 -98q0 -61 34 -151l287 -750l271 764q37 105 37 142q0 93 -148 93v37h408v-37q-66 -2 -110.5 -54t-98.5 -204l-402 -1142h-40l-342 901 l-327 -901h-34l-439 1196q-49 133 -82 167t-123 37z" />
<glyph unicode="X" horiz-adv-x="1579" d="M28 0v37q66 1 131 46.5t160 157.5l368 441l-324 445q-113 156 -175.5 198.5t-159.5 43.5v37h659v-37q-142 0 -142 -79q0 -37 47 -102l239 -331l288 348q39 47 39 84q0 80 -140 80v37h485v-37q-73 0 -116 -21t-79 -58.5t-198 -227.5l-227 -278l316 -439 q153 -212 209.5 -260t144.5 -48v-37h-624v37q137 0 137 75q0 43 -53 114l-23 31l-254 353l-334 -402q-48 -59 -48 -94q0 -75 135 -77v-37h-461z" />
<glyph unicode="Y" horiz-adv-x="1579" d="M22 1369v37h623v-37q-161 0 -161 -57q0 -46 68 -149l308 -465l268 420q97 151 97 192q0 59 -138 59h-12v37h476v-37q-97 0 -161.5 -50t-161.5 -201l-330 -515v-328q0 -122 13.5 -158.5t59 -58t144.5 -21.5v-37h-653v37q96 1 142 22t60 57.5t14 158.5v316l-385 572 q-110 162 -148.5 184t-122.5 22z" />
<glyph unicode="Z" horiz-adv-x="1366" d="M44 0v37l932 1287h-460q-202 0 -251.5 -67t-61.5 -198h-37l29 347h1113l-957 -1319h594q148 0 219.5 46t127.5 242h33l-70 -375h-1211z" />
<glyph unicode="[" horiz-adv-x="555" d="M121 -407v1849h405v-88h-244v-1671h244v-90h-405z" />
<glyph unicode="\" horiz-adv-x="575" d="M0 1469h136l439 -1500h-136z" />
<glyph unicode="]" horiz-adv-x="555" d="M29 -319h244v1671h-244v90h405v-1849h-405v88z" />
<glyph unicode="^" horiz-adv-x="1194" d="M149 688l411 718h82l404 -718h-159l-295 512l-290 -512h-153z" />
<glyph unicode="_" d="M-12 -154h1048v-102h-1048v102z" />
<glyph unicode="`" horiz-adv-x="682" d="M174 1469h228l106 -344h-35z" />
<glyph unicode="a" d="M82 204q0 128 125.5 220.5t421.5 193.5q-1 142 -9.5 194.5t-48.5 85t-126 32.5q-68 0 -113 -37t-45 -100q0 -14 2 -33q1 -14 1 -26q0 -86 -80 -86q-89 0 -89 85q0 101 99 170t265 69q123 0 194.5 -34.5t93.5 -92.5t22 -179v-476q0 -97 60 -97q59 0 134 86v-52 q-123 -155 -230 -155q-126 0 -130 172q-89 -86 -172.5 -129t-161.5 -43q-90 0 -151.5 68t-61.5 164zM253 256q0 -69 44.5 -118t111.5 -49q52 0 107 25.5t113 75.5v373q-228 -94 -302 -155.5t-74 -151.5z" />
<glyph unicode="b" horiz-adv-x="1131" d="M44 1350l287 119h36v-684q63 94 140.5 140.5t168.5 46.5q155 0 269 -133.5t114 -328.5q0 -234 -154 -386t-354 -152q-83 0 -170.5 31t-179.5 92v1045q0 106 -20 145t-78 39q-22 0 -46 -9zM367 150q51 -55 107.5 -83t119.5 -28q131 0 211 124t80 276q0 156 -81 272.5 t-218 116.5q-57 0 -111.5 -26t-107.5 -78v-574z" />
<glyph unicode="c" horiz-adv-x="897" d="M54 463q0 229 134.5 369t332.5 140q137 0 232.5 -69.5t95.5 -152.5q0 -35 -28 -57.5t-71 -22.5q-93 0 -108 101q-10 70 -45 105q-35 34 -111 34q-127 0 -197.5 -101.5t-70.5 -251.5q0 -187 89 -303.5t241 -116.5q222 0 293 232l33 -15q-37 -158 -146 -270t-253 -112 q-192 0 -306.5 144.5t-114.5 346.5z" />
<glyph unicode="d" horiz-adv-x="1131" d="M68 441q0 214 144.5 372.5t336.5 158.5q56 0 110 -17.5t107 -53.5v259q0 90 -19 126.5t-68 36.5q-26 0 -60 -13l-17 33l294 126h35v-1183q0 -105 19.5 -139t67.5 -34q29 0 62 15l14 -35l-328 -121v139q-65 -69 -137 -104t-151 -35q-164 0 -287 137.5t-123 331.5zM249 515 q0 -181 96.5 -304.5t228.5 -123.5q57 0 105 23.5t87 69.5v448q0 153 -81 220.5t-164 67.5q-108 0 -190 -116.5t-82 -284.5z" />
<glyph unicode="e" horiz-adv-x="897" d="M65 463q0 227 115 368t308 141q163 0 261.5 -106.5t98.5 -272.5h-643q-1 -25 -1 -38q0 -153 93 -288t246 -135q197 0 273 219l32 -17q-33 -169 -138.5 -265.5t-243.5 -96.5q-165 0 -283 128.5t-118 362.5zM209 656h427q-3 117 -59.5 180t-143.5 63q-88 0 -151 -66 t-73 -177z" />
<glyph unicode="f" horiz-adv-x="682" d="M50 0v37q89 1 122.5 37t33.5 153v660h-132v63h132v52q0 131 32 227.5t128 168t214 71.5q98 0 179 -50.5t81 -119.5q0 -31 -25.5 -57t-57.5 -26q-51 0 -106 81q-67 99 -144 99q-47 0 -80 -27.5t-44 -69t-11 -174.5v-175h193v-63h-193v-660q0 -122 36 -156t133 -34v-37 h-491z" />
<glyph unicode="g" d="M65 -243q0 40 32.5 89t163.5 180q-104 34 -104 101q0 49 41.5 106.5t123.5 122.5q-87 45 -130.5 115t-43.5 164q0 138 103 237.5t268 99.5q60 0 112.5 -14.5t98.5 -44.5h220q42 0 42 -33v-37q0 -27 -36 -27h-147q53 -79 53 -174q0 -145 -101 -236t-253 -91q-67 0 -135 20 q-41 -36 -62 -66.5t-21 -55.5q0 -36 44.5 -48.5t157.5 -12.5l170 1q170 0 247 -64q76 -65 76 -147q0 -162 -168 -269t-363 -107q-155 0 -272 62t-117 129zM214 -161q0 -76 106 -113t240 -37q158 0 259 60t101 145q0 50 -48 76t-280 29.5t-284 16.5q-94 -100 -94 -177z M319 723q0 -144 58 -250.5t158 -106.5q68 0 109.5 64.5t41.5 164.5q0 117 -57.5 219t-154.5 102q-72 0 -113.5 -56.5t-41.5 -136.5z" />
<glyph unicode="h" horiz-adv-x="1131" d="M40 1346l291 123h36v-696q72 95 162 147t167 52q85 0 146.5 -51.5t80.5 -128.5t19 -216v-350q0 -103 25.5 -146t129.5 -43v-37h-476v37q103 1 127.5 45.5t24.5 143.5v392q0 86 -9.5 126t-52.5 72.5t-98 32.5q-41 0 -97 -20.5t-149 -106.5v-496q0 -120 35 -154.5 t130 -34.5v-37h-481v37q83 1 115.5 38t32.5 151v863q0 151 -16 192t-74 41q-26 0 -58 -11z" />
<glyph unicode="i" horiz-adv-x="555" d="M48 0v37q76 2 117.5 31.5t41.5 158.5v453q0 84 -22.5 121t-79.5 37q-24 0 -46 -10l-11 37l284 107h35v-745q0 -112 30.5 -148t111.5 -42v-37h-461zM175 1369q0 43 31 74t75 31q43 0 74 -30.5t31 -74.5q0 -45 -31 -75.5t-74 -30.5q-44 0 -75 31t-31 75z" />
<glyph unicode="j" horiz-adv-x="555" d="M-149 -331q0 34 26 59.5t60 25.5q50 0 104 -49q62 -57 91 -57q59 0 77 56t18 252v721q0 166 -94 166q-25 0 -62 -11l-11 36l298 104h35v-924q0 -241 -90.5 -361.5t-271.5 -120.5q-73 0 -126.5 28t-53.5 75zM195 1369q0 44 31.5 75t74.5 31t74.5 -31t31.5 -75t-31.5 -75 t-74.5 -31t-74.5 31t-31.5 75z" />
<glyph unicode="k" horiz-adv-x="1131" d="M54 0v37q90 1 123.5 37t33.5 153v897q0 132 -18 169t-76 37q-22 0 -50 -9l-13 35l292 113h35v-936l290 278q37 35 37 59q0 43 -77 43v37h419v-37q-125 -1 -198.5 -50t-111.5 -85l-203 -192l256 -333q106 -138 164.5 -177t137.5 -39v-37h-456v37q65 3 65 39q0 28 -33 71 l-290 376v-296q0 -102 25 -146t131 -44v-37h-483z" />
<glyph unicode="l" horiz-adv-x="555" d="M46 0v37q107 1 132 47.5t25 141.5v883q0 103 -4.5 133.5t-28 55t-61.5 24.5q-23 0 -49 -12l-14 36l290 123h35v-1243q0 -116 31.5 -151t104.5 -38v-37h-461z" />
<glyph unicode="m" horiz-adv-x="1685" d="M17 865l307 107h35v-195l36 37q153 158 283 158q95 0 154.5 -51.5t83.5 -155.5q75 104 160 155.5t179 51.5q78 0 141 -44.5t86.5 -120t23.5 -204.5v-375q0 -103 25.5 -147t129.5 -44v-37h-484v37q93 1 127 36.5t34 154.5v380v63q1 82 -45.5 130.5t-118.5 48.5 q-121 0 -229 -107l-21 -19q1 -5 2 -22q6 -48 6 -106v-368q0 -103 25.5 -147t130.5 -44v-37h-486v37q94 1 128.5 36.5t34.5 154.5v368q0 129 -38.5 191t-129.5 62q-107 0 -214 -102l-24 -23v-496q0 -108 28 -149.5t123 -41.5v-37h-478v37q92 1 126 37t34 154v432 q0 96 -22.5 138t-79.5 42q-18 0 -41 -6q-12 -4 -17 -5z" />
<glyph unicode="n" horiz-adv-x="1131" d="M38 860l294 112h35v-200q99 112 170 156t155 44q114 0 182 -85q68 -86 68 -249v-411q0 -109 31.5 -148t112.5 -42v-37h-479v37q95 0 131 37t36 153v401q0 111 -41.5 167.5t-121.5 56.5q-60 0 -121 -34t-123 -102v-489q0 -107 31.5 -147.5t123.5 -42.5v-37h-470v37 q90 2 119 43.5t29 146.5v461q0 150 -83 150q-29 0 -65 -17z" />
<glyph unicode="o" horiz-adv-x="1131" d="M91 448q0 198 140 361t351 163q185 0 321 -139.5t136 -327.5q0 -211 -144.5 -372t-346.5 -161q-183 0 -320 137.5t-137 338.5zM276 530q0 -194 88 -341t230 -147q113 0 186.5 101t73.5 277q0 194 -87 337.5t-233 143.5q-119 0 -188.5 -99.5t-69.5 -271.5z" />
<glyph unicode="p" horiz-adv-x="1131" d="M35 -394q98 0 134 35.5t36 156.5v861q0 108 -21.5 142.5t-67.5 34.5q-26 0 -65 -12l-16 36l301 112h35v-217q70 109 152 163t175 54q144 0 258 -131t114 -338q0 -231 -144 -381t-324 -150q-70 0 -128 22t-103 65v-261q0 -115 36 -153.5t139 -38.5v-38h-511v38zM371 340 q0 -118 20.5 -172.5t79 -94t132.5 -39.5q133 0 211.5 108t78.5 288q0 169 -76 283t-206 114q-65 0 -125 -33.5t-115 -101.5v-352z" />
<glyph unicode="q" horiz-adv-x="1131" d="M76 441q0 234 143.5 382.5t336.5 148.5q60 0 116.5 -16t110.5 -49q68 24 115 65h36v-1176q0 -103 24.5 -146.5t131.5 -43.5v-38h-495v38q74 0 104 11t48.5 48t18.5 131v358q-75 -91 -156 -136.5t-167 -45.5q-140 0 -253.5 122.5t-113.5 346.5zM247 507q0 -170 83 -281.5 t224 -111.5q68 0 111 21t95 72l6 7v452q0 86 -21 133.5t-77.5 80.5t-128.5 33q-135 0 -213.5 -112.5t-78.5 -293.5z" />
<glyph unicode="r" horiz-adv-x="789" d="M56 0v37q86 3 120.5 38.5t34.5 152.5v435q0 116 -25.5 142.5t-63.5 26.5q-26 0 -54 -12l-12 34l284 118h38v-205q62 103 127.5 154t133.5 51q48 0 86 -37t38 -82q0 -31 -27 -59.5t-64 -28.5q-38 0 -86 41q-36 31 -56 31q-38 0 -76 -35t-76 -105v-469q0 -121 37.5 -156 t143.5 -35v-37h-503z" />
<glyph unicode="s" horiz-adv-x="789" d="M84 702q0 117 81.5 193.5t202.5 76.5q49 0 116 -19q52 -15 73 -15q25 0 41 12h37v-289h-37q-14 107 -78.5 180.5t-153.5 73.5q-72 0 -118.5 -36t-46.5 -84q0 -66 46 -112q46 -47 151 -98q173 -84 240 -155q67 -72 67 -175q0 -137 -100.5 -210t-205.5 -73q-65 0 -162 29 q-49 14 -67 14q-22 0 -38 -15h-42v320h35q21 -144 100.5 -215t174.5 -71q62 0 110.5 41t48.5 99q0 70 -47 120q-48 49 -205 137q-153 85 -188 146q-35 60 -35 125z" />
<glyph unicode="t" horiz-adv-x="682" d="M60 890v39q210 85 279 323h32v-302h218v-60h-218v-626q0 -87 29.5 -130.5t88.5 -43.5q35 0 67 20t61 59h41q-51 -98 -116 -147.5t-144 -49.5q-96 0 -144.5 68t-48.5 204v646h-145z" />
<glyph unicode="u" horiz-adv-x="1131" d="M37 913v37h338v-635q0 -106 39.5 -159.5t118.5 -53.5q62 0 123 31.5t120 94.5v543q0 70 -19.5 93t-38 35.5t-101.5 13.5v37h328v-673q0 -94 21 -131t69 -37q28 0 68 17v-40l-289 -114h-38v204q-86 -102 -167 -153t-158 -51q-83 0 -144 49.5t-79.5 118t-18.5 190.5v441 q0 76 -31.5 109t-113.5 33h-27z" />
<glyph unicode="v" d="M29 913v37h426v-37q-102 -6 -102 -83q0 -45 37 -132l190 -466l218 541q21 51 21 75q0 60 -105 65v37h286v-37q-48 -5 -71.5 -32.5t-65.5 -136.5l-311 -772h-40l-275 675q-67 164 -105.5 213t-102.5 53z" />
<glyph unicode="w" horiz-adv-x="1473" d="M29 913v37h374v-37q-86 -5 -86 -65q0 -34 20 -90l192 -528l199 441l-46 123q-30 77 -60 98t-93 21v37h436v-37q-117 0 -117 -74q0 -26 14 -64l200 -531l202 531q15 41 15 65q0 71 -108 73v37h281v-37q-36 -1 -63 -35.5t-70 -147.5l-287 -758h-39l-230 609l-270 -609h-39 l-288 786q-36 98 -65.5 125.5t-71.5 29.5z" />
<glyph unicode="x" d="M35 0v37q89 6 207 181l182 269l-161 253q-54 85 -99.5 128.5t-117.5 44.5v37h428v-37q-78 -5 -78 -51q0 -27 40 -90l87 -138l98 145q36 54 36 81q0 49 -75 53v37h315v-37q-105 -1 -235 -193l-100 -148l160 -253q83 -132 145 -205.5t123 -76.5v-37h-419v37q87 0 87 47 q0 31 -59 126l-136 216l-175 -259q-34 -51 -34 -79q0 -51 91 -51v-37h-310z" />
<glyph unicode="y" d="M34 913v37h424v-37q-61 -2 -86 -18.5t-25 -55.5t19 -83l232 -518l159 433q59 158 59 181q0 52 -95 61v37h271v-37q-46 -7 -70.5 -44.5t-85.5 -197.5l-258 -699q-88 -239 -174.5 -322.5t-192.5 -83.5q-60 0 -98.5 31t-38.5 80q0 42 30 68.5t77 26.5q30 0 94 -27 q28 -11 47 -11q89 0 166 204l32 83l-330 735q-68 152 -156 157z" />
<glyph unicode="z" horiz-adv-x="895" d="M29 0v37l605 842h-331q-90 0 -125 -35.5t-49 -145.5h-33v252h762v-37l-609 -846h344q125 0 170 52.5t46 164.5h38l-13 -284h-805z" />
<glyph unicode="{" horiz-adv-x="981" d="M282 517v40q108 14 168 78t60 131q0 56 -25 159q-21 87 -21 160q0 136 107 250.5t269 133.5v-35q-122 -28 -174 -95t-52 -133q0 -63 24 -166q21 -89 21 -157q0 -110 -79 -202.5t-216 -141.5q138 -50 216.5 -146t78.5 -201q0 -69 -21 -157q-24 -104 -24 -167 q0 -73 55 -136t171 -92v-35q-163 19 -269.5 133.5t-106.5 250.5q0 74 21 160q25 103 25 159q0 67 -60.5 131.5t-167.5 77.5z" />
<glyph unicode="|" horiz-adv-x="405" d="M135 -434v1903h133v-1903h-133z" />
<glyph unicode="}" horiz-adv-x="981" d="M177 -360q122 28 174 95.5t52 132.5q0 63 -24 167q-22 88 -22 156q0 110 79.5 202.5t216.5 141.5q-138 50 -217 146.5t-79 201.5q0 68 22 157q24 103 24 166q0 73 -55 136t-171 92v35q162 -19 269 -133.5t107 -250.5q0 -73 -21 -160q-25 -103 -25 -159q0 -67 60.5 -131.5 t167.5 -77.5v-40q-108 -13 -168 -77.5t-60 -131.5q0 -56 25 -159q21 -86 21 -160q0 -136 -107 -250.5t-269 -133.5v35z" />
<glyph unicode="~" horiz-adv-x="1366" d="M143 552q5 156 80.5 229t167.5 73q101 0 382 -121q150 -64 217 -64q160 0 181 184h51q-5 -145 -78.5 -224t-178.5 -79q-51 0 -102.5 14.5t-272.5 105.5q-150 62 -215 62q-149 0 -180 -180h-52z" />
<glyph unicode="&#xa4;" horiz-adv-x="1409" d="M216 305l127 125q-91 124 -91 272q0 140 91 273l-127 126l89 90l127 -127q64 45 132 67.5t140 22.5q139 0 273 -90l127 127l88 -90l-126 -126q90 -126 90 -273t-90 -272l126 -125l-88 -89l-127 125q-62 -45 -130 -68t-143 -23q-141 0 -272 91l-127 -125zM379 702 q0 -134 95.5 -229.5t229.5 -95.5q135 0 230 95.5t95 229.5q0 135 -95.5 230.5t-229.5 95.5q-131 0 -228 -93t-97 -233z" />
<glyph unicode="&#xa6;" horiz-adv-x="405" d="M135 389h133v-823h-133v823zM135 644v825h133v-825h-133z" />
<glyph unicode="&#xa7;" horiz-adv-x="789" d="M37 525q0 223 224 352q-62 62 -93.5 127.5t-31.5 134.5q0 122 84 205t207 83q103 0 178 -65t75 -157q0 -38 -22 -65t-56 -27q-75 0 -75 83q0 25 6 51q8 35 8 52q0 39 -32.5 65t-79.5 26q-80 0 -134.5 -54t-54.5 -119q0 -80 51 -144q50 -65 176 -157q120 -87 204 -187.5 t84 -221.5q0 -224 -222 -348q63 -62 94 -127.5t31 -135.5q0 -123 -83 -206.5t-206 -83.5q-104 0 -179.5 67.5t-75.5 160.5q0 36 24 62t57 26q32 0 51.5 -23.5t19.5 -55.5q0 -28 -8 -60q-7 -29 -7 -45q0 -40 34 -67t83 -27q79 0 134 55t55 113q0 40 -13 77.5t-40 71.5 q-53 68 -219 191q-248 184 -248 373zM136 622q0 -91 57 -164.5t166 -155.5q103 -78 144 -114q156 83 156 226q0 64 -33 123.5t-131 142.5l-201 166q-158 -86 -158 -224z" />
<glyph unicode="&#xa9;" horiz-adv-x="1599" d="M69 708q0 196 100 368t271 267t359 95q301 0 516 -214t215 -516q0 -301 -214.5 -515.5t-516.5 -214.5q-301 0 -515.5 214.5t-214.5 515.5zM132 707q0 -276 195.5 -471.5t471.5 -195.5q275 0 471.5 196t196.5 471q0 180 -91.5 337t-247.5 243.5t-329 86.5 q-172 0 -328 -86.5t-247.5 -243.5t-91.5 -337zM327 701q0 191 141 333.5t372 142.5q74 0 191 -38q26 -8 39 -8q33 0 50 45h40l21 -288h-40q-74 243 -312 243q-165 0 -248 -114t-83 -286q0 -218 93.5 -321.5t247.5 -103.5q201 0 321 166l39 -19q-143 -209 -395 -209 q-212 0 -344.5 136t-132.5 321z" />
<glyph unicode="&#xab;" d="M64 518l390 474h58l-247 -474l247 -481h-58zM512 518l396 474h59l-246 -474l246 -481h-59z" />
<glyph unicode="&#xac;" horiz-adv-x="1366" d="M141 872v129h1085v-597h-129v468h-956z" />
<glyph unicode="&#xad;" horiz-adv-x="682" d="M87 396v161h508v-161h-508z" />
<glyph unicode="&#xae;" horiz-adv-x="1599" d="M69 708q0 196 100 368t271 267t359 95q301 0 516 -214t215 -516q0 -301 -214.5 -515.5t-516.5 -214.5q-301 0 -515.5 214.5t-214.5 515.5zM132 707q0 -276 195.5 -471.5t471.5 -195.5q275 0 471.5 196t196.5 471q0 180 -91.5 337t-247.5 243.5t-329 86.5 q-172 0 -328 -86.5t-247.5 -243.5t-91.5 -337zM408 265v35q51 0 73 13t28 34t6 95v538q0 90 -16 114t-79 25v37h397q141 0 224 -64t83 -166q0 -87 -57 -144t-172 -85l216 -307q60 -86 124 -90v-35h-189l-304 417h-78v-318q5 -26 24 -45t97 -19v-35h-377zM664 727h31 q130 0 196.5 50.5t66.5 136.5q0 83 -58 139.5t-149 56.5q-42 0 -87 -15v-368z" />
<glyph unicode="&#xb0;" horiz-adv-x="811" d="M98 1130q0 128 90.5 218t216.5 90q127 0 217.5 -90t90.5 -218q0 -126 -90.5 -216.5t-217.5 -90.5q-126 0 -216.5 90.5t-90.5 216.5zM182 1131q0 -92 65 -157.5t158 -65.5t158 65.5t65 157.5t-65.5 157.5t-157.5 65.5q-90 0 -156.5 -63.5t-66.5 -159.5z" />
<glyph unicode="&#xb1;" horiz-adv-x="1366" d="M140 0v129h1087v-129h-1087zM140 808v129h478v480h129v-480h480v-129h-480v-477h-129v477h-478z" />
<glyph unicode="&#xb5;" horiz-adv-x="1067" d="M63 -345q0 49 30 172q35 142 35 270l-1 100v753h169v-554q0 -177 34 -237.5t112 -60.5q61 0 122 34.5t122 103.5v714h170v-680v-61q-1 -61 20.5 -93.5t50.5 -32.5q65 0 83 127h43q-18 -238 -204 -238q-72 0 -112.5 49t-50.5 147q-79 -98 -160 -147t-164 -49q-51 0 -91 22 t-69 65q-1 -32 -1 -47q0 -84 35 -247q14 -62 14 -109q0 -40 -26 -76t-71 -36t-67.5 34.5t-22.5 76.5z" />
<glyph unicode="&#xb6;" horiz-adv-x="961" d="M-21 1017q0 175 121.5 282t345.5 107h537v-37h-42q-78 0 -99 -36.5t-21 -174.5v-1590h-75v1781h-193v-1781h-76v1055q-498 6 -498 394z" />
<glyph unicode="&#xb7;" horiz-adv-x="555" d="M164 702q0 47 33.5 80.5t79.5 33.5t80 -32.5t34 -81.5q0 -47 -33.5 -80t-80.5 -33q-46 0 -79.5 33t-33.5 80z" />
<glyph unicode="&#xbb;" d="M57 37l246 479l-246 476h59l396 -476l-396 -479h-59zM512 37l247 479l-247 476h58l390 -476l-390 -479h-58z" />
<glyph unicode="&#x2000;" horiz-adv-x="746" />
<glyph unicode="&#x2001;" horiz-adv-x="1493" />
<glyph unicode="&#x2002;" horiz-adv-x="746" />
<glyph unicode="&#x2003;" horiz-adv-x="1493" />
<glyph unicode="&#x2004;" horiz-adv-x="497" />
<glyph unicode="&#x2005;" horiz-adv-x="373" />
<glyph unicode="&#x2006;" horiz-adv-x="248" />
<glyph unicode="&#x2007;" horiz-adv-x="248" />
<glyph unicode="&#x2008;" horiz-adv-x="186" />
<glyph unicode="&#x2009;" horiz-adv-x="298" />
<glyph unicode="&#x200a;" horiz-adv-x="82" />
<glyph unicode="&#x2010;" horiz-adv-x="682" d="M87 396v161h508v-161h-508z" />
<glyph unicode="&#x2011;" horiz-adv-x="682" d="M87 396v161h508v-161h-508z" />
<glyph unicode="&#x2012;" horiz-adv-x="682" d="M87 396v161h508v-161h-508z" />
<glyph unicode="&#x2013;" d="M-7 443v65h1039v-65h-1039z" />
<glyph unicode="&#x2014;" horiz-adv-x="2048" d="M-7 443v65h2063v-65h-2063z" />
<glyph unicode="&#x2018;" horiz-adv-x="555" d="M128 1132q0 232 297 337v-37q-224 -88 -224 -263q0 -21 8 -31.5t23 -10.5q8 0 28 9q33 16 56 16q45 0 77 -32t32 -75q0 -50 -38.5 -84.5t-91.5 -34.5q-77 0 -122 60.5t-45 145.5z" />
<glyph unicode="&#x2019;" horiz-adv-x="555" d="M128 890v40q224 87 224 263q0 21 -7.5 31t-23.5 10q-7 0 -27 -9q-34 -15 -57 -15q-44 0 -76 32t-32 76q0 50 37.5 85t91.5 35q77 0 122 -61t45 -147q0 -235 -297 -340z" />
<glyph unicode="&#x201a;" horiz-adv-x="682" d="M193 80q0 53 42 86.5t90 33.5q67 0 120 -57.5t53 -143.5q0 -102 -68 -192.5t-189 -122.5v42q76 42 120 87.5t44 124.5q0 55 -33 55q-11 0 -31 -7q-24 -9 -46 -9q-38 0 -70 28.5t-32 74.5z" />
<glyph unicode="&#x201c;" d="M128 1132q0 235 297 337v-36q-224 -88 -224 -264q0 -20 8 -30.5t23 -10.5q8 0 28 9q33 15 56 15q44 0 76.5 -31.5t32.5 -75.5q0 -50 -38.5 -84.5t-91.5 -34.5q-77 0 -122 60.5t-45 145.5zM595 1132q0 235 298 337v-36q-224 -87 -224 -264q0 -20 8 -30.5t23 -10.5 q7 0 27 9q34 15 57 15q44 0 76 -32t32 -75q0 -50 -37.5 -84.5t-91.5 -34.5q-77 0 -122.5 60.5t-45.5 145.5z" />
<glyph unicode="&#x201d;" d="M124 890v40q224 87 224 263q0 21 -7.5 31t-23.5 10q-7 0 -27 -9q-34 -15 -57 -15q-44 0 -76 32t-32 76q0 50 37.5 85t91.5 35q77 0 122 -61t45 -147q0 -235 -297 -340zM601 890v40q224 87 224 263q0 21 -7.5 31t-23.5 10q-8 0 -28 -9q-33 -15 -56 -15q-44 0 -76.5 32 t-32.5 76q0 50 38 85t92 35q71 0 119 -58t48 -150q0 -235 -297 -340z" />
<glyph unicode="&#x201e;" d="M138 -303q224 88 224 262q0 21 -7.5 31t-23.5 10q-8 0 -27 -10q-33 -18 -56 -18q-45 0 -77 32.5t-32 77.5q0 51 38 86.5t92 35.5q76 0 121 -61t45 -146q0 -236 -297 -339v39zM587 -303q224 88 224 262q0 21 -7.5 31t-23.5 10q-8 0 -27 -10q-33 -18 -56 -18 q-45 0 -77 32.5t-32 77.5q0 51 38 86.5t92 35.5q75 0 120.5 -61t45.5 -146q0 -236 -297 -339v39z" />
<glyph unicode="&#x2022;" horiz-adv-x="725" d="M109 703q0 101 72.5 177.5t180.5 76.5q106 0 180 -74.5t74 -179.5t-74.5 -179.5t-179.5 -74.5q-108 0 -180.5 76t-72.5 178z" />
<glyph unicode="&#x2026;" horiz-adv-x="2048" d="M228 87q0 49 34 82t80 33t80 -33t34 -82q0 -47 -33.5 -81t-80.5 -34t-80.5 34t-33.5 81zM910 87q0 49 33.5 82t80.5 33q46 0 79.5 -33t33.5 -82q0 -47 -33 -81t-80 -34q-48 0 -81 33.5t-33 81.5zM1592 87q0 48 34 81.5t81 33.5q46 0 80 -33t34 -82q0 -47 -33.5 -81 t-80.5 -34t-81 34t-34 81z" />
<glyph unicode="&#x202f;" horiz-adv-x="298" />
<glyph unicode="&#x2039;" horiz-adv-x="555" d="M53 518l397 474h58l-246 -474l246 -481h-58z" />
<glyph unicode="&#x203a;" horiz-adv-x="555" d="M47 37l246 479l-246 476h59l396 -476l-396 -479h-59z" />
<glyph unicode="&#x205f;" horiz-adv-x="373" />
<glyph unicode="&#x2122;" horiz-adv-x="2005" d="M29 1205l21 201h728l22 -201h-34q-5 50 -41.5 95.5t-152.5 45.5h-75v-580q0 -83 20 -105.5t86 -25.5v-36h-374v36q55 4 77.5 20t22.5 111v580h-76q-90 0 -133 -29.5t-57 -111.5h-34zM869 599v36q70 0 91.5 23.5t21.5 107.5v466q0 89 -19.5 113t-93.5 24v37h286l273 -572 l265 572h279v-37q-71 -2 -91 -25.5t-20 -108.5v-469q0 -85 19 -106t92 -25v-36h-398v36q74 2 96.5 26t22.5 105v492l-307 -659h-32l-308 649v-482q0 -77 17.5 -104t75.5 -27h36v-36h-306z" />
<glyph unicode="&#x25fc;" horiz-adv-x="950" d="M0 0v950h950v-950h-950z" />
</font>
</defs>
</svg>
